<svg width="1181" height="473" xmlns="http://www.w3.org/2000/svg" xmlns:xlink="http://www.w3.org/1999/xlink" xml:space="preserve" overflow="hidden"><g transform="translate(-81 -292)"><g><g><g><g><path d="M365.708 325.254C324.969 325.254 291.857 358.433 291.878 399.172 291.922 439.867 325.057 473.001 365.796 472.979 406.513 472.957 439.648 439.801 439.626 399.084 439.604 358.345 406.447 325.21 365.708 325.254ZM365.752 450.955C337.198 450.977 313.924 427.726 313.902 399.15 313.902 370.573 337.132 347.322 365.708 347.322 394.307 347.3 417.514 370.551 417.558 399.106 417.558 427.66 394.35 450.933 365.752 450.955Z" fill="#003F5C" fill-rule="nonzero" fill-opacity="1" transform="matrix(1.0016 0 0 1 82 292.01)"/><path d="M580.294 450.846C538.547 450.868 504.646 416.922 504.624 375.197L482.556 375.241C482.6 429.107 526.429 472.914 580.338 472.892 634.204 472.87 678.011 428.997 677.989 375.153L655.943 375.153C655.943 416.857 621.998 450.824 580.294 450.846Z" fill="#003F5C" fill-rule="nonzero" fill-opacity="1" transform="matrix(1.0016 0 0 1 82 292.01)"/><path d="M806.912 325.057C766.173 325.079 733.06 358.235 733.104 398.952 733.126 439.669 766.282 472.804 806.999 472.782 847.76 472.782 880.851 439.604 880.829 398.887 880.807 358.148 847.629 325.035 806.912 325.057ZM806.977 450.736C778.401 450.758 755.15 427.507 755.128 398.952 755.084 370.376 778.335 347.125 806.934 347.125 835.488 347.103 858.739 370.354 858.783 398.909 858.805 427.463 835.554 450.736 806.977 450.736Z" fill="#003F5C" fill-rule="nonzero" fill-opacity="1" transform="matrix(1.0016 0 0 1 82 292.01)"/><path d="M886.264 89.1918C876.534 79.2426 863.232 74.1804 846.708 74.2242L261.724 74.4872 261.79 246.669 901.735 246.362 901.648 129.383C901.692 128.419 902.042 105.321 886.264 89.1918ZM674.329 96.3578 674.417 224.448 493.206 224.513 493.141 96.4235 674.329 96.3578ZM283.748 96.5331 471.073 96.4235 471.139 224.513 283.858 224.601 283.748 96.5331ZM879.668 224.316 696.419 224.404 696.353 96.3359 846.686 96.2482C856.964 96.2701 864.941 99.0314 870.376 104.488 879.668 113.889 879.602 128.791 879.602 129.142L879.668 224.316Z" fill="#003F5C" fill-rule="nonzero" fill-opacity="1" transform="matrix(1.0016 0 0 1 82 292.01)"/><path d="M352.581 202.972 352.56 162.627 402.831 162.583 402.853 155.045 352.56 155.067 352.538 118.075 405.636 118.031 405.614 110.515 344.583 110.558 344.626 210.488 406.798 210.466 406.776 202.928Z" fill="#003F5C" fill-rule="nonzero" fill-opacity="1" transform="matrix(1.0016 0 0 1 82 292.01)"/><path d="M581.171 163.526 582.267 164.117C595.81 170.955 604.203 176.893 604.181 185.615 604.225 198.15 595.788 204.243 578.41 204.243 570.258 204.243 560.221 200.451 553.471 194.776L551.937 193.461 547.16 199.641 548.584 200.846C557.547 208.187 568.11 211.913 579.944 211.913 595.635 211.913 612.421 204.988 612.443 185.593 612.399 172.006 600.763 164.972 586.715 157.828 585.444 157.192 584.086 156.535 582.705 155.856 572.668 150.991 560.111 144.92 559.454 133.7 559.213 129.076 560.418 125.285 563.113 122.458 566.817 118.513 573.26 116.431 581.741 116.431 589.104 116.431 596.248 119.828 601.705 122.787L603.283 123.641 607.293 117.352 605.584 116.322C597.936 111.654 589.126 109.2 580.229 109.2 566.992 109.2 551.543 115.423 551.543 132.999 551.521 148.777 567.255 156.623 581.171 163.526Z" fill="#003F5C" fill-rule="nonzero" fill-opacity="1" transform="matrix(1.0016 0 0 1 82 292.01)"/><path d="M786.707 167.58 813.596 167.58 813.617 198.83C807.635 202.139 798.431 204.155 789.227 204.155 766.501 204.177 750 185.813 750 160.479 749.978 134.752 765.778 116.76 788.482 116.738 800.622 116.76 810.045 120.639 813.574 122.305L815.349 123.159 818.504 116.3 816.795 115.445C809.015 111.545 798.475 109.222 788.613 109.243 761.176 109.243 742.045 130.325 742.067 160.479 742.045 190.656 761.439 211.715 789.249 211.693 800.798 211.693 810.111 209.546 820.345 204.462L821.463 203.958 821.419 160.195 786.728 160.195 786.707 167.58Z" fill="#003F5C" fill-rule="nonzero" fill-opacity="1" transform="matrix(1.0016 0 0 1 82 292.01)"/><path d="M1150.44 120.617 1067.19 120.661 1067.21 139.288 1067.19 147.462 1053.54 147.484C1029.63 116.914 1005.28 92.5885 981.044 74.8378 977.866 21.3666 928.383 2.47633 901.845 0L178.975 0.284888 179.172 410.238 250.855 410.194 250.833 388.149 201.24 388.171 201.043 22.3308 900.245 22.024C906.206 22.6814 959.151 29.979 959.151 80.2945L959.305 387.842 920.472 387.864 920.494 409.91 981.351 409.888 981.329 380.654C1005.54 362.903 1029.78 338.578 1053.62 308.073L1067.28 308.073 1067.26 318.176 1067.28 334.897 1150.62 334.853C1161.68 334.743 1178.12 327.621 1178.1 308.446L1178.03 147.002C1178.03 127.783 1161.62 120.705 1150.44 120.617ZM1042.75 286.005 1039.47 290.323C1020.16 315.546 1000.7 336.409 981.351 352.647L981.241 102.932C1000.61 119.149 1020.1 140.011 1039.38 165.191L1042.71 169.53 1067.21 169.508 1067.3 285.962 1042.75 286.005ZM1156.1 308.446C1156.07 309.541 1156.07 312.544 1150.53 312.763L1089.32 312.807 1089.32 285.983 1089.26 169.53 1089.24 142.707 1150.25 142.685C1155.96 142.882 1155.96 145.884 1156.01 146.98L1156.1 308.446Z" fill="#003F5C" fill-rule="nonzero" fill-opacity="1" transform="matrix(1.0016 0 0 1 82 292.01)"/><path d="M50.5128 421.897 50.5128 421.897C46.4367 421.546 43.0838 418.807 41.1115 416.703 37.2765 418.391 33.7263 419.114 30.5706 418.851 20.1832 417.952 17.1152 407.543 16.2167 402.459 9.83958 400.903 5.52244 397.725 3.35291 393.014-0.0657433 385.607 3.24334 376.665 5.32521 372.37 0.898492 367.79-0.78892 363.188 0.372546 358.674 2.5859 350.017 14.9237 345.284 21.3447 343.377 19.723 336.891 20.2928 331.828 23.0759 328.278 26.122 324.356 31.4472 322.69 38.92 323.348 43.5002 323.742 47.8392 324.969 49.8554 325.583 64.9106 320.674 75.7582 322.603 81.7628 330.974 88.7754 340.726 86.7593 356.504 85.6636 362.355L136.286 401.582 87.8112 399.785 96.2263 406.71 61.2947 415.936C57.5473 421.283 53.4055 422.16 50.5128 421.897ZM43.1495 407.718 44.9465 410.282C45.7574 411.422 48.5405 414.621 51.1264 414.84 52.7481 414.972 54.4355 413.701 56.101 411.005L56.8461 409.8 81.0834 403.401 67.1678 391.962 114.591 393.715 77.8182 365.204 78.3222 362.991C78.366 362.794 82.6832 344.385 76.0212 335.094 71.726 329.133 63.2889 328.432 51.0168 332.661L49.8334 333.056 48.672 332.639C48.6281 332.617 43.6097 330.842 38.3064 330.382 35.5233 330.141 30.5926 330.097 28.6203 332.595 26.9767 334.743 27.1082 338.929 29.0805 344.67L30.3734 348.396 26.4946 349.25C20.8187 350.521 8.61238 354.926 7.20985 360.383 6.48667 363.32 9.4013 366.672 12.031 368.952L14.2225 370.902 12.7323 373.422C11.0668 376.205 7.27559 384.598 9.79576 390.033 11.1983 393.079 14.6388 395.095 19.9641 395.994L22.7472 396.432 22.9225 399.259C22.9225 399.391 23.7553 411.137 31.1842 411.772 33.6825 411.992 36.7724 411.115 40.3883 409.165L43.1495 407.718Z" fill="#003F5C" fill-rule="nonzero" fill-opacity="1" transform="matrix(1.0016 0 0 1 82 292.01)"/></g></g></g></g></g></svg>