<svg width="1148" height="96" xmlns="http://www.w3.org/2000/svg" xmlns:xlink="http://www.w3.org/1999/xlink" xml:space="preserve" overflow="hidden"><g transform="translate(-106 -436)"><g><g><g><g><path d="M16.9449 46.3483 31.7678 64.6875 27.615 67.8097 15.3989 52.229C13.8226 56.9881 11.7311 60.7165 9.09384 63.475 6.48694 66.2335 3.42535 67.8097 0 68.2038L0 62.99C2.66753 62.505 4.94099 60.8681 6.88101 58.1096 8.82103 55.3512 10.3064 51.7136 11.3673 47.197 12.4282 42.7107 13.0042 37.6182 13.0648 32.0103L1.06095 32.0103 1.06095 27.1603 30.04 27.1603 30.04 32.0103 18.3999 32.0103C18.3696 37.0422 17.8846 41.8317 16.9449 46.3483ZM41.377 25.5234 41.377 70.932 36.1025 70.932 36.1025 25.5234 41.377 25.5234Z" fill="#000000" fill-rule="nonzero" fill-opacity="1" transform="matrix(1.00336 0 0 1 107.732 437)"/><path d="M95.4853 56.0787 75.2364 56.0787 75.2364 71.9626 69.8104 71.9626 69.8104 56.0787 50.1374 56.0787 50.1374 51.0771 95.4853 51.0771 95.4853 56.0787ZM86.7552 31.5253 53.108 31.5253 53.108 26.5843 92.2419 26.5843 92.2419 47.3183 86.7552 47.3183 86.7552 31.5253Z" fill="#000000" fill-rule="nonzero" fill-opacity="1" transform="matrix(1.00336 0 0 1 107.732 437)"/><path d="M101.275 46.4089 146.623 46.4089 146.623 50.2283 101.275 50.2283 101.275 46.4089ZM104.397 60.1709 138.378 60.1709 138.378 57.2609 104.306 57.2609 104.306 53.5324 143.501 53.5324 143.501 63.6872 109.52 63.6872 109.52 66.6579 144.289 66.6579 144.289 70.3863 104.397 70.3863 104.397 60.1709ZM104.579 32.8591 138.287 32.8591 138.287 29.7672 104.579 29.7672 104.579 26.0387 143.38 26.0387 143.38 36.3451 109.672 36.3451 109.672 39.3763 144.016 39.3763 144.016 43.1048 104.579 43.1048 104.579 32.8591Z" fill="#000000" fill-rule="nonzero" fill-opacity="1" transform="matrix(1.00336 0 0 1 107.732 437)"/><path d="M212.644 56.0787 192.395 56.0787 192.395 71.9626 186.969 71.9626 186.969 56.0787 167.296 56.0787 167.296 51.0771 212.644 51.0771 212.644 56.0787ZM203.914 31.5253 170.267 31.5253 170.267 26.5843 209.401 26.5843 209.401 47.3183 203.914 47.3183 203.914 31.5253Z" fill="#000000" fill-rule="nonzero" fill-opacity="1" transform="matrix(1.00336 0 0 1 107.732 437)"/><path d="M236.834 32.6772 248.898 32.6772 248.898 37.3454 219.434 37.3454 219.434 32.6772 231.438 32.6772 231.438 25.4021 236.804 25.4021 236.804 32.6772ZM240.714 42.7107C242.624 43.8626 244.109 45.4995 245.17 47.5911 246.231 49.713 246.777 52.1077 246.777 54.8359 246.777 57.564 246.261 59.989 245.17 62.1109 244.109 64.2328 242.624 65.8394 240.714 66.9913 238.804 68.1432 236.622 68.7191 234.166 68.7191 231.711 68.7191 229.529 68.1432 227.619 66.9913 225.709 65.8394 224.193 64.2025 223.133 62.1109 222.041 59.989 221.496 57.5943 221.496 54.8359 221.496 52.1077 222.041 49.6827 223.133 47.5911 224.224 45.4692 225.709 43.8626 227.619 42.7107 229.529 41.5589 231.711 40.9829 234.166 40.9829 236.622 40.9829 238.804 41.5589 240.714 42.7107ZM238.016 63.0506C239.138 62.2928 240.047 61.2319 240.714 59.8072 241.381 58.3825 241.684 56.7456 241.684 54.8662 241.684 52.9868 241.351 51.3499 240.714 49.9252 240.047 48.5005 239.168 47.4092 238.016 46.6817 236.895 45.9239 235.591 45.5601 234.197 45.5601 231.984 45.5601 230.195 46.4089 228.771 48.0761 227.346 49.7736 226.649 52.0168 226.649 54.8662 226.649 57.7156 227.346 59.9587 228.771 61.6562 230.195 63.3234 231.984 64.1722 234.197 64.1722 235.591 64.1722 236.864 63.7781 238.016 63.0506ZM265.904 48.9552 259.508 48.9552 259.508 70.9016 254.233 70.9016 254.233 25.5234 259.508 25.5234 259.508 43.9233 265.904 43.9233 265.904 48.9552Z" fill="#000000" fill-rule="nonzero" fill-opacity="1" transform="matrix(1.00336 0 0 1 107.732 437)"/><path d="M269.572 48.1064 314.92 48.1064 314.92 52.7746 269.572 52.7746 269.572 48.1064ZM272.724 56.8365 278.09 56.8365 278.09 65.7182 312.586 65.7182 312.586 70.3863 272.724 70.3863 272.724 56.8365ZM272.815 25.5234 278.12 25.5234 278.12 38.4366 312.101 38.4366 312.101 43.1048 272.815 43.1048 272.815 25.5234Z" fill="#000000" fill-rule="nonzero" fill-opacity="1" transform="matrix(1.00336 0 0 1 107.732 437)"/><path d="M650.816 63.2628C657.667 63.2628 662.547 62.6263 665.487 61.3531L665.487 66.2941C662.365 67.5672 657.424 68.2038 650.664 68.2038L633.325 68.2038 633.325 63.2628 645.602 63.2628 645.602 54.3812C642.268 53.8052 639.57 52.2896 637.509 49.7736 635.447 47.288 634.417 44.1961 634.417 40.5585 634.417 37.8304 634.993 35.4054 636.175 33.2531 637.357 31.1009 638.964 29.4337 641.055 28.2515 643.147 27.0693 645.511 26.4631 648.179 26.4631 650.816 26.4631 653.18 27.0693 655.272 28.2515 657.394 29.4337 659.031 31.1009 660.243 33.2531 661.456 35.4054 662.062 37.8304 662.062 40.5585 662.062 42.9836 661.577 45.1661 660.637 47.1364 659.667 49.1067 658.333 50.7133 656.636 51.9865 654.938 53.2596 652.968 54.0477 650.786 54.4115L650.786 63.2628ZM641.934 47.2273C643.48 48.9855 645.572 49.8646 648.209 49.8646 649.906 49.8646 651.422 49.4705 652.756 48.652 654.09 47.8336 655.12 46.712 655.848 45.3176 656.575 43.8929 656.939 42.3167 656.939 40.5888 656.939 38.8307 656.575 37.2241 655.848 35.7994 655.12 34.3747 654.09 33.2531 652.786 32.4347 651.483 31.6163 649.967 31.2222 648.209 31.2222 645.572 31.2222 643.48 32.1013 641.934 33.8594 640.388 35.6175 639.6 37.8607 639.6 40.5888 639.57 43.2564 640.358 45.4692 641.934 47.2273ZM680.795 48.5308 674.521 48.5308 674.521 70.9016 669.246 70.9016 669.246 25.5234 674.521 25.5234 674.521 43.4989 680.795 43.4989 680.795 48.5308Z" fill="#000000" fill-rule="nonzero" fill-opacity="1" transform="matrix(1.00336 0 0 1 107.732 437)"/><path d="M1005.51 66.476C1003.44 64.93 1001.84 62.5959 1000.69 59.4434 999.534 56.2909 998.958 52.3805 998.958 47.682 998.958 43.0139 999.534 39.0732 1000.69 35.9207 1001.84 32.7681 1003.44 30.4037 1005.51 28.8881 1007.57 27.3725 1009.96 26.5843 1012.75 26.5843 1015.48 26.5843 1017.87 27.3725 1019.93 28.8881 1022 30.4037 1023.6 32.7681 1024.75 35.9207 1025.91 39.0732 1026.48 42.9836 1026.48 47.682 1026.48 52.3502 1025.91 56.2909 1024.75 59.4434 1023.6 62.5959 1022 64.93 1019.93 66.476 1017.87 68.0219 1015.48 68.7798 1012.75 68.7798 1009.96 68.7798 1007.54 68.0219 1005.51 66.476ZM1018.84 59.9284C1020.42 57.2609 1021.18 53.1687 1021.18 47.682 1021.18 42.2257 1020.39 38.1335 1018.84 35.466 1017.3 32.7681 1015.24 31.4344 1012.72 31.4344 1010.17 31.4344 1008.11 32.7681 1006.54 35.466 1004.99 38.1335 1004.2 42.2257 1004.2 47.7124 1004.2 53.199 1004.99 57.2912 1006.51 59.9587 1008.05 62.6263 1010.11 63.96 1012.69 63.96 1015.24 63.96 1017.27 62.6263 1018.84 59.9284ZM1034.15 25.5234 1039.46 25.5234 1039.46 70.932 1034.15 70.932 1034.15 25.5234Z" fill="#000000" fill-rule="nonzero" fill-opacity="1" transform="matrix(1.00336 0 0 1 107.732 437)"/><path d="M1070.25 28.8881C1072.29 30.4341 1073.86 32.7681 1074.98 35.9207 1076.1 39.0732 1076.68 42.9836 1076.68 47.682 1076.68 52.3502 1076.1 56.2909 1074.98 59.4434 1073.86 62.5959 1072.29 64.93 1070.25 66.476 1068.22 68.0219 1065.89 68.7798 1063.19 68.7798 1059.04 68.7798 1055.73 67.0216 1053.31 63.475 1050.85 59.9284 1049.64 54.654 1049.64 47.682 1049.64 40.7101 1050.85 35.4357 1053.31 31.8891 1055.76 28.3425 1059.07 26.5843 1063.19 26.5843 1065.86 26.5843 1068.22 27.3421 1070.25 28.8881ZM1069.16 59.9284C1070.68 57.2609 1071.44 53.1687 1071.44 47.682 1071.44 42.1954 1070.68 38.1032 1069.16 35.4357 1067.65 32.7681 1065.68 31.4041 1063.19 31.4041 1060.68 31.4041 1058.67 32.7378 1057.16 35.4357 1055.64 38.1032 1054.92 42.1954 1054.92 47.682 1054.92 53.1687 1055.67 57.2609 1057.16 59.9284 1058.67 62.5959 1060.68 63.9297 1063.19 63.9297 1065.65 63.96 1067.65 62.6263 1069.16 59.9284ZM1089.29 41.5589 1089.29 52.0471 1095.69 52.0471 1095.69 56.9274 1089.29 56.9274 1089.29 70.9016 1084.02 70.9016 1084.02 25.5234 1089.29 25.5234 1089.29 36.6785 1095.69 36.6785 1095.69 41.5589 1089.29 41.5589Z" fill="#000000" fill-rule="nonzero" fill-opacity="1" transform="matrix(1.00336 0 0 1 107.732 437)"/><path d="M1101.45 63.1113C1105.54 63.1113 1109.05 62.0806 1112.06 60.0497 1115.06 58.0187 1117.33 55.1087 1118.91 51.3802 1120.48 47.6517 1121.27 43.2564 1121.27 38.2244L1121.27 32.0103 1101.45 32.0103 1101.45 27.1603 1126.64 27.1603 1126.64 38.1032C1126.64 44.1354 1125.61 49.4099 1123.57 53.9265 1121.54 58.4431 1118.6 61.9291 1114.81 64.4147 1110.99 66.87 1106.54 68.1129 1101.45 68.1129L1101.45 63.1113ZM1136.43 25.5234 1141.7 25.5234 1141.7 70.932 1136.43 70.932 1136.43 25.5234Z" fill="#000000" fill-rule="nonzero" fill-opacity="1" transform="matrix(1.00336 0 0 1 107.732 437)"/><path d="M350.083 60.2618C348.991 60.2618 348.112 60.1709 347.476 59.989 346.839 59.8072 346.324 59.5343 345.99 59.1706 345.657 58.8068 345.414 58.4128 345.323 57.9581 345.202 57.5034 345.172 56.9881 345.172 56.4121 345.172 55.9574 345.233 55.5027 345.323 55.048 345.445 54.5934 345.657 54.1993 346.021 53.8355 346.354 53.4718 346.869 53.199 347.506 52.9565 348.143 52.7443 349.022 52.623 350.113 52.623L579.187 52.5624C580.278 52.5624 581.157 52.6836 581.794 52.8958 582.461 53.1383 582.945 53.4112 583.279 53.7749 583.612 54.1387 583.855 54.5327 583.976 54.9874 584.097 55.4421 584.128 55.8968 584.128 56.3515 584.128 56.9274 584.067 57.4428 583.976 57.8975 583.855 58.3521 583.643 58.7462 583.279 59.11 582.915 59.4737 582.43 59.7465 581.794 59.9284 581.157 60.1103 580.278 60.2012 579.187 60.2012L350.083 60.2618Z" fill="#003F5C" fill-rule="nonzero" fill-opacity="1" transform="matrix(1.00336 0 0 1 107.732 437)"/><path d="M350.083 70.3863 350.083 70.3863C348.021 70.3863 346.233 70.1741 344.657 69.7194 342.383 69.0829 340.382 67.931 338.806 66.3244 337.139 64.6269 335.987 62.5353 335.441 60.2922 335.169 59.0797 335.017 57.7762 335.017 56.4121 335.017 55.1693 335.169 53.9265 335.441 52.714 335.987 50.4405 337.139 48.3792 338.776 46.7423 340.231 45.2873 341.989 44.1658 344.081 43.4382 345.899 42.8017 347.839 42.5289 350.083 42.5289L579.156 42.4682C581.4 42.4682 583.34 42.7714 585.067 43.3776 587.22 44.1354 589.008 45.257 590.463 46.712 592.1 48.3792 593.222 50.4102 593.767 52.623 594.07 53.8962 594.222 55.139 594.222 56.4121 594.222 57.8065 594.07 59.0797 593.797 60.3225 593.252 62.5656 592.13 64.5966 590.524 66.2335 588.857 67.9007 586.886 69.0526 584.552 69.7194 583.006 70.1741 581.248 70.3863 579.156 70.3863L350.083 70.3863Z" fill="#003F5C" fill-rule="nonzero" fill-opacity="1" transform="matrix(1.00336 0 0 1 107.732 437)"/><path d="M584.704 50.198C584.492 49.8039 584.34 49.3492 584.219 48.8339 584.128 48.3186 584.097 47.773 584.158 47.2577 584.219 46.7423 584.401 46.227 584.643 45.7723 584.885 45.2873 585.28 44.9236 585.765 44.6508 586.644 44.1658 587.553 44.0142 588.493 44.2264 589.432 44.4386 590.251 45.0751 591.009 46.1664 591.797 47.3183 592.464 48.1974 593.04 48.8642 593.616 49.5008 594.161 49.9858 594.707 50.2889 595.253 50.5921 595.798 50.8043 596.374 50.8649 596.95 50.9255 597.647 50.9861 598.466 50.9861L599.102 50.9861C600.406 50.9861 601.376 51.4105 602.012 52.2896 602.649 53.1687 602.952 54.2902 602.952 55.624 602.952 56.9881 602.649 58.0793 602.012 58.9281 601.376 59.7768 600.406 60.2012 599.102 60.2012L598.526 60.2012C597.617 60.2012 596.859 60.2922 596.223 60.474 595.586 60.6559 594.98 60.9894 594.434 61.4744 593.888 61.9594 593.312 62.5959 592.767 63.4144 592.191 64.2328 591.524 65.2938 590.797 66.5669 590.19 67.6885 589.463 68.3251 588.584 68.5372 587.705 68.7191 586.886 68.6585 586.098 68.2947 585.492 68.0219 585.037 67.5975 584.734 67.0216 584.431 66.4457 584.279 65.8697 584.279 65.2635 584.31 64.2328 584.552 63.3234 585.037 62.5353 585.704 61.2015 586.462 59.989 587.25 58.8372 588.038 57.7156 588.826 56.8365 589.614 56.1999 589.16 55.8665 588.675 55.4421 588.19 54.9571 587.705 54.4721 587.25 53.9568 586.826 53.3808 586.401 52.8352 586.007 52.2593 585.643 51.7136 585.249 51.168 584.946 50.6527 584.704 50.198Z" fill="#003F5C" fill-rule="nonzero" fill-opacity="1" transform="matrix(1.00336 0 0 1 107.732 437)"/><path d="M587.614 78.7223C585.674 78.7223 583.764 78.3283 581.945 77.5098 579.156 76.2367 577.065 74.2361 575.731 71.7201 574.64 69.6588 574.094 67.4763 574.094 65.2332 574.094 65.1422 574.094 65.021 574.094 64.93 574.185 62.2928 574.852 59.8375 576.065 57.655 576.246 57.2912 576.459 56.8971 576.671 56.5334 576.337 56.0181 576.065 55.5331 575.822 55.1087 575.125 53.8355 574.579 52.4108 574.276 50.8952 573.943 49.1371 573.882 47.5002 574.094 45.8936 574.337 44.1354 574.882 42.4986 575.701 40.9829 576.792 38.8913 578.58 37.0726 580.793 35.8297 583.946 34.1019 587.341 33.6169 590.675 34.3444 593.1 34.89 596.526 36.3754 599.284 40.3767 599.405 40.5585 599.496 40.7101 599.618 40.8313 603.952 41.0132 607.772 42.9836 610.197 46.3483 612.046 48.9552 613.016 52.138 613.016 55.5937 613.016 60.0497 611.409 63.1416 610.075 64.9603 607.772 68.0522 604.316 69.9013 600.315 70.2348 600.103 70.5985 599.83 71.0229 599.557 71.5079 597.556 75.1151 594.404 77.5401 590.736 78.3586 589.675 78.6011 588.644 78.7223 587.614 78.7223ZM600.618 42.1954C600.618 42.1954 600.618 42.1954 600.618 42.1954 600.618 42.1954 600.618 42.1954 600.618 42.1954ZM597.526 40.8313C597.526 40.8313 597.526 40.8313 597.526 40.8313 597.526 40.8313 597.526 40.8313 597.526 40.8313Z" fill="#003F5C" fill-rule="nonzero" fill-opacity="1" transform="matrix(1.00336 0 0 1 107.732 437)"/><path d="M396.795 60.2618 348.112 60.2618 348.112 52.7443 396.795 52.7443 396.795 60.2618ZM363.723 42.8017C354.811 42.8017 349.294 35.4963 349.294 27.13L349.294 25.8568C349.294 17.4905 354.811 10.1245 363.723 10.1245L381.305 10.1245C390.217 10.1245 395.734 17.4905 395.734 25.8568L395.734 27.1906C395.734 35.5569 390.186 42.8017 381.305 42.8017L363.723 42.8017ZM378.152 35.2235C383.669 35.2235 386.731 31.5556 386.731 27.13L386.731 25.9478C386.731 21.5524 383.699 17.7027 378.152 17.7027L366.876 17.7027C361.359 17.7027 358.297 21.4918 358.297 25.9174L358.297 27.13C358.297 31.5556 361.329 35.2235 366.876 35.2235L378.152 35.2235Z" fill="#003F5C" fill-rule="nonzero" fill-opacity="1" transform="matrix(1.00336 0 0 1 107.732 437)"/><path d="M396.795 70.3863 348.112 70.3863C342.535 70.3863 337.988 65.8697 337.988 60.2618L337.988 52.7443C337.988 48.5005 340.625 44.8629 344.323 43.3473 341.049 38.9823 339.14 33.3744 339.14 27.13L339.14 25.8568C339.14 11.1248 349.689 0 363.693 0L381.274 0C395.279 0 405.828 11.1248 405.828 25.8568L405.828 27.1906C405.828 33.435 403.918 39.0429 400.644 43.4079 404.312 44.9236 406.889 48.5308 406.889 52.7746L406.889 60.2922C406.919 65.8697 402.372 70.3863 396.795 70.3863Z" fill="#003F5C" fill-rule="nonzero" fill-opacity="1" transform="matrix(1.00336 0 0 1 107.732 437)"/><path d="M454.692 60.2618 403.312 60.2618 403.312 52.5927 454.692 52.5927 454.692 60.2618ZM444.871 27.9484 444.871 31.9497C444.871 32.6469 444.81 33.3138 444.749 34.011 449.357 37.0726 452.873 41.4982 453.631 48.3186L445.447 50.0768C445.265 47.3183 443.931 44.3173 441.748 42.4076 439.172 46.1664 434.989 49.228 428.562 50.1374L428.562 48.4399 420.984 50.0768C420.924 47.3789 420.105 44.4386 417.953 42.5895 415.194 46.3483 410.769 49.4099 404.464 50.3193L404.464 41.9529C408.253 41.4679 413.042 38.3457 413.042 32.0709L413.042 27.9484 421.56 27.9484 421.56 31.7678C421.56 32.5863 421.5 33.4653 421.378 34.3444 424.985 36.7694 427.441 40.0735 428.562 44.6508L428.562 41.9529C432.352 41.5892 436.322 38.3457 436.322 32.1619L436.322 27.9181 444.871 27.9181ZM452.934 63.6266 452.934 74.6907C452.934 78.1767 452.752 81.2383 452.176 83.8755L442.84 83.8755C443.355 81.4505 443.537 78.5102 443.537 75.9942L443.537 71.5685 405.07 71.5685 405.07 63.6266 452.934 63.6266Z" fill="#003F5C" fill-rule="nonzero" fill-opacity="1" transform="matrix(1.00336 0 0 1 107.732 437)"/><path d="M452.176 94 442.84 94C439.778 94 436.868 92.6056 434.958 90.2412 433.049 87.8465 432.291 84.7243 432.958 81.7233 432.958 81.7233 432.958 81.693 432.958 81.693L405.07 81.693C399.492 81.693 394.945 77.1764 394.945 71.5685L394.945 65.9607C393.854 64.3238 393.187 62.3837 393.187 60.2618L393.187 52.623C393.187 50.9255 393.612 49.3189 394.37 47.8942L394.37 41.9529C394.37 36.9513 398.037 32.7075 402.948 31.9497L402.948 27.9484C402.948 22.3708 407.465 17.8239 413.073 17.8239L421.59 17.8239C424.5 17.8239 427.138 19.0668 428.987 21.0371 430.836 19.0668 433.473 17.8239 436.383 17.8239L444.901 17.8239C450.479 17.8239 455.025 22.3405 455.025 27.9484L455.025 29.3125C459.966 34.1019 462.937 40.1948 463.725 47.2273 463.756 47.5305 463.786 47.8336 463.786 48.1367 464.453 49.5008 464.847 51.0164 464.847 52.623L464.847 60.2618C464.847 62.3837 464.21 64.3238 463.089 65.9607L463.089 74.6907C463.089 79.4195 462.786 82.9358 462.088 86.058 461.027 90.6959 456.935 94 452.176 94Z" fill="#003F5C" fill-rule="nonzero" fill-opacity="1" transform="matrix(1.00336 0 0 1 107.732 437)"/><path d="M490.37 35.7085 490.37 52.8655 497.767 52.8655 497.767 35.1932 505.921 35.1932 505.921 83.724 497.767 83.724 497.767 59.8072 490.37 59.8072 490.37 74.6301C490.37 77.0855 488.764 79.0861 486.278 79.0861L466.878 79.0861C464.392 79.0861 462.786 77.0855 462.786 74.5998L462.786 35.7085 470.94 35.7085 470.94 50.2283 482.246 50.2283 482.246 35.7085 490.37 35.7085ZM482.186 57.1699 470.879 57.1699 470.879 72.1445 482.186 72.1445 482.186 57.1699Z" fill="#003F5C" fill-rule="nonzero" fill-opacity="1" transform="matrix(1.00336 0 0 1 107.732 437)"/><path d="M505.921 93.8484 497.767 93.8484C494.068 93.8484 490.855 91.8781 489.067 88.9074 488.157 89.0893 487.218 89.1803 486.248 89.1803L466.847 89.1803C458.875 89.1803 452.631 82.754 452.631 74.5695L452.631 35.7085C452.631 30.1309 457.147 25.584 462.755 25.584L470.909 25.584C473.001 25.584 474.941 26.2206 476.548 27.3118 478.154 26.2206 480.094 25.584 482.186 25.584L490.34 25.584C491.401 25.584 492.431 25.7356 493.401 26.0387 494.705 25.4021 496.19 25.0687 497.736 25.0687L505.89 25.0687C511.468 25.0687 516.015 29.5853 516.015 35.1932L516.015 83.724C516.015 89.3318 511.498 93.8484 505.921 93.8484Z" fill="#003F5C" fill-rule="nonzero" fill-opacity="1" transform="matrix(1.00336 0 0 1 107.732 437)"/><path d="M560.302 60.2618 513.226 60.2618 513.226 52.9868 560.302 52.9868 560.302 60.2618ZM541.053 11.7007 541.053 23.0377C541.053 23.4621 540.993 23.8865 540.932 24.3412 549.268 25.7356 556.998 32.0709 559.726 40.5888L550.996 42.4682C549.723 37.891 544.691 32.7075 538.052 31.8284 533.869 37.6485 525.533 42.0742 514.348 42.4682L514.348 34.9203C526.352 34.1625 532.323 27.5847 532.323 23.0984L532.323 11.7007 541.053 11.7007Z" fill="#003F5C" fill-rule="nonzero" fill-opacity="1" transform="matrix(1.00336 0 0 1 107.732 437)"/><path d="M560.302 70.3863 513.226 70.3863C507.648 70.3863 503.102 65.8697 503.102 60.2618L503.102 52.9868C503.102 50.6527 503.89 48.5308 505.193 46.803 504.557 45.4692 504.223 43.9839 504.223 42.4682L504.223 34.9203C504.223 29.5853 508.376 25.1596 513.711 24.8262 518.773 24.5231 521.35 22.7952 522.199 21.9162L522.199 11.7007C522.199 6.12319 526.715 1.57627 532.323 1.57627L541.053 1.57627C546.631 1.57627 551.178 6.09287 551.178 11.7007L551.178 17.0055C559.696 20.9765 566.455 28.4031 569.365 37.4969 570.244 40.2251 569.911 43.1654 568.486 45.6511 568.335 45.9239 568.183 46.1664 568.001 46.4089 569.517 48.167 570.426 50.4708 570.426 52.9868L570.426 60.2618C570.426 65.8697 565.91 70.3863 560.302 70.3863Z" fill="#003F5C" fill-rule="nonzero" fill-opacity="1" transform="matrix(1.00336 0 0 1 107.732 437)"/><path d="M474.577 13.2467 474.577 16.1567 465.059 16.1567 465.059 20.643 474.092 20.643 474.092 23.4924 465.059 23.4924 465.059 28.6456 474.82 28.6456 474.82 31.5556 463.362 31.5556C462.331 31.5556 461.664 30.8281 461.664 29.6762L461.664 13.2467 474.577 13.2467Z" fill="#003F5C" fill-rule="nonzero" fill-opacity="1" transform="matrix(1.00336 0 0 1 107.732 437)"/><path d="M474.82 41.6498 463.362 41.6498C456.723 41.6498 451.54 36.3754 451.54 29.6459L451.54 13.2467C451.54 7.66914 456.056 3.12222 461.664 3.12222L474.608 3.12222C480.185 3.12222 484.732 7.63883 484.732 13.2467L484.732 16.1567C484.732 17.3389 484.52 18.4605 484.156 19.4911 484.186 19.8549 484.217 20.249 484.217 20.643L484.217 23.4924C484.217 23.8865 484.186 24.3109 484.156 24.7049 484.671 25.9174 484.944 27.2512 484.944 28.6456L484.944 31.5556C484.944 37.1332 480.397 41.6498 474.82 41.6498Z" fill="#003F5C" fill-rule="nonzero" fill-opacity="1" transform="matrix(1.00336 0 0 1 107.732 437)"/><path d="M488.946 18.703 485.641 18.703C485.308 16.7024 484.005 15.793 482.216 15.793 479.943 15.793 479.094 16.9145 479.094 18.2786 479.094 19.5518 480.276 20.2793 482.004 20.734 485.763 21.7343 489.158 22.9771 489.158 26.3418 489.158 29.8884 486.248 31.7981 482.004 31.7981 478.245 31.7981 475.487 29.8884 474.941 25.4324L478.397 25.4324C478.669 27.524 479.7 28.7668 482.034 28.7668 483.914 28.7668 485.763 28.4334 485.763 26.5237 485.763 25.4628 484.459 24.7049 482.671 24.1896 479.791 23.4318 475.578 22.2496 475.578 18.4605 475.578 14.732 478.548 13.0042 482.216 13.0042 485.308 12.9739 488.279 14.338 488.946 18.703" fill="#003F5C" fill-rule="nonzero" fill-opacity="1" transform="matrix(1.00336 0 0 1 107.732 437)"/><path d="M482.034 41.9226C472.758 41.9226 466.059 35.9207 464.907 26.645 464.695 24.7959 464.968 22.9468 465.726 21.2796 465.544 20.3096 465.453 19.3396 465.453 18.4302 465.453 9.39697 472.516 2.8494 482.216 2.8494 491.037 2.8494 497.615 8.45727 498.949 17.157 499.191 18.703 499.07 20.2793 498.585 21.7343 499.04 23.159 499.282 24.7049 499.282 26.3418 499.312 35.375 492.037 41.9226 482.034 41.9226ZM480.822 22.583C481.307 22.8862 481.822 23.0984 482.246 23.0984 482.64 23.068 483.156 22.7952 483.641 22.4012 483.186 22.0374 482.671 21.7949 482.186 21.704 481.792 21.8252 481.276 22.1283 480.822 22.583Z" fill="#003F5C" fill-rule="nonzero" fill-opacity="1" transform="matrix(1.00336 0 0 1 107.732 437)"/><path d="M505.981 18.4302 502.586 18.4302C502.132 16.8842 500.889 15.9748 498.585 15.9748 494.099 15.9748 493.462 19.4608 493.462 22.3708 493.462 25.2809 494.099 28.7365 498.615 28.7365 500.707 28.7365 501.647 28.2212 502.617 27.6453L502.617 24.3109 498.373 24.3109 498.373 21.2796 505.981 21.2796 505.981 30.1612C503.344 31.2222 500.919 31.7981 498.555 31.7981 492.613 31.7981 490.097 27.4937 490.097 22.4012 490.097 17.3086 492.644 12.9739 498.555 12.9739 502.344 12.9436 505.223 14.9139 505.981 18.4302" fill="#003F5C" fill-rule="nonzero" fill-opacity="1" transform="matrix(1.00336 0 0 1 107.732 437)"/><path d="M498.524 41.8923C487.581 41.8923 479.943 33.8594 479.943 22.3708 479.943 10.852 487.581 2.81909 498.524 2.81909 507.194 2.81909 514.196 8.24508 515.924 16.3083 516.197 17.5208 516.197 18.7636 516.015 19.9761 516.075 20.4005 516.106 20.8249 516.106 21.2493L516.106 30.1309C516.106 34.2535 513.62 37.9516 509.801 39.4976 505.799 41.1042 502.132 41.8923 498.524 41.8923Z" fill="#003F5C" fill-rule="nonzero" fill-opacity="1" transform="matrix(1.00336 0 0 1 107.732 437)"/><path d="M350.083 60.2618C348.991 60.2618 348.112 60.1709 347.476 59.989 346.839 59.8072 346.324 59.5343 345.99 59.1706 345.657 58.8068 345.414 58.4128 345.323 57.9581 345.202 57.5034 345.172 56.9881 345.172 56.4121 345.172 55.9574 345.233 55.5027 345.323 55.048 345.445 54.5934 345.657 54.1993 346.021 53.8355 346.354 53.4718 346.869 53.199 347.506 52.9565 348.143 52.7443 349.022 52.623 350.113 52.623L579.187 52.5624C580.278 52.5624 581.157 52.6836 581.794 52.8958 582.461 53.1383 582.945 53.4112 583.279 53.7749 583.612 54.1387 583.855 54.5327 583.976 54.9874 584.097 55.4421 584.128 55.8968 584.128 56.3515 584.128 56.9274 584.067 57.4428 583.976 57.8975 583.855 58.3521 583.643 58.7462 583.279 59.11 582.915 59.4737 582.43 59.7465 581.794 59.9284 581.157 60.1103 580.278 60.2012 579.187 60.2012L350.083 60.2618Z" fill="#166A79" fill-rule="nonzero" fill-opacity="1" transform="matrix(1.00336 0 0 1 107.732 437)"/><path d="M350.083 68.7191 350.083 68.7191C348.173 68.7191 346.566 68.5069 345.142 68.1129 343.141 67.5369 341.383 66.5366 340.019 65.1422 338.564 63.6569 337.563 61.8684 337.109 59.8981 336.866 58.8068 336.715 57.655 336.715 56.4121 336.715 55.2906 336.836 54.1993 337.109 53.0777 337.594 51.1074 338.564 49.3189 339.988 47.8942 341.262 46.6211 342.807 45.6511 344.657 44.9842 346.263 44.4083 348.021 44.1658 350.083 44.1658L579.156 44.1051C581.218 44.1051 582.976 44.3779 584.522 44.9236 586.432 45.5905 588.008 46.5605 589.251 47.8336 590.645 49.2583 591.645 51.0468 592.13 52.9565 592.403 54.078 592.524 55.1996 592.524 56.3515 592.524 57.6246 592.403 58.7765 592.13 59.8678 591.645 61.8078 590.675 63.5659 589.281 64.9907 587.826 66.4457 586.098 67.446 584.067 68.0219 582.673 68.416 581.066 68.6282 579.156 68.6282L350.083 68.7191ZM349.476 51.8046C349.476 51.8046 349.476 51.8046 349.476 51.8046 349.476 51.8046 349.476 51.8046 349.476 51.8046Z" fill="#FFFFFF" fill-rule="nonzero" fill-opacity="1" transform="matrix(1.00336 0 0 1 107.732 437)"/><path d="M584.704 50.198C584.492 49.8039 584.34 49.3492 584.219 48.8339 584.128 48.3186 584.097 47.773 584.158 47.2577 584.219 46.7423 584.401 46.227 584.643 45.7723 584.885 45.2873 585.28 44.9236 585.765 44.6508 586.644 44.1658 587.553 44.0142 588.493 44.2264 589.432 44.4386 590.251 45.0751 591.009 46.1664 591.797 47.3183 592.464 48.1974 593.04 48.8642 593.616 49.5008 594.161 49.9858 594.707 50.2889 595.253 50.5921 595.798 50.8043 596.374 50.8649 596.95 50.9255 597.647 50.9861 598.466 50.9861L599.102 50.9861C600.406 50.9861 601.376 51.4105 602.012 52.2896 602.649 53.1687 602.952 54.2902 602.952 55.624 602.952 56.9881 602.649 58.0793 602.012 58.9281 601.376 59.7768 600.406 60.2012 599.102 60.2012L598.526 60.2012C597.617 60.2012 596.859 60.2922 596.223 60.474 595.586 60.6559 594.98 60.9894 594.434 61.4744 593.888 61.9594 593.312 62.5959 592.767 63.4144 592.191 64.2328 591.524 65.2938 590.797 66.5669 590.19 67.6885 589.463 68.3251 588.584 68.5372 587.705 68.7191 586.886 68.6585 586.098 68.2947 585.492 68.0219 585.037 67.5975 584.734 67.0216 584.431 66.4457 584.279 65.8697 584.279 65.2635 584.31 64.2328 584.552 63.3234 585.037 62.5353 585.704 61.2015 586.462 59.989 587.25 58.8372 588.038 57.7156 588.826 56.8365 589.614 56.1999 589.16 55.8665 588.675 55.4421 588.19 54.9571 587.705 54.4721 587.25 53.9568 586.826 53.3808 586.401 52.8352 586.007 52.2593 585.643 51.7136 585.249 51.168 584.946 50.6527 584.704 50.198Z" fill="#166A79" fill-rule="nonzero" fill-opacity="1" transform="matrix(1.00336 0 0 1 107.732 437)"/><path d="M587.614 77.0248C585.886 77.0248 584.219 76.6611 582.642 75.9639 580.217 74.8423 578.399 73.1145 577.247 70.9016 576.307 69.0829 575.822 67.1732 575.822 65.2028 575.822 65.1119 575.822 65.021 575.822 64.93 575.883 62.5656 576.489 60.3528 577.61 58.4128 577.974 57.7459 578.338 57.079 578.702 56.4424 578.641 56.3818 578.611 56.2909 578.55 56.2302 578.065 55.4724 577.671 54.8055 577.368 54.2296 576.731 53.108 576.277 51.8349 576.004 50.5011 575.701 48.9552 575.67 47.5002 575.852 46.0755 576.065 44.5295 576.549 43.0745 577.277 41.7407 578.217 39.922 579.763 38.3457 581.703 37.2544 584.461 35.7388 587.462 35.2841 590.402 35.951 592.524 36.436 595.525 37.7394 598.011 41.3163 598.344 41.8317 598.617 42.1954 598.86 42.4986L599.133 42.4986C603.225 42.4986 606.68 44.2264 608.924 47.3183 610.56 49.6221 611.44 52.4715 611.44 55.5634 611.44 58.7765 610.56 61.5956 608.833 63.8994 606.65 66.8094 603.346 68.4463 599.466 68.5372 599.163 68.9919 598.738 69.6588 598.193 70.6288 596.435 73.8117 593.676 75.9639 590.463 76.6611 589.432 76.9339 588.523 77.0248 587.614 77.0248ZM597.344 42.4986C597.344 42.4986 597.344 42.4986 597.344 42.4986 597.344 42.4986 597.344 42.4986 597.344 42.4986Z" fill="#FFFFFF" fill-rule="nonzero" fill-opacity="1" transform="matrix(1.00336 0 0 1 107.732 437)"/><path d="M396.795 60.2618 348.112 60.2618 348.112 52.7443 396.795 52.7443 396.795 60.2618ZM363.723 42.8017C354.811 42.8017 349.294 35.4963 349.294 27.13L349.294 25.8568C349.294 17.4905 354.811 10.1245 363.723 10.1245L381.305 10.1245C390.217 10.1245 395.734 17.4905 395.734 25.8568L395.734 27.1906C395.734 35.5569 390.186 42.8017 381.305 42.8017L363.723 42.8017ZM378.152 35.2235C383.669 35.2235 386.731 31.5556 386.731 27.13L386.731 25.9478C386.731 21.5524 383.699 17.7027 378.152 17.7027L366.876 17.7027C361.359 17.7027 358.297 21.4918 358.297 25.9174L358.297 27.13C358.297 31.5556 361.329 35.2235 366.876 35.2235L378.152 35.2235Z" fill="#166A79" fill-rule="nonzero" fill-opacity="1" transform="matrix(1.00336 0 0 1 107.732 437)"/><path d="M396.795 68.7191 348.112 68.7191C343.444 68.7191 339.685 64.93 339.685 60.2922L339.685 52.7443C339.685 48.3186 343.08 44.7114 347.385 44.3476 343.292 40.0432 340.837 34.011 340.837 27.13L340.837 25.8568C340.837 12.0948 350.659 1.69752 363.693 1.69752L381.274 1.69752C394.309 1.69752 404.13 12.0948 404.13 25.8568L404.13 27.1906C404.13 34.0413 401.675 40.0432 397.583 44.3476 401.857 44.772 405.191 48.3792 405.191 52.7443L405.191 60.2618C405.222 64.93 401.463 68.7191 396.795 68.7191ZM366.724 26.7965C366.755 26.7965 366.815 26.7965 366.846 26.7965L378.122 26.7965C378.183 26.7965 378.213 26.7965 378.243 26.7965L378.243 26.1599C378.213 26.1599 378.152 26.1599 378.122 26.1599L366.846 26.1599C366.785 26.1599 366.755 26.1599 366.724 26.1599L366.724 26.7965Z" fill="#FFFFFF" fill-rule="nonzero" fill-opacity="1" transform="matrix(1.00336 0 0 1 107.732 437)"/><path d="M454.692 60.2618 403.312 60.2618 403.312 52.5927 454.692 52.5927 454.692 60.2618ZM444.871 27.9484 444.871 31.9497C444.871 32.6469 444.81 33.3138 444.749 34.011 449.357 37.0726 452.873 41.4982 453.631 48.3186L445.447 50.0768C445.265 47.3183 443.931 44.3173 441.748 42.4076 439.172 46.1664 434.989 49.228 428.562 50.1374L428.562 48.4399 420.984 50.0768C420.924 47.3789 420.105 44.4386 417.953 42.5895 415.194 46.3483 410.769 49.4099 404.464 50.3193L404.464 41.9529C408.253 41.4679 413.042 38.3457 413.042 32.0709L413.042 27.9484 421.56 27.9484 421.56 31.7678C421.56 32.5863 421.5 33.4653 421.378 34.3444 424.985 36.7694 427.441 40.0735 428.562 44.6508L428.562 41.9529C432.352 41.5892 436.322 38.3457 436.322 32.1619L436.322 27.9181 444.871 27.9181ZM452.934 63.6266 452.934 74.6907C452.934 78.1767 452.752 81.2383 452.176 83.8755L442.84 83.8755C443.355 81.4505 443.537 78.5102 443.537 75.9942L443.537 71.5685 405.07 71.5685 405.07 63.6266 452.934 63.6266Z" fill="#166A79" fill-rule="nonzero" fill-opacity="1" transform="matrix(1.00336 0 0 1 107.732 437)"/><path d="M452.176 92.3328 442.84 92.3328C440.293 92.3328 437.868 91.1809 436.262 89.1803 434.655 87.1796 434.049 84.5727 434.595 82.0871 434.716 81.5111 434.837 80.7836 434.898 79.9955L405.04 79.9955C400.371 79.9955 396.613 76.2064 396.613 71.5685L396.613 65.415C395.521 63.9903 394.855 62.2019 394.855 60.2618L394.855 52.623C394.855 51.0468 395.279 49.5917 396.037 48.3489L396.037 41.9832C396.037 37.7394 399.22 34.1322 403.433 33.6169 404.615 33.4653 404.615 32.465 404.615 32.1013L404.615 27.9484C404.615 23.2802 408.404 19.5214 413.042 19.5214L421.56 19.5214C424.743 19.5214 427.501 21.2796 428.956 23.8865 430.381 21.2796 433.17 19.5214 436.353 19.5214L444.871 19.5214C449.539 19.5214 453.298 23.3105 453.298 27.9484L453.298 30.0097C458.299 34.5869 461.24 40.407 461.997 47.3789 462.028 47.773 462.058 48.1367 462.058 48.5308 462.725 49.7433 463.119 51.1377 463.119 52.623L463.119 60.2618C463.119 62.2019 462.452 63.9903 461.361 65.415L461.361 74.6907C461.361 79.2983 461.058 82.6933 460.391 85.6943 459.572 89.5743 456.147 92.3328 452.176 92.3328Z" fill="#FFFFFF" fill-rule="nonzero" fill-opacity="1" transform="matrix(1.00336 0 0 1 107.732 437)"/><path d="M490.37 35.7085 490.37 52.8655 497.767 52.8655 497.767 35.1932 505.921 35.1932 505.921 83.724 497.767 83.724 497.767 59.8072 490.37 59.8072 490.37 74.6301C490.37 77.0855 488.764 79.0861 486.278 79.0861L466.878 79.0861C464.392 79.0861 462.786 77.0855 462.786 74.5998L462.786 35.7085 470.94 35.7085 470.94 50.2283 482.246 50.2283 482.246 35.7085 490.37 35.7085ZM482.186 57.1699 470.879 57.1699 470.879 72.1445 482.186 72.1445 482.186 57.1699Z" fill="#166A79" fill-rule="nonzero" fill-opacity="1" transform="matrix(1.00336 0 0 1 107.732 437)"/><path d="M505.921 92.1812 497.767 92.1812C494.25 92.1812 491.249 90.029 489.976 86.9674 488.794 87.3312 487.551 87.5131 486.278 87.5131L466.878 87.5131C459.845 87.5131 454.328 81.8446 454.328 74.5998L454.328 35.7085C454.328 31.0403 458.117 27.2815 462.755 27.2815L470.909 27.2815C473.092 27.2815 475.062 28.1 476.548 29.464 478.033 28.1 480.034 27.2815 482.186 27.2815L490.34 27.2815C491.461 27.2815 492.553 27.4937 493.523 27.8878 494.766 27.1603 496.221 26.7662 497.736 26.7662L505.89 26.7662C510.559 26.7662 514.317 30.5553 514.317 35.1932L514.317 83.724C514.348 88.3921 510.559 92.1812 505.921 92.1812Z" fill="#FFFFFF" fill-rule="nonzero" fill-opacity="1" transform="matrix(1.00336 0 0 1 107.732 437)"/><path d="M560.302 60.2618 513.226 60.2618 513.226 52.9868 560.302 52.9868 560.302 60.2618ZM541.053 11.7007 541.053 23.0377C541.053 23.4621 540.993 23.8865 540.932 24.3412 549.268 25.7356 556.998 32.0709 559.726 40.5888L550.996 42.4682C549.723 37.891 544.691 32.7075 538.052 31.8284 533.869 37.6485 525.533 42.0742 514.348 42.4682L514.348 34.9203C526.352 34.1625 532.323 27.5847 532.323 23.0984L532.323 11.7007 541.053 11.7007Z" fill="#166A79" fill-rule="nonzero" fill-opacity="1" transform="matrix(1.00336 0 0 1 107.732 437)"/><path d="M560.302 68.7191 513.226 68.7191C508.558 68.7191 504.799 64.93 504.799 60.2922L504.799 53.0171C504.799 50.683 505.739 48.5914 507.254 47.0455 506.375 45.6814 505.921 44.1051 505.921 42.4682L505.921 34.9203C505.921 30.4644 509.376 26.7965 513.832 26.4934 520.38 26.069 523.26 23.4621 523.896 22.5224L523.896 11.7007C523.896 7.03257 527.685 3.27378 532.323 3.27378L541.053 3.27378C545.721 3.27378 549.48 7.06288 549.48 11.7007L549.48 18.0967C558.028 21.7343 564.879 29.0094 567.759 37.9819 568.486 40.2554 568.214 42.7107 567.031 44.772 566.668 45.4086 566.213 45.9845 565.728 46.4998 567.577 48.0458 568.759 50.3799 568.759 52.9868L568.759 60.2618C568.729 64.93 564.97 68.7191 560.302 68.7191ZM536.567 44.5598 542.811 44.5598C542.508 43.7414 541.659 42.5895 540.417 41.6498 539.234 42.7107 537.961 43.6807 536.567 44.5598Z" fill="#FFFFFF" fill-rule="nonzero" fill-opacity="1" transform="matrix(1.00336 0 0 1 107.732 437)"/><path d="M474.577 13.2467 474.577 16.1567 465.059 16.1567 465.059 20.643 474.092 20.643 474.092 23.4924 465.059 23.4924 465.059 28.6456 474.82 28.6456 474.82 31.5556 463.362 31.5556C462.331 31.5556 461.664 30.8281 461.664 29.6762L461.664 13.2467 474.577 13.2467Z" fill="#B8D200" fill-rule="nonzero" fill-opacity="1" transform="matrix(1.00336 0 0 1 107.732 437)"/><path d="M474.82 39.9826 463.362 39.9826C457.663 39.9826 453.207 35.466 453.207 29.6762L453.207 13.2467C453.207 8.57852 456.996 4.81974 461.634 4.81974L474.577 4.81974C479.245 4.81974 483.004 8.60884 483.004 13.2467L483.004 16.1567C483.004 17.2783 482.792 18.3392 482.398 19.3093 482.459 19.7639 482.519 20.1883 482.519 20.643L482.519 23.4924C482.519 23.9774 482.489 24.4624 482.398 24.9474 482.944 26.069 483.247 27.3118 483.247 28.6456L483.247 31.5556C483.247 36.1935 479.488 39.9826 474.82 39.9826Z" fill="#FFFFFF" fill-rule="nonzero" fill-opacity="1" transform="matrix(1.00336 0 0 1 107.732 437)"/><path d="M488.946 18.703 485.641 18.703C485.308 16.7024 484.005 15.793 482.216 15.793 479.943 15.793 479.094 16.9145 479.094 18.2786 479.094 19.5518 480.276 20.2793 482.004 20.734 485.763 21.7343 489.158 22.9771 489.158 26.3418 489.158 29.8884 486.248 31.7981 482.004 31.7981 478.245 31.7981 475.487 29.8884 474.941 25.4324L478.397 25.4324C478.669 27.524 479.7 28.7668 482.034 28.7668 483.914 28.7668 485.763 28.4334 485.763 26.5237 485.763 25.4628 484.459 24.7049 482.671 24.1896 479.791 23.4318 475.578 22.2496 475.578 18.4605 475.578 14.732 478.548 13.0042 482.216 13.0042 485.308 12.9739 488.279 14.338 488.946 18.703" fill="#8FD3F5" fill-rule="nonzero" fill-opacity="1" transform="matrix(1.00336 0 0 1 107.732 437)"/><path d="M482.034 40.2251C473.668 40.2251 467.605 34.7991 466.605 26.4328 466.393 24.7049 466.726 23.0074 467.514 21.4918 467.302 20.5218 467.181 19.4911 467.181 18.3999 467.181 10.367 473.516 4.51661 482.246 4.51661 490.188 4.51661 496.099 9.57885 497.312 17.3995 497.524 18.8849 497.372 20.3702 496.827 21.7343 497.342 23.068 497.645 24.5837 497.645 26.3418 497.615 34.5263 491.219 40.2251 482.034 40.2251Z" fill="#FFFFFF" fill-rule="nonzero" fill-opacity="1" transform="matrix(1.00336 0 0 1 107.732 437)"/><path d="M505.981 18.4302 502.586 18.4302C502.132 16.8842 500.889 15.9748 498.585 15.9748 494.099 15.9748 493.462 19.4608 493.462 22.3708 493.462 25.2809 494.099 28.7365 498.615 28.7365 500.707 28.7365 501.647 28.2212 502.617 27.6453L502.617 24.3109 498.373 24.3109 498.373 21.2796 505.981 21.2796 505.981 30.1612C503.344 31.2222 500.919 31.7981 498.555 31.7981 492.613 31.7981 490.097 27.4937 490.097 22.4012 490.097 17.3086 492.644 12.9739 498.555 12.9739 502.344 12.9436 505.223 14.9139 505.981 18.4302" fill="#FBC311" fill-rule="nonzero" fill-opacity="1" transform="matrix(1.00336 0 0 1 107.732 437)"/><path d="M498.524 40.1948C488.582 40.1948 481.61 32.8591 481.61 22.3708 481.61 11.8523 488.551 4.51661 498.494 4.51661 506.497 4.51661 512.65 9.30603 514.226 16.672 514.469 17.7633 514.469 18.8849 514.287 19.9458 514.348 20.3702 514.378 20.7946 514.378 21.2493L514.378 30.1309C514.378 33.5563 512.286 36.6482 509.134 37.9516 505.375 39.4673 501.919 40.1948 498.524 40.1948Z" fill="#FFFFFF" fill-rule="nonzero" fill-opacity="1" transform="matrix(1.00336 0 0 1 107.732 437)"/><path d="M361.51 19.3093 386.731 19.3093 386.731 35.1932 361.51 35.1932Z" fill="#FFFFFF" fill-rule="nonzero" fill-opacity="1" transform="matrix(1.00336 0 0 1 107.732 437)"/><path d="M529.534 36.9513 560.302 36.9513 560.302 52.9868 529.534 52.9868Z" fill="#FFFFFF" fill-rule="nonzero" fill-opacity="1" transform="matrix(1.00336 0 0 1 107.732 437)"/><path d="M350.083 60.2618C348.991 60.2618 348.112 60.1709 347.476 59.989 346.839 59.8072 346.324 59.5343 345.99 59.1706 345.657 58.8068 345.414 58.4128 345.323 57.9581 345.202 57.5034 345.172 56.9881 345.172 56.4121 345.172 55.9574 345.233 55.5027 345.323 55.048 345.445 54.5934 345.657 54.1993 346.021 53.8355 346.354 53.4718 346.869 53.199 347.506 52.9565 348.143 52.7443 349.022 52.623 350.113 52.623L579.187 52.5624C580.278 52.5624 581.157 52.6836 581.794 52.8958 582.461 53.1383 582.945 53.4112 583.279 53.7749 583.612 54.1387 583.855 54.5327 583.976 54.9874 584.097 55.4421 584.128 55.8968 584.128 56.3515 584.128 56.9274 584.067 57.4428 583.976 57.8975 583.855 58.3521 583.643 58.7462 583.279 59.11 582.915 59.4737 582.43 59.7465 581.794 59.9284 581.157 60.1103 580.278 60.2012 579.187 60.2012L350.083 60.2618Z" fill="#003F5C" fill-rule="nonzero" fill-opacity="1" transform="matrix(1.00336 0 0 1 107.732 437)"/><path d="M584.704 50.198C584.492 49.8039 584.34 49.3492 584.219 48.8339 584.128 48.3186 584.097 47.773 584.158 47.2577 584.219 46.7423 584.401 46.227 584.643 45.7723 584.885 45.2873 585.28 44.9236 585.765 44.6508 586.644 44.1658 587.553 44.0142 588.493 44.2264 589.432 44.4386 590.251 45.0751 591.009 46.1664 591.797 47.3183 592.464 48.1974 593.04 48.8642 593.616 49.5008 594.161 49.9858 594.707 50.2889 595.253 50.5921 595.798 50.8043 596.374 50.8649 596.95 50.9255 597.647 50.9861 598.466 50.9861L599.102 50.9861C600.406 50.9861 601.376 51.4105 602.012 52.2896 602.649 53.1687 602.952 54.2902 602.952 55.624 602.952 56.9881 602.649 58.0793 602.012 58.9281 601.376 59.7768 600.406 60.2012 599.102 60.2012L598.526 60.2012C597.617 60.2012 596.859 60.2922 596.223 60.474 595.586 60.6559 594.98 60.9894 594.434 61.4744 593.888 61.9594 593.312 62.5959 592.767 63.4144 592.191 64.2328 591.524 65.2938 590.797 66.5669 590.19 67.6885 589.463 68.3251 588.584 68.5372 587.705 68.7191 586.886 68.6585 586.098 68.2947 585.492 68.0219 585.037 67.5975 584.734 67.0216 584.431 66.4457 584.279 65.8697 584.279 65.2635 584.31 64.2328 584.552 63.3234 585.037 62.5353 585.704 61.2015 586.462 59.989 587.25 58.8372 588.038 57.7156 588.826 56.8365 589.614 56.1999 589.16 55.8665 588.675 55.4421 588.19 54.9571 587.705 54.4721 587.25 53.9568 586.826 53.3808 586.401 52.8352 586.007 52.2593 585.643 51.7136 585.249 51.168 584.946 50.6527 584.704 50.198Z" fill="#003F5C" fill-rule="nonzero" fill-opacity="1" transform="matrix(1.00336 0 0 1 107.732 437)"/><path d="M396.795 60.2618 348.112 60.2618 348.112 52.7443 396.795 52.7443 396.795 60.2618ZM363.723 42.8017C354.811 42.8017 349.294 35.4963 349.294 27.13L349.294 25.8568C349.294 17.4905 354.811 10.1245 363.723 10.1245L381.305 10.1245C390.217 10.1245 395.734 17.4905 395.734 25.8568L395.734 27.1906C395.734 35.5569 390.186 42.8017 381.305 42.8017L363.723 42.8017ZM378.152 35.2235C383.669 35.2235 386.731 31.5556 386.731 27.13L386.731 25.9478C386.731 21.5524 383.699 17.7027 378.152 17.7027L366.876 17.7027C361.359 17.7027 358.297 21.4918 358.297 25.9174L358.297 27.13C358.297 31.5556 361.329 35.2235 366.876 35.2235L378.152 35.2235Z" fill="#003F5C" fill-rule="nonzero" fill-opacity="1" transform="matrix(1.00336 0 0 1 107.732 437)"/><path d="M454.692 60.2618 403.312 60.2618 403.312 52.5927 454.692 52.5927 454.692 60.2618ZM444.871 27.9484 444.871 31.9497C444.871 32.6469 444.81 33.3138 444.749 34.011 449.357 37.0726 452.873 41.4982 453.631 48.3186L445.447 50.0768C445.265 47.3183 443.931 44.3173 441.748 42.4076 439.172 46.1664 434.989 49.228 428.562 50.1374L428.562 48.4399 420.984 50.0768C420.924 47.3789 420.105 44.4386 417.953 42.5895 415.194 46.3483 410.769 49.4099 404.464 50.3193L404.464 41.9529C408.253 41.4679 413.042 38.3457 413.042 32.0709L413.042 27.9484 421.56 27.9484 421.56 31.7678C421.56 32.5863 421.5 33.4653 421.378 34.3444 424.985 36.7694 427.441 40.0735 428.562 44.6508L428.562 41.9529C432.352 41.5892 436.322 38.3457 436.322 32.1619L436.322 27.9181 444.871 27.9181ZM452.934 63.6266 452.934 74.6907C452.934 78.1767 452.752 81.2383 452.176 83.8755L442.84 83.8755C443.355 81.4505 443.537 78.5102 443.537 75.9942L443.537 71.5685 405.07 71.5685 405.07 63.6266 452.934 63.6266Z" fill="#003F5C" fill-rule="nonzero" fill-opacity="1" transform="matrix(1.00336 0 0 1 107.732 437)"/><path d="M490.37 35.7085 490.37 52.8655 497.767 52.8655 497.767 35.1932 505.921 35.1932 505.921 83.724 497.767 83.724 497.767 59.8072 490.37 59.8072 490.37 74.6301C490.37 77.0855 488.764 79.0861 486.278 79.0861L466.878 79.0861C464.392 79.0861 462.786 77.0855 462.786 74.5998L462.786 35.7085 470.94 35.7085 470.94 50.2283 482.246 50.2283 482.246 35.7085 490.37 35.7085ZM482.186 57.1699 470.879 57.1699 470.879 72.1445 482.186 72.1445 482.186 57.1699Z" fill="#003F5C" fill-rule="nonzero" fill-opacity="1" transform="matrix(1.00336 0 0 1 107.732 437)"/><path d="M560.302 60.2618 513.226 60.2618 513.226 52.9868 560.302 52.9868 560.302 60.2618ZM541.053 11.7007 541.053 23.0377C541.053 23.4621 540.993 23.8865 540.932 24.3412 549.268 25.7356 556.998 32.0709 559.726 40.5888L550.996 42.4682C549.723 37.891 544.691 32.7075 538.052 31.8284 533.869 37.6485 525.533 42.0742 514.348 42.4682L514.348 34.9203C526.352 34.1625 532.323 27.5847 532.323 23.0984L532.323 11.7007 541.053 11.7007Z" fill="#003F5C" fill-rule="nonzero" fill-opacity="1" transform="matrix(1.00336 0 0 1 107.732 437)"/><path d="M474.577 13.2467 474.577 16.1567 465.059 16.1567 465.059 20.643 474.092 20.643 474.092 23.4924 465.059 23.4924 465.059 28.6456 474.82 28.6456 474.82 31.5556 463.362 31.5556C462.331 31.5556 461.664 30.8281 461.664 29.6762L461.664 13.2467 474.577 13.2467Z" fill="#B8D200" fill-rule="nonzero" fill-opacity="1" transform="matrix(1.00336 0 0 1 107.732 437)"/><path d="M488.946 18.703 485.641 18.703C485.308 16.7024 484.005 15.793 482.216 15.793 479.943 15.793 479.094 16.9145 479.094 18.2786 479.094 19.5518 480.276 20.2793 482.004 20.734 485.763 21.7343 489.158 22.9771 489.158 26.3418 489.158 29.8884 486.248 31.7981 482.004 31.7981 478.245 31.7981 475.487 29.8884 474.941 25.4324L478.397 25.4324C478.669 27.524 479.7 28.7668 482.034 28.7668 483.914 28.7668 485.763 28.4334 485.763 26.5237 485.763 25.4628 484.459 24.7049 482.671 24.1896 479.791 23.4318 475.578 22.2496 475.578 18.4605 475.578 14.732 478.548 13.0042 482.216 13.0042 485.308 12.9739 488.279 14.338 488.946 18.703" fill="#8FD3F5" fill-rule="nonzero" fill-opacity="1" transform="matrix(1.00336 0 0 1 107.732 437)"/><path d="M505.981 18.4302 502.586 18.4302C502.132 16.8842 500.889 15.9748 498.585 15.9748 494.099 15.9748 493.462 19.4608 493.462 22.3708 493.462 25.2809 494.099 28.7365 498.615 28.7365 500.707 28.7365 501.647 28.2212 502.617 27.6453L502.617 24.3109 498.373 24.3109 498.373 21.2796 505.981 21.2796 505.981 30.1612C503.344 31.2222 500.919 31.7981 498.555 31.7981 492.613 31.7981 490.097 27.4937 490.097 22.4012 490.097 17.3086 492.644 12.9739 498.555 12.9739 502.344 12.9436 505.223 14.9139 505.981 18.4302" fill="#FBC311" fill-rule="nonzero" fill-opacity="1" transform="matrix(1.00336 0 0 1 107.732 437)"/><path d="M703.651 72.781C701.499 72.781 699.438 71.902 697.922 70.3863 696.406 68.8707 695.588 66.7791 695.618 64.6269L695.648 62.7778 695.8 41.5285 695.679 31.5556 695.648 24.614 695.618 23.553C695.558 21.4008 696.376 19.2789 697.892 17.733 699.407 16.187 701.469 15.308 703.651 15.308L717.504 15.308C723.658 15.308 728.295 15.5808 731.69 16.1567 735.661 16.8236 739.147 18.0664 742.027 19.8852 745.968 22.3708 749.029 25.8265 751.151 30.1612 752.788 33.5563 753.637 37.1635 753.637 40.8617 753.637 44.8326 752.697 48.6824 750.878 52.2593 748.666 56.594 745.483 60.0193 741.391 62.3837 738.026 64.3238 734.267 65.4757 730.144 65.7788 729.629 69.7194 726.264 72.781 722.172 72.781L703.651 72.781ZM730.054 47.6517C730.539 47.5305 731.024 47.3789 731.478 47.1667 732.418 46.7423 733.206 46.1664 733.812 45.4389 734.964 44.0748 735.48 42.6804 735.48 40.8617 735.48 39.1945 734.964 37.8304 733.752 36.4057 732.994 35.4963 732.024 34.8597 730.72 34.405 730.539 34.3444 730.326 34.2838 730.084 34.1928L730.054 47.6517Z" fill="#003F5C" fill-rule="nonzero" fill-opacity="1" transform="matrix(1.00336 0 0 1 107.732 437)"/><path d="M749.454 72.781C747.302 72.781 745.21 71.902 743.725 70.3863 742.209 68.8404 741.391 66.7488 741.421 64.5966L741.451 63.0203 741.481 53.0171 741.603 42.1045 741.36 23.4621C741.33 21.3099 742.179 19.2486 743.664 17.7027 745.18 16.1567 747.241 15.308 749.393 15.308L781.525 15.308C783.98 15.308 785.041 15.3686 786.253 15.7323 790.012 16.672 792.74 20.2186 792.74 24.4624 792.74 26.1903 792.286 27.7362 791.528 29.1003 793.256 30.7675 794.226 33.0713 794.226 35.6175 794.226 40.2251 790.77 44.8629 784.192 44.8629L781.555 44.772 775.856 44.7417 775.947 54.654 785.465 54.563C792.013 54.563 795.378 59.1403 795.378 63.6872 795.378 68.2947 792.043 72.0838 787.466 72.6901 787.254 72.7204 786.102 72.781 784.01 72.8114 783.98 72.8114 783.95 72.8114 783.889 72.8114L749.454 72.8114Z" fill="#003F5C" fill-rule="nonzero" fill-opacity="1" transform="matrix(1.00336 0 0 1 107.732 437)"/><path d="M798.136 72.781C795.984 72.781 793.923 71.9323 792.437 70.3863 790.922 68.8707 790.073 66.8094 790.103 64.6572L790.285 40.4979 790.224 33.5866C790.224 33.5866 787.86 33.6472 787.86 33.6472 782.161 33.6472 778.099 29.7369 778.099 24.5231 778.099 19.9458 781.161 16.278 785.556 15.5202 786.314 15.3686 787.133 15.3383 788.284 15.308L825.69 15.308C828.115 15.3383 829.57 15.4898 831.086 16.0961 834.451 17.4299 836.664 20.7643 836.664 24.5534 836.664 28.9487 833.299 33.6472 827.055 33.6472L824.751 33.5563 824.63 43.9536 824.72 64.6875C824.72 66.8397 823.872 68.8707 822.386 70.3863 820.871 71.902 818.84 72.7507 816.688 72.7507L798.136 72.7507Z" fill="#003F5C" fill-rule="nonzero" fill-opacity="1" transform="matrix(1.00336 0 0 1 107.732 437)"/><path d="M829.207 73.357C823.872 73.357 819.84 69.5073 819.84 64.3844 819.84 63.0506 820.083 62.1109 821.053 58.9584L822.902 52.5927 832.602 19.6124C833.481 16.6417 835.997 14.4289 839.058 13.9439 839.483 13.8833 839.907 13.853 840.332 13.853 842.938 13.853 845.424 15.1261 846.94 17.3389L856.761 31.5859 866.067 17.4905C867.583 15.217 870.099 13.8833 872.766 13.8833 873.16 13.8833 873.554 13.9136 873.979 13.9742 877.071 14.4289 879.617 16.672 880.496 19.673L887.104 42.256 890.075 52.1986 892.773 61.2925 893.106 62.3231C893.864 64.7785 893.44 67.4157 891.924 69.5073 890.408 71.5685 888.014 72.781 885.437 72.781L867.007 72.781C863.369 72.781 860.186 70.356 859.247 66.8397L858.095 62.5353 855.397 66.5972C853.942 68.8101 851.487 70.1438 848.849 70.1741 848.789 70.1741 848.758 70.1741 848.698 70.1741 846.121 70.1741 843.666 68.9313 842.15 66.8094L839.422 63.0203C838.725 66.1425 838.301 67.2944 837.816 68.2644 836.148 71.4776 832.966 73.357 829.207 73.357Z" fill="#003F5C" fill-rule="nonzero" fill-opacity="1" transform="matrix(1.00336 0 0 1 107.732 437)"/><path d="M908.172 74.0239C903.018 74.0239 898.108 72.7204 893.53 70.1135 887.498 66.7488 883.133 61.8684 880.526 55.6846 878.95 51.9561 878.132 48.0155 878.132 43.9839 878.132 38.9216 879.405 34.0716 881.89 29.5247 884.982 23.8865 889.529 19.6427 895.44 16.8539 899.381 15.0048 903.655 14.0651 908.111 14.0348 912.506 14.0348 916.72 14.9745 920.751 16.7933 926.723 19.5214 931.331 23.7955 934.453 29.464 936.969 33.9807 938.212 38.952 938.212 44.2567 938.212 48.5914 937.242 52.8352 935.332 56.8365 932.482 62.8384 928.026 67.4763 922.025 70.5682 917.69 72.872 913.022 74.0239 908.172 74.0239ZM913.658 43.9536 913.749 54.7146C914.204 54.4721 914.659 54.1993 915.113 53.8659 917.023 52.5018 918.387 50.8346 919.236 48.7127 919.872 47.1667 920.175 45.6208 920.175 43.9839 920.175 41.8317 919.69 39.922 918.66 38.1032 917.447 35.9207 915.871 34.4353 913.749 33.3744L913.658 43.9536Z" fill="#003F5C" fill-rule="nonzero" fill-opacity="1" transform="matrix(1.00336 0 0 1 107.732 437)"/><path d="M972.889 74.4786C971.404 74.4786 969.919 74.0542 968.615 73.2357 964.584 70.7198 958.521 67.1429 950.609 62.5959 948.063 61.1409 945.669 59.7768 943.425 58.5037L943.516 63.8691C943.516 69.3254 939.545 73.3267 934.271 73.3267 928.966 73.3267 924.995 69.1738 924.995 63.6872L925.026 61.4441 925.177 42.5289 924.935 21.7343C924.904 18.7939 926.481 16.0658 929.027 14.6411 930.27 13.9439 931.603 13.6104 932.967 13.6104 934.453 13.6104 935.908 14.0045 937.211 14.823 943.183 18.5211 951.731 23.5227 962.674 29.7369L962.613 24.5231C962.613 18.1271 967.342 14.732 971.768 14.732 974.89 14.732 977.648 16.1567 979.346 18.6121 980.468 20.2793 981.013 22.2193 981.013 24.5837 981.013 24.5837 981.013 25.2809 981.013 25.4021 981.013 25.7356 980.983 26.3115 980.983 27.0996L980.862 37.406 980.771 46.7423 980.862 56.4727 980.983 66.3244C981.013 69.2648 979.437 71.9929 976.86 73.4176 975.618 74.1451 974.253 74.4786 972.889 74.4786Z" fill="#003F5C" fill-rule="nonzero" fill-opacity="1" transform="matrix(1.00336 0 0 1 107.732 437)"/><path d="M703.651 71.0835C701.954 71.0835 700.317 70.3863 699.134 69.1738 697.952 67.9613 697.285 66.3244 697.316 64.6269L697.346 62.7778 697.498 41.5285 697.376 31.5253 697.346 24.5837 697.316 23.4924C697.285 21.7949 697.922 20.1277 699.104 18.9152 700.286 17.7027 701.954 17.0055 703.651 17.0055L717.504 17.0055C723.567 17.0055 728.114 17.2783 731.418 17.8239 735.146 18.4302 738.42 19.6124 741.118 21.3402 744.786 23.644 747.635 26.8875 749.605 30.9191 751.151 34.0716 751.909 37.4363 751.909 40.892 751.909 44.5901 751.03 48.167 749.332 51.5318 747.271 55.5937 744.301 58.7462 740.511 60.959 736.965 63.0203 732.933 64.0813 728.477 64.2025L728.477 64.7785C728.477 68.2947 725.628 71.1441 722.112 71.1441L703.651 71.1441ZM728.356 47.7427 728.356 49.5311C729.72 49.5311 730.963 49.2583 732.175 48.7127 733.358 48.1974 734.328 47.4698 735.116 46.5302 736.54 44.8629 737.207 43.0745 737.207 40.8617 737.207 38.8004 736.54 37.0422 735.085 35.3144 734.146 34.1625 732.903 33.3441 731.296 32.7985 730.478 32.5256 729.508 32.2831 728.417 32.1316L728.356 47.7427Z" fill="#FFFFFF" fill-rule="nonzero" fill-opacity="1" transform="matrix(1.00336 0 0 1 107.732 437)"/><path d="M749.454 71.0835C747.756 71.0835 746.119 70.3863 744.907 69.1738 743.725 67.9613 743.058 66.3244 743.088 64.5966L743.118 63.0203 743.149 52.9868 743.27 42.0742 743.027 23.4015C742.997 21.704 743.664 20.0671 744.846 18.8546 746.028 17.6421 747.665 16.9752 749.363 16.9752L781.494 16.9752C783.919 16.9752 784.798 17.0358 785.738 17.3389 788.8 18.0967 790.982 21.0068 790.982 24.4321 790.982 26.3721 790.285 28.0697 789.103 29.3731 791.225 30.7069 792.468 32.9803 792.468 35.5872 792.468 39.346 789.588 43.1351 784.101 43.1351L781.525 43.0745 774.068 43.0139 774.189 56.3212 785.374 56.1999C790.8 56.1999 793.589 59.9284 793.589 63.6266 793.589 67.446 790.952 70.447 787.163 70.932 786.951 70.9623 785.89 71.0229 783.889 71.0532 783.859 71.0532 783.828 71.0532 783.798 71.0532L749.454 71.0532Z" fill="#FFFFFF" fill-rule="nonzero" fill-opacity="1" transform="matrix(1.00336 0 0 1 107.732 437)"/><path d="M798.136 71.0835C796.439 71.0835 794.832 70.4166 793.62 69.2041 792.437 67.9916 791.77 66.385 791.77 64.6875L791.952 40.5282 791.861 31.8891C791.861 31.8891 787.769 31.98 787.769 31.98 783.101 31.98 779.736 28.7972 779.736 24.5534 779.736 20.8552 782.192 17.8542 785.768 17.2177 786.375 17.0964 787.011 17.0661 788.284 17.0055L825.66 17.0055C827.843 17.0358 829.146 17.157 830.389 17.6724 833.147 18.7939 834.906 21.4312 834.906 24.5837 834.906 28.2515 832.177 31.98 826.994 31.98L824.144 31.8891 823.023 31.8588 822.962 35.0113 822.871 43.9839 822.962 64.7481C822.962 66.4457 822.295 68.0522 821.113 69.2648 819.931 70.447 818.294 71.1441 816.627 71.1441L798.136 71.1441Z" fill="#FFFFFF" fill-rule="nonzero" fill-opacity="1" transform="matrix(1.00336 0 0 1 107.732 437)"/><path d="M829.207 71.6595C824.205 71.6595 821.507 67.9007 821.507 64.3844 821.507 63.3538 821.689 62.6263 822.629 59.4737L824.478 53.108 834.178 20.1277C834.875 17.7936 836.846 16.0355 839.271 15.6414 839.604 15.5808 839.937 15.5505 840.271 15.5505 842.332 15.5505 844.302 16.5508 845.485 18.3089L856.731 34.6172 867.431 18.4302C868.613 16.6417 870.614 15.5808 872.736 15.5808 873.039 15.5808 873.372 15.6111 873.676 15.6414 876.131 16.0052 878.132 17.7633 878.829 20.1277L885.437 42.7107 888.438 52.6836 891.136 61.7775 891.469 62.8384C892.076 64.7785 891.712 66.87 890.53 68.5069 889.347 70.1438 887.438 71.1138 885.407 71.1138L866.977 71.1138C864.097 71.1138 861.581 69.2041 860.853 66.4154L858.701 58.5037 853.942 65.6575C852.79 67.3854 850.85 68.4463 848.758 68.4766 848.728 68.4766 848.698 68.4766 848.637 68.4766 846.606 68.4766 844.666 67.4763 843.484 65.8394L838.573 58.9887C838.361 59.8678 838.149 60.8075 837.937 61.7169 837.149 65.3544 836.724 66.5669 836.27 67.4763 834.936 70.1135 832.299 71.6595 829.207 71.6595Z" fill="#FFFFFF" fill-rule="nonzero" fill-opacity="1" transform="matrix(1.00336 0 0 1 107.732 437)"/><path d="M908.172 72.3263C903.322 72.3263 898.684 71.0835 894.379 68.6585 888.68 65.4757 884.558 60.8681 882.103 55.048 880.617 51.5318 879.859 47.8033 879.859 44.0142 879.859 39.2551 881.042 34.6778 883.406 30.3734 886.316 25.0687 890.62 21.0371 896.198 18.4302 899.927 16.7024 903.958 15.793 908.172 15.7627 912.294 15.7627 916.295 16.6417 920.084 18.3696 925.692 20.9461 930.057 24.9777 933.028 30.3128 935.392 34.5869 936.575 39.2854 936.575 44.2567 936.575 48.3489 935.665 52.3199 933.877 56.1393 931.209 61.8078 926.965 66.1729 921.327 69.1132 917.144 71.2351 912.749 72.3263 908.172 72.3263ZM911.961 43.9233 912.082 57.2003C913.507 56.7759 914.84 56.1393 916.083 55.2602 918.296 53.7143 919.842 51.7743 920.812 49.3492 921.54 47.5911 921.873 45.8633 921.873 43.9839 921.873 41.5589 921.297 39.346 920.145 37.2544 918.72 34.7082 916.78 32.8894 914.204 31.7072 913.507 31.3738 912.779 31.1009 912.082 30.8887L911.961 43.9233Z" fill="#FFFFFF" fill-rule="nonzero" fill-opacity="1" transform="matrix(1.00336 0 0 1 107.732 437)"/><path d="M972.889 72.781C971.707 72.781 970.555 72.4476 969.525 71.811 965.493 69.2648 959.4 65.6878 951.458 61.1409 947.912 59.11 944.638 57.2609 941.698 55.5937L941.849 63.9297C941.849 68.3857 938.606 71.6898 934.271 71.6898 929.876 71.6898 926.662 68.3554 926.662 63.7175L926.693 61.5047 926.844 42.5592 926.602 21.7343C926.571 19.4305 927.814 17.2783 929.845 16.1264 930.815 15.5808 931.876 15.308 932.967 15.308 934.119 15.308 935.302 15.6414 936.302 16.278 942.758 20.2793 952.155 25.7659 964.372 32.6469L964.311 24.5231C964.311 19.188 968.07 16.4599 971.768 16.4599 974.314 16.4599 976.588 17.6117 977.952 19.6124 979.164 21.4312 979.316 23.3409 979.316 24.6443 979.316 24.6443 979.316 25.2809 979.316 25.3718 979.285 25.7356 979.285 26.3418 979.285 27.1603L979.164 37.4666 979.073 46.803 979.164 56.5334 979.285 66.385C979.316 68.7191 978.073 70.8713 976.042 71.9929 975.042 72.5082 973.981 72.781 972.889 72.781Z" fill="#FFFFFF" fill-rule="nonzero" fill-opacity="1" transform="matrix(1.00336 0 0 1 107.732 437)"/><path d="M722.112 57.3215 722.112 58.1703 722.142 63.9903 722.142 64.7481 703.651 64.7481 703.681 62.8991 703.833 41.5892 703.712 31.4647 703.681 24.5837 703.651 23.3712 717.504 23.3712C723.173 23.3712 727.447 23.6137 730.387 24.0987 733.297 24.5837 735.752 25.4628 737.753 26.7056 740.421 28.3728 742.482 30.7069 743.937 33.7078 745.058 35.9813 745.604 38.376 745.604 40.892 745.604 43.5898 744.967 46.1967 743.725 48.652 742.239 51.5924 740.117 53.8659 737.359 55.4724 734.631 57.0487 731.448 57.8671 727.841 57.8671 726.507 57.8368 724.597 57.655 722.112 57.3215ZM722.142 25.4021 722.142 27.4331 722.021 47.682 722.081 55.2299C723.688 55.6543 725.749 55.8665 728.295 55.8665 730.569 55.8665 732.751 55.4118 734.782 54.5024 736.813 53.593 738.541 52.3199 739.966 50.6527 742.361 47.8336 743.573 44.5901 743.573 40.8617 743.573 37.3151 742.391 34.1322 739.996 31.2525 738.299 29.2215 736.116 27.7362 733.418 26.7965 730.72 25.8568 727.265 25.4021 723.051 25.4021L722.142 25.4021Z" fill="#003F5C" fill-rule="nonzero" fill-opacity="1" transform="matrix(1.00336 0 0 1 107.732 437)"/><path d="M767.823 36.6482C767.793 37.5879 767.763 38.7094 767.763 40.0432L767.763 41.862 767.975 62.7778 778.251 62.6869 785.526 62.5959C786.708 62.5959 787.314 62.9597 787.314 63.6872 787.314 64.2934 787.011 64.6269 786.405 64.7178 786.253 64.7481 785.435 64.7481 783.889 64.7785L749.454 64.7785 749.484 63.2022 749.514 53.0777 749.636 42.2257 749.393 23.4015 781.525 23.4015C782.949 23.4015 783.768 23.4318 783.98 23.4924 784.435 23.6137 784.677 23.9471 784.677 24.5231 784.677 25.2203 784.222 25.584 783.344 25.584L783.131 25.584 767.945 25.4021 767.823 34.7991 771.127 34.8294 781.737 34.6475 784.071 34.6172C784.92 34.6172 785.496 34.6778 785.768 34.8294 786.041 34.981 786.193 35.2538 786.193 35.6782 786.193 36.4663 785.526 36.8907 784.192 36.8907L781.797 36.8301 767.823 36.6482Z" fill="#003F5C" fill-rule="nonzero" fill-opacity="1" transform="matrix(1.00336 0 0 1 107.732 437)"/><path d="M816.779 25.3718 816.627 34.8597 816.536 43.8626 816.627 64.7178 798.136 64.7178 798.318 40.5585 798.227 32.3438 798.136 25.3718 794.135 25.4628 788.406 25.584 787.557 25.6143C786.587 25.6143 786.102 25.2506 786.102 24.5231 786.102 23.8865 786.375 23.5227 786.951 23.4318 787.102 23.4015 787.617 23.3712 788.436 23.3409L825.63 23.3409C826.933 23.3712 827.691 23.4318 827.934 23.5227 828.328 23.6743 828.54 24.0381 828.54 24.5534 828.54 25.2506 828.025 25.584 826.994 25.584L824.357 25.4931 817.385 25.3718 816.779 25.3718Z" fill="#003F5C" fill-rule="nonzero" fill-opacity="1" transform="matrix(1.00336 0 0 1 107.732 437)"/><path d="M872.766 21.9162 879.374 44.4992 882.375 54.5024 885.073 63.5659 885.437 64.7178 867.007 64.7178 861.217 43.2867 848.698 62.1109 835.845 44.2264C834.602 48.5914 833.238 53.9568 831.783 60.2922 831.268 62.7172 830.874 64.1722 830.631 64.6269 830.389 65.0816 829.934 65.3241 829.237 65.3241 828.358 65.3241 827.903 65.021 827.903 64.4147 827.903 64.2328 828.176 63.2022 828.752 61.3531L830.631 54.8965 833.905 43.7414 840.301 21.9465 856.913 46.0148 872.766 21.9162Z" fill="#003F5C" fill-rule="nonzero" fill-opacity="1" transform="matrix(1.00336 0 0 1 107.732 437)"/><path d="M908.172 22.098C911.354 22.098 914.446 22.7649 917.417 24.129 921.782 26.1296 925.116 29.2215 927.42 33.3744 929.269 36.7088 930.179 40.3463 930.179 44.2567 930.179 47.4092 929.482 50.4708 928.087 53.4112 925.996 57.8065 922.752 61.1712 918.357 63.4447 915.113 65.1119 911.718 65.9607 908.172 65.9607 904.413 65.9607 900.866 65.021 897.501 63.1113 893.045 60.5953 889.863 57.079 887.953 52.5624 886.771 49.8039 886.195 46.9242 886.195 43.9839 886.195 40.2857 887.104 36.7694 888.953 33.4047 891.227 29.2822 894.531 26.1903 898.866 24.1593 901.776 22.8255 904.867 22.1283 908.172 22.098ZM905.777 24.129 905.595 43.8626 905.747 60.2618 905.777 63.96C906.474 64.0813 907.111 64.1419 907.747 64.1419 912.203 64.1419 916.204 62.8991 919.721 60.4437 922.934 58.1703 925.268 55.2602 926.693 51.7136 927.693 49.228 928.208 46.6514 928.208 43.9839 928.208 40.4676 927.36 37.1938 925.662 34.1625 923.57 30.4341 920.66 27.7059 916.871 25.9478 914.052 24.614 911.051 23.9471 907.929 23.9471 907.202 23.9471 906.504 24.0077 905.777 24.129Z" fill="#003F5C" fill-rule="nonzero" fill-opacity="1" transform="matrix(1.00336 0 0 1 107.732 437)"/><path d="M970.768 43.4989 970.768 38.4366 970.707 30.4037 970.677 26.7359 970.646 24.4321C970.646 23.3409 971.01 22.7952 971.768 22.7952 972.223 22.7952 972.526 22.9165 972.708 23.1893 972.889 23.4318 972.95 23.9168 972.95 24.6443L972.95 25.0687C972.92 25.4931 972.92 26.1903 972.92 27.1603L972.799 37.3757 972.708 46.7423 972.799 56.594 972.889 66.476C968.737 63.8691 962.644 60.2618 954.611 55.6543 946.578 51.0468 940.091 47.4395 935.12 44.8023L935.15 46.2877 935.453 61.9291 935.483 64.0206C935.483 64.8997 935.089 65.3241 934.271 65.3241 933.452 65.3241 933.028 64.7785 933.028 63.7175L933.058 61.5956 933.089 58.1703 933.21 42.6198 932.967 21.6737C941.152 26.7359 953.762 34.011 970.768 43.4989Z" fill="#003F5C" fill-rule="nonzero" fill-opacity="1" transform="matrix(1.00336 0 0 1 107.732 437)"/><path d="M909.172 60.3225C919.114 58.8068 926.602 52.1683 926.602 44.1658 926.602 35.6782 918.145 28.7062 907.262 27.7968 910.839 38.3457 910.96 49.4402 909.172 60.3225Z" fill="#FFFFFF" fill-rule="nonzero" fill-opacity="1" transform="matrix(1.00336 0 0 1 107.732 437)"/><path d="M725.446 53.8962C733.873 52.6533 740.239 47.2577 740.239 40.7404 740.239 33.8291 733.055 28.1606 723.839 27.4028 726.871 36.0116 726.962 45.0448 725.446 53.8962Z" fill="#FFFFFF" fill-rule="nonzero" fill-opacity="1" transform="matrix(1.00336 0 0 1 107.732 437)"/><path d="M769.975 38.3457 795.984 38.3457 795.984 60.2922 769.975 60.2922Z" fill="#FFFFFF" fill-rule="nonzero" fill-opacity="1" transform="matrix(1.00336 0 0 1 107.732 437)"/><path d="M787.314 29.4337 793.923 29.4337 793.923 36.0419 787.314 36.0419Z" fill="#FFFFFF" fill-rule="nonzero" fill-opacity="1" transform="matrix(6.14379e-17 -1 1.00336 6.12323e-17 868.149 1260.38)"/><path d="M832.511 29.4337 832.511 39.5582 830.965 39.5582 830.965 49.3189 826.751 49.3189 826.751 59.4737 821.295 59.4737 821.295 29.4337Z" fill="#FFFFFF" fill-rule="nonzero" fill-opacity="1" transform="matrix(1.00336 0 0 1 107.732 437)"/></g></g></g></g></g></svg>