<svg width="1198" height="180" xmlns="http://www.w3.org/2000/svg" xmlns:xlink="http://www.w3.org/1999/xlink" xml:space="preserve" overflow="hidden"><defs><clipPath id="clip0"><rect x="60" y="465" width="1198" height="180"/></clipPath><clipPath id="clip1"><rect x="60" y="465" width="1198" height="180"/></clipPath><clipPath id="clip2"><rect x="61" y="466" width="1197" height="179"/></clipPath><clipPath id="clip3"><rect x="61" y="466" width="1198" height="179"/></clipPath><clipPath id="clip4"><rect x="61" y="466" width="1198" height="179"/></clipPath></defs><g clip-path="url(#clip0)" transform="translate(-60 -465)"><g clip-path="url(#clip1)"><g clip-path="url(#clip2)"><g clip-path="url(#clip3)"><g clip-path="url(#clip4)"><path d="M83.3809 113.025 72.6537 113.025C71.9502 113.025 71.3975 112.799 70.9705 112.372 70.5685 111.945 70.3424 111.392 70.3424 110.689L70.3424 95.4145C70.3424 94.711 70.5685 94.1583 70.9956 93.7313 71.4227 93.3042 71.9754 93.0781 72.6788 93.0781L83.004 93.0781 83.004 95.4145 73.3822 95.4145C73.1059 95.4145 72.9802 95.5401 72.9802 95.8164L72.9802 101.419 82.376 101.419 82.376 103.755 72.9802 103.755 72.9802 110.262C72.9802 110.538 73.1059 110.664 73.3822 110.664L83.406 110.664 83.406 113.025Z" fill="#003F5C" fill-rule="nonzero" fill-opacity="1" transform="matrix(1 0 0 1.00255 61.7402 466)"/><path d="M126.013 110.689C126.013 111.392 125.812 111.945 125.36 112.372 124.933 112.799 124.38 113.025 123.677 113.025L113.553 113.025C112.874 113.025 112.297 112.799 111.87 112.372 111.442 111.945 111.216 111.392 111.216 110.689L111.216 106.368 113.854 106.368 113.854 110.287C113.854 110.563 113.98 110.689 114.256 110.689L122.974 110.689C123.25 110.689 123.376 110.563 123.376 110.287L123.376 104.057C123.376 103.78 123.25 103.655 122.974 103.655L113.553 103.655C112.874 103.655 112.297 103.428 111.87 103.001 111.442 102.574 111.216 102.022 111.216 101.318L111.216 95.4145C111.216 94.711 111.417 94.1583 111.87 93.7313 112.322 93.3042 112.849 93.0781 113.553 93.0781L123.577 93.0781C124.28 93.0781 124.833 93.2791 125.26 93.7313 125.687 94.1583 125.913 94.711 125.913 95.4145L125.913 99.1326 123.275 99.1326 123.275 95.8164C123.275 95.5401 123.149 95.4145 122.873 95.4145L114.281 95.4145C114.005 95.4145 113.879 95.5401 113.879 95.8164L113.879 100.916C113.879 101.193 114.005 101.318 114.281 101.318L123.702 101.318C124.406 101.318 124.958 101.519 125.385 101.971 125.812 102.424 126.039 102.951 126.039 103.655L126.039 110.689Z" fill="#003F5C" fill-rule="nonzero" fill-opacity="1" transform="matrix(1 0 0 1.00255 61.7402 466)"/><path d="M168.169 110.689C168.169 111.392 167.968 111.945 167.515 112.372 167.088 112.799 166.536 113.025 165.832 113.025L154.05 113.025C153.346 113.025 152.794 112.799 152.367 112.372 151.94 111.945 151.714 111.392 151.714 110.689L151.714 95.4145C151.714 94.711 151.94 94.1583 152.367 93.7313 152.794 93.3042 153.346 93.0781 154.05 93.0781L165.832 93.0781C166.536 93.0781 167.088 93.2791 167.515 93.7313 167.943 94.1583 168.169 94.711 168.169 95.4145L168.169 100.087 165.531 100.087 165.531 95.8164C165.531 95.5401 165.405 95.4145 165.129 95.4145L154.778 95.4145C154.502 95.4145 154.376 95.5401 154.376 95.8164L154.376 110.287C154.376 110.563 154.502 110.689 154.778 110.689L165.129 110.689C165.405 110.689 165.531 110.563 165.531 110.287L165.531 104.458 159.803 104.458 159.803 102.122 168.169 102.122 168.169 110.689Z" fill="#003F5C" fill-rule="nonzero" fill-opacity="1" transform="matrix(1 0 0 1.00255 61.7402 466)"/><path d="M74.8142 136.766C66.4736 136.766 59.7157 143.549 59.7157 151.889 59.7157 160.205 66.4987 166.988 74.8393 166.988 83.1799 166.988 89.9378 160.205 89.9378 151.864 89.9378 143.549 83.1548 136.766 74.8142 136.766ZM74.8393 162.491C68.9858 162.491 64.2377 157.743 64.2377 151.889 64.2377 146.036 68.9858 141.288 74.8393 141.288 80.6928 141.288 85.4409 146.036 85.4409 151.889 85.4409 157.718 80.6928 162.491 74.8393 162.491Z" fill="#003F5C" fill-rule="nonzero" fill-opacity="1" transform="matrix(1 0 0 1.00255 61.7402 466)"/><path d="M118.728 162.466C110.186 162.466 103.253 155.532 103.253 146.991L98.7306 146.991C98.7306 158.019 107.699 166.963 118.728 166.963 129.757 166.963 138.7 157.994 138.7 146.965L134.178 146.965C134.203 155.507 127.27 162.466 118.728 162.466Z" fill="#003F5C" fill-rule="nonzero" fill-opacity="1" transform="matrix(1 0 0 1.00255 61.7402 466)"/><path d="M165.104 136.715C156.763 136.715 150.005 143.499 150.005 151.839 150.005 160.18 156.788 166.963 165.129 166.938 173.469 166.938 180.227 160.155 180.227 151.814 180.227 143.499 173.419 136.715 165.104 136.715ZM165.104 162.441C159.25 162.441 154.502 157.693 154.502 151.839 154.502 145.986 159.25 141.238 165.104 141.238 170.957 141.238 175.705 145.986 175.705 151.839 175.705 157.693 170.957 162.441 165.104 162.441Z" fill="#003F5C" fill-rule="nonzero" fill-opacity="1" transform="matrix(1 0 0 1.00255 61.7402 466)"/><path d="M181.333 88.4556C179.348 86.4207 176.61 85.3907 173.243 85.3907L53.5607 85.4409 53.5858 120.662 184.523 120.612 184.498 96.6706C184.498 96.4947 184.573 91.7717 181.333 88.4556ZM137.972 89.9378 137.997 116.14 100.916 116.165 100.916 89.9629 137.972 89.9378ZM58.0576 89.9629 96.3942 89.9378 96.3942 116.14 58.0827 116.165 58.0576 89.9629ZM179.976 116.115 142.494 116.14 142.494 89.9378 173.243 89.9127C175.354 89.9127 176.987 90.4905 178.092 91.5959 180.001 93.5303 179.976 96.5701 179.976 96.6455L179.976 116.115Z" fill="#003F5C" fill-rule="nonzero" fill-opacity="1" transform="matrix(1 0 0 1.00255 61.7402 466)"/><path d="M235.396 94.8869 218.363 94.8869 218.363 98.7055 218.363 100.389 215.574 100.389C210.676 94.1332 205.701 89.159 200.752 85.5163 200.099 74.563 189.975 70.6941 184.548 70.1917L36.6534 70.2419 36.7037 154.125 51.3751 154.125 51.3751 149.603 41.2257 149.603 41.1754 74.7388 184.247 74.6634C185.478 74.7891 196.306 76.2964 196.306 86.5965L196.331 149.528 188.392 149.528 188.392 154.05 200.853 154.05 200.853 148.071C205.802 144.428 210.776 139.454 215.65 133.223L218.438 133.223 218.438 135.284 218.438 138.7 235.496 138.7C237.757 138.675 241.124 137.218 241.124 133.299L241.124 100.263C241.023 96.3691 237.682 94.912 235.396 94.8869ZM213.364 128.727 212.685 129.606C208.741 134.756 204.747 139.027 200.802 142.368L200.777 91.2693C204.747 94.5854 208.741 98.8562 212.685 104.006L213.364 104.886 218.388 104.886 218.413 128.701 213.364 128.727ZM236.551 133.324C236.551 133.55 236.551 134.153 235.421 134.203L222.91 134.203 222.91 128.727 222.91 104.911 222.91 99.434 235.396 99.434C236.577 99.4843 236.577 100.087 236.577 100.313L236.551 133.324Z" fill="#003F5C" fill-rule="nonzero" fill-opacity="1" transform="matrix(1 0 0 1.00255 61.7402 466)"/><path d="M10.3253 156.537 10.3253 156.537C9.49623 156.462 8.81792 155.909 8.39084 155.482 7.61205 155.834 6.88351 155.984 6.23033 155.909 4.09493 155.733 3.46688 153.598 3.29102 152.543 1.98466 152.216 1.10538 151.563 0.65318 150.608-0.0502446 149.101 0.628057 147.267 1.05514 146.388 0.150734 145.458-0.200978 144.503 0.0502446 143.574 0.502446 141.79 3.0398 140.836 4.34616 140.434 4.01957 139.102 4.12006 138.072 4.69787 137.344 5.32593 136.54 6.40618 136.213 7.93864 136.339 8.86817 136.414 9.77257 136.665 10.1745 136.791 13.2646 135.786 15.4753 136.188 16.7063 137.896 18.1383 139.881 17.7363 143.122 17.5102 144.328L27.8606 152.342 17.9373 151.965 19.6708 153.372 12.5109 155.256C11.7824 156.411 10.9282 156.587 10.3253 156.537ZM8.81792 153.648 9.19476 154.175C9.37061 154.402 9.9233 155.055 10.4509 155.105 10.7775 155.13 11.1292 154.879 11.4558 154.326L11.6065 154.075 16.5556 152.769 13.7168 150.432 23.414 150.784 15.9024 144.956 16.0029 144.503C16.0029 144.453 16.9073 140.685 15.5256 138.801 14.6463 137.57 12.9129 137.444 10.4006 138.298L10.1494 138.374 9.9233 138.298C9.9233 138.298 8.89329 137.921 7.81303 137.846 7.23522 137.796 6.23033 137.796 5.82837 138.298 5.50178 138.75 5.5269 139.605 5.92886 140.76L6.20521 141.514 5.42641 141.69C4.27079 141.941 1.75856 142.845 1.48222 143.976 1.33148 144.579 1.93442 145.257 2.46198 145.734L2.91419 146.136 2.61272 146.664C2.26101 147.242 1.50734 148.95 2.00978 150.055 2.28613 150.683 2.98955 151.085 4.09493 151.286L4.67275 151.387 4.69787 151.965C4.69787 151.99 4.87372 154.402 6.38106 154.527 6.88351 154.577 7.53669 154.402 8.26523 154L8.81792 153.648Z" fill="#003F5C" fill-rule="nonzero" fill-opacity="1" transform="matrix(1 0 0 1.00255 61.7402 466)"/><path d="M340.708 140.258C340.708 144.855 339.377 148.573 336.739 151.437 334.076 154.301 330.634 155.733 326.364 155.733L283.329 155.733C279.083 155.733 275.617 154.301 272.979 151.437 270.316 148.573 269.009 144.855 269.009 140.258L269.009 126.893 288.655 126.893 288.655 136.64 321.063 136.64 321.063 120.738 283.329 120.738C279.083 120.738 275.792 119.482 273.456 116.969 271.145 114.457 269.964 110.915 269.964 106.318L269.964 86.069C269.964 81.4716 271.296 77.7535 273.933 74.8895 276.596 72.0256 280.038 70.5936 284.309 70.5936L325.861 70.5936C330.132 70.5936 333.574 72.0256 336.237 74.8895 338.9 77.7535 340.206 81.4716 340.206 86.069L340.206 97.7257 320.56 97.7257 320.56 89.6866 289.61 89.6866 289.61 103.253 327.343 103.253C331.589 103.253 334.88 104.509 337.216 107.021 339.553 109.533 340.708 113.075 340.708 117.673L340.708 140.258Z" fill="#003F5C" fill-rule="nonzero" fill-opacity="1" transform="matrix(1 0 0 1.00255 61.7402 466)"/><path d="M409.945 140.685C409.945 142.946 409.594 145.006 408.916 146.84 408.237 148.674 407.232 150.256 405.976 151.563 404.695 152.869 403.188 153.899 401.454 154.628 399.721 155.381 397.837 155.733 395.802 155.733L364.851 155.733C362.766 155.733 360.857 155.356 359.148 154.628 357.44 153.899 355.958 152.844 354.676 151.563 353.395 150.256 352.415 148.674 351.737 146.84 351.059 145.006 350.707 142.946 350.707 140.685L350.707 104.509C350.707 102.323 351.059 100.313 351.737 98.4542 352.441 96.6203 353.42 95.0376 354.676 93.7313 355.958 92.4249 357.44 91.42 359.148 90.7166 360.857 90.0132 362.766 89.6614 364.851 89.6614L395.802 89.6614C397.837 89.6614 399.721 90.0132 401.454 90.7166 403.188 91.42 404.695 92.4249 405.976 93.7313 407.257 95.0376 408.237 96.6203 408.916 98.4542 409.594 100.288 409.945 102.298 409.945 104.509L409.945 140.685ZM390.702 137.092 390.702 108.352 369.976 108.352 369.976 137.092 390.702 137.092Z" fill="#003F5C" fill-rule="nonzero" fill-opacity="1" transform="matrix(1 0 0 1.00255 61.7402 466)"/><path d="M478.63 140.685C478.63 142.946 478.278 145.006 477.6 146.84 476.922 148.674 475.917 150.256 474.661 151.563 473.379 152.869 471.872 153.899 470.139 154.628 468.405 155.356 466.496 155.758 464.486 155.758L433.535 155.758C431.45 155.758 429.541 155.381 427.833 154.653 426.124 153.924 424.642 152.869 423.361 151.588 422.08 150.282 421.1 148.699 420.422 146.865 419.743 145.031 419.392 142.971 419.392 140.71L419.392 104.534C419.392 102.348 419.743 100.338 420.422 98.4794 421.125 96.6455 422.105 95.0627 423.361 93.7564 424.642 92.45 426.124 91.4451 427.833 90.7417 429.541 90.0383 431.45 89.6866 433.535 89.6866L464.486 89.6866C466.521 89.6866 468.405 90.0383 470.139 90.7417 471.872 91.4451 473.379 92.45 474.661 93.7564 475.942 95.0627 476.922 96.6455 477.6 98.4794 478.278 100.313 478.63 102.323 478.63 104.534L478.63 114.934 459.386 114.934 459.386 108.352 438.66 108.352 438.66 137.092 459.386 137.092 459.386 130.209 478.63 130.209 478.63 140.685Z" fill="#003F5C" fill-rule="nonzero" fill-opacity="1" transform="matrix(1 0 0 1.00255 61.7402 466)"/><path d="M508.098 83.7326 488.855 83.7326 488.855 66.8755 508.098 66.8755 508.098 83.7326ZM508.098 155.758 488.855 155.758 488.855 89.6866 508.098 89.6866 508.098 155.758Z" fill="#003F5C" fill-rule="nonzero" fill-opacity="1" transform="matrix(1 0 0 1.00255 61.7402 466)"/><path d="M577.134 140.911C577.134 143.172 576.783 145.207 576.104 147.016 575.426 148.824 574.421 150.382 573.165 151.688 571.884 152.995 570.376 154 568.643 154.703 566.91 155.406 565.025 155.758 563.016 155.758L532.065 155.758C527.794 155.758 524.378 154.351 521.79 151.563 519.202 148.774 517.921 145.081 517.921 140.484L517.921 129.782C517.921 125.184 519.052 121.667 521.313 119.23 523.574 116.794 526.814 115.563 531.085 115.563L557.916 115.563 557.916 107.925 538.17 107.925 538.17 112.372 518.926 112.372 518.926 104.961C518.926 100.364 520.232 96.6706 522.795 93.882 525.382 91.0934 528.799 89.6866 533.07 89.6866L563.041 89.6866C565.076 89.6866 566.96 90.0383 568.693 90.7417 570.427 91.4451 571.934 92.45 573.215 93.7564 574.497 95.0627 575.476 96.6455 576.155 98.4794 576.833 100.313 577.185 102.323 577.185 104.534L577.185 140.911ZM557.891 137.519 557.891 130.51 537.165 130.51 537.165 137.519 557.891 137.519Z" fill="#003F5C" fill-rule="nonzero" fill-opacity="1" transform="matrix(1 0 0 1.00255 61.7402 466)"/><path d="M606.804 155.758 587.56 155.758 587.56 66.8755 606.804 66.8755 606.804 155.758Z" fill="#003F5C" fill-rule="nonzero" fill-opacity="1" transform="matrix(1 0 0 1.00255 61.7402 466)"/><path d="M716.638 140.258C716.638 144.855 715.307 148.573 712.669 151.437 710.006 154.301 706.564 155.733 702.294 155.733L659.36 155.733C655.114 155.733 651.647 154.301 649.009 151.437 646.346 148.573 645.04 144.855 645.04 140.258L645.04 86.069C645.04 81.4716 646.371 77.7535 649.009 74.8895 651.672 72.0256 655.114 70.5936 659.36 70.5936L702.294 70.5936C706.564 70.5936 710.006 72.0256 712.669 74.8895 715.332 77.7535 716.638 81.4716 716.638 86.069L716.638 101.645 696.993 101.645 696.993 89.6866 664.685 89.6866 664.685 136.665 696.993 136.665 696.993 122.873 716.638 122.873 716.638 140.258Z" fill="#003F5C" fill-rule="nonzero" fill-opacity="1" transform="matrix(1 0 0 1.00255 61.7402 466)"/><path d="M785.499 140.685C785.499 142.946 785.147 145.006 784.469 146.84 783.79 148.674 782.785 150.256 781.529 151.563 780.248 152.869 778.741 153.899 777.007 154.628 775.274 155.381 773.39 155.733 771.355 155.733L740.404 155.733C738.319 155.733 736.41 155.356 734.701 154.628 732.993 153.874 731.511 152.844 730.23 151.563 728.948 150.256 727.969 148.674 727.29 146.84 726.612 145.006 726.26 142.946 726.26 140.685L726.26 104.509C726.26 102.323 726.612 100.313 727.29 98.4542 727.994 96.6203 728.974 95.0376 730.23 93.7313 731.511 92.4249 732.993 91.42 734.701 90.7166 736.41 90.0132 738.319 89.6614 740.404 89.6614L771.355 89.6614C773.39 89.6614 775.274 90.0132 777.007 90.7166 778.741 91.42 780.248 92.4249 781.529 93.7313 782.811 95.0376 783.79 96.6203 784.469 98.4542 785.147 100.288 785.499 102.298 785.499 104.509L785.499 140.685ZM766.255 137.092 766.255 108.352 745.529 108.352 745.529 137.092 766.255 137.092Z" fill="#003F5C" fill-rule="nonzero" fill-opacity="1" transform="matrix(1 0 0 1.00255 61.7402 466)"/><path d="M854.158 140.685C854.158 142.946 853.806 145.006 853.128 146.84 852.45 148.674 851.445 150.256 850.189 151.563 848.907 152.869 847.4 153.899 845.667 154.628 843.933 155.356 842.049 155.758 840.014 155.758L809.063 155.758C806.978 155.758 805.069 155.381 803.361 154.653 801.652 153.899 800.17 152.869 798.889 151.588 797.608 150.282 796.628 148.699 795.949 146.865 795.271 145.031 794.919 142.971 794.919 140.71L794.919 104.534C794.919 102.348 795.271 100.338 795.949 98.4794 796.653 96.6455 797.633 95.0627 798.889 93.7564 800.17 92.45 801.652 91.4451 803.361 90.7417 805.069 90.0383 806.978 89.6866 809.063 89.6866L840.014 89.6866C842.049 89.6866 843.933 90.0383 845.667 90.7417 847.4 91.4451 848.907 92.45 850.189 93.7564 851.47 95.0627 852.45 96.6455 853.128 98.4794 853.806 100.313 854.158 102.323 854.158 104.534L854.158 140.685ZM834.914 137.092 834.914 108.352 814.188 108.352 814.188 137.092 834.914 137.092Z" fill="#003F5C" fill-rule="nonzero" fill-opacity="1" transform="matrix(1 0 0 1.00255 61.7402 466)"/><path d="M923.621 140.911C923.621 143.172 923.269 145.207 922.591 147.016 921.913 148.824 920.908 150.382 919.652 151.688 918.37 152.995 916.863 154 915.13 154.703 913.396 155.406 911.512 155.758 909.477 155.758L883.651 155.758 883.651 178.569 864.408 178.569 864.408 89.6866 909.502 89.6866C911.537 89.6866 913.421 90.0634 915.155 90.792 916.888 91.5456 918.396 92.5756 919.677 93.8569 920.958 95.1632 921.938 96.7459 922.616 98.6301 923.294 100.514 923.646 102.549 923.646 104.735L923.646 140.911ZM904.377 137.092 904.377 108.352 883.651 108.352 883.651 137.092 904.377 137.092Z" fill="#003F5C" fill-rule="nonzero" fill-opacity="1" transform="matrix(1 0 0 1.00255 61.7402 466)"/><path d="M1029.71 155.758 975.197 155.758C970.951 155.758 967.484 154.326 964.847 151.462 962.184 148.598 960.877 144.88 960.877 140.283L960.877 86.069C960.877 81.4716 962.209 77.7535 964.847 74.8895 967.51 72.0256 970.951 70.5936 975.197 70.5936L1029.71 70.5936 1029.71 89.6866 980.498 89.6866 980.498 103.253 1028.13 103.253 1028.13 120.738 980.498 120.738 980.498 136.64 1029.71 136.64 1029.71 155.758Z" fill="#003F5C" fill-rule="nonzero" fill-opacity="1" transform="matrix(1 0 0 1.00255 61.7402 466)"/><path d="M1111.03 140.258C1111.03 144.855 1109.7 148.573 1107.06 151.437 1104.4 154.301 1100.96 155.733 1096.69 155.733L1053.65 155.733C1049.41 155.733 1045.94 154.301 1043.3 151.437 1040.64 148.573 1039.33 144.855 1039.33 140.258L1039.33 126.893 1058.98 126.893 1058.98 136.64 1091.39 136.64 1091.39 120.738 1053.65 120.738C1049.41 120.738 1046.12 119.482 1043.78 116.969 1041.47 114.457 1040.29 110.915 1040.29 106.318L1040.29 86.069C1040.29 81.4716 1041.62 77.7535 1044.26 74.8895 1046.92 72.0256 1050.36 70.5936 1054.63 70.5936L1096.19 70.5936C1100.46 70.5936 1103.9 72.0256 1106.56 74.8895 1109.22 77.7535 1110.53 81.4716 1110.53 86.069L1110.53 97.7257 1090.89 97.7257 1090.89 89.6866 1059.93 89.6866 1059.93 103.253 1097.67 103.253C1101.91 103.253 1105.2 104.509 1107.54 107.021 1109.88 109.533 1111.03 113.075 1111.03 117.673L1111.03 140.258Z" fill="#003F5C" fill-rule="nonzero" fill-opacity="1" transform="matrix(1 0 0 1.00255 61.7402 466)"/><path d="M1195.52 140.258C1195.52 144.855 1194.19 148.573 1191.55 151.437 1188.89 154.301 1185.45 155.733 1181.17 155.733L1175.87 155.733 1175.87 142.167 1166.83 155.733 1136.18 155.733C1131.94 155.733 1128.47 154.301 1125.83 151.437 1123.17 148.573 1121.86 144.855 1121.86 140.258L1121.86 86.069C1121.86 81.4716 1123.19 77.7535 1125.83 74.8895 1128.49 72.0256 1131.94 70.5936 1136.18 70.5936L1181.17 70.5936C1185.42 70.5936 1188.89 72.0256 1191.55 74.8895 1194.21 77.7535 1195.52 81.4716 1195.52 86.069L1195.52 97.8513 1175.87 97.8513 1175.87 89.6866 1141.48 89.6866 1141.48 136.665 1175.87 136.665 1175.87 124.682 1159.77 124.682 1159.77 105.388 1195.52 105.388 1195.52 140.258Z" fill="#003F5C" fill-rule="nonzero" fill-opacity="1" transform="matrix(1 0 0 1.00255 61.7402 466)"/><path d="M65.6194 30.3226 75.3166 42.3311 72.6034 44.3911 64.6145 34.1914C63.5845 37.3066 62.2279 39.7435 60.4945 41.5523 58.761 43.3359 56.7764 44.366 54.5405 44.6172L54.5405 41.2006C56.2739 40.874 57.7813 39.8188 59.0374 38.01 60.2935 36.2012 61.2733 33.8146 61.9767 30.8753 62.6801 27.936 63.0318 24.6198 63.0821 20.9269L55.2188 20.9269 55.2188 17.7615 74.161 17.7615 74.161 20.9269 66.5741 20.9269C66.5489 24.2179 66.2224 27.3582 65.6194 30.3226ZM81.5972 16.6812 81.5972 46.3757 78.1303 46.3757 78.1303 16.6812 81.5972 16.6812Z" fill="#000000" fill-rule="nonzero" fill-opacity="1" transform="matrix(1 0 0 1.00255 61.7402 466)"/><path d="M116.994 36.6785 103.755 36.6785 103.755 47.0792 100.213 47.0792 100.213 36.6785 87.3502 36.6785 87.3502 33.4126 117.02 33.4126 117.02 36.6785ZM111.292 20.6254 89.2846 20.6254 89.2846 17.3846 114.884 17.3846 114.884 30.9507 111.292 30.9507 111.292 20.6254Z" fill="#000000" fill-rule="nonzero" fill-opacity="1" transform="matrix(1 0 0 1.00255 61.7402 466)"/><path d="M120.788 30.3477 150.457 30.3477 150.457 32.86 120.788 32.86 120.788 30.3477ZM122.823 39.3666 145.056 39.3666 145.056 37.4573 122.773 37.4573 122.773 35.0205 148.397 35.0205 148.397 41.6528 126.164 41.6528 126.164 43.5872 148.9 43.5872 148.9 46.024 122.823 46.024 122.823 39.3666ZM122.948 21.4796 145.006 21.4796 145.006 19.4698 122.948 19.4698 122.948 17.0329 148.347 17.0329 148.347 23.7908 126.29 23.7908 126.29 25.7755 148.749 25.7755 148.749 28.2123 122.948 28.2123 122.948 21.4796Z" fill="#000000" fill-rule="nonzero" fill-opacity="1" transform="matrix(1 0 0 1.00255 61.7402 466)"/><path d="M193.643 36.6785 180.378 36.6785 180.378 47.0792 176.836 47.0792 176.836 36.6785 163.973 36.6785 163.973 33.4126 193.643 33.4126 193.643 36.6785ZM187.94 20.6254 165.933 20.6254 165.933 17.3846 191.532 17.3846 191.532 30.9507 187.94 30.9507 187.94 20.6254Z" fill="#000000" fill-rule="nonzero" fill-opacity="1" transform="matrix(1 0 0 1.00255 61.7402 466)"/><path d="M209.47 21.3791 217.358 21.3791 217.358 24.444 198.089 24.444 198.089 21.3791 205.953 21.3791 205.953 16.6058 209.47 16.6058 209.47 21.3791ZM212.007 27.936C213.263 28.6897 214.243 29.7448 214.921 31.1265 215.625 32.5082 215.976 34.0909 215.976 35.8746 215.976 37.6583 215.625 39.241 214.921 40.6227 214.218 42.0045 213.263 43.0596 212.007 43.8133 210.751 44.5669 209.319 44.9438 207.736 44.9438 206.154 44.9438 204.722 44.5669 203.465 43.8133 202.209 43.0596 201.23 42.0045 200.526 40.6227 199.823 39.241 199.471 37.6583 199.471 35.8746 199.471 34.0909 199.823 32.5082 200.526 31.1265 201.23 29.7448 202.209 28.6897 203.465 27.936 204.722 27.1823 206.154 26.8055 207.736 26.8055 209.319 26.8055 210.751 27.1823 212.007 27.936ZM210.223 41.2508C210.977 40.7735 211.555 40.0449 211.982 39.1405 212.409 38.211 212.635 37.1307 212.635 35.8998 212.635 34.6688 212.409 33.5885 211.982 32.659 211.555 31.7295 210.977 31.026 210.223 30.5487 209.47 30.0714 208.641 29.8202 207.711 29.8202 206.279 29.8202 205.098 30.3728 204.169 31.4782 203.239 32.5836 202.787 34.0658 202.787 35.9249 202.787 37.7839 203.239 39.2661 204.169 40.3464 205.098 41.4518 206.279 42.0045 207.711 42.0045 208.641 41.9793 209.495 41.7281 210.223 41.2508ZM228.487 32.0309 224.317 32.0309 224.317 46.4009 220.875 46.4009 220.875 16.6812 224.317 16.6812 224.317 28.7148 228.487 28.7148 228.487 32.0309Z" fill="#000000" fill-rule="nonzero" fill-opacity="1" transform="matrix(1 0 0 1.00255 61.7402 466)"/><path d="M230.874 31.4782 260.543 31.4782 260.543 34.5431 230.874 34.5431 230.874 31.4782ZM232.934 37.181 236.451 37.181 236.451 42.9842 259.011 42.9842 259.011 46.0492 232.934 46.0492 232.934 37.181ZM233.009 16.6812 236.476 16.6812 236.476 25.1223 258.709 25.1223 258.709 28.1872 233.009 28.1872 233.009 16.6812Z" fill="#000000" fill-rule="nonzero" fill-opacity="1" transform="matrix(1 0 0 1.00255 61.7402 466)"/><path d="M480.263 41.3764C484.735 41.3764 487.925 40.9493 489.86 40.1203L489.86 43.3611C487.825 44.1901 484.584 44.6172 480.162 44.6172L468.832 44.6172 468.832 41.3764 476.871 41.3764 476.871 35.5732C474.686 35.1963 472.927 34.1914 471.596 32.5585 470.239 30.9255 469.586 28.9158 469.586 26.5291 469.586 24.7455 469.963 23.1376 470.741 21.7559 471.495 20.3491 472.575 19.2688 473.932 18.49 475.289 17.7112 476.846 17.3344 478.58 17.3344 480.288 17.3344 481.846 17.7112 483.227 18.49 484.609 19.2688 485.689 20.3491 486.468 21.7559 487.247 23.1628 487.649 24.7455 487.649 26.5291 487.649 28.1118 487.347 29.5438 486.719 30.8251 486.091 32.1063 485.212 33.1614 484.107 33.9905 483.001 34.8195 481.72 35.3471 480.288 35.5732L480.288 41.3764ZM474.46 30.9004C475.49 32.056 476.846 32.6339 478.555 32.6339 479.66 32.6339 480.665 32.3575 481.519 31.8299 482.398 31.3024 483.051 30.5738 483.529 29.6443 484.006 28.7148 484.232 27.6848 484.232 26.5543 484.232 25.3986 484.006 24.3435 483.529 23.414 483.051 22.4844 482.373 21.7559 481.519 21.2283 480.665 20.7008 479.66 20.4244 478.529 20.4244 476.821 20.4244 475.439 21.0022 474.434 22.1579 473.404 23.3135 472.902 24.7706 472.902 26.5543 472.927 28.2877 473.43 29.7448 474.46 30.9004ZM499.883 31.7546 495.788 31.7546 495.788 46.4009 492.347 46.4009 492.347 16.6812 495.788 16.6812 495.788 28.4384 499.883 28.4384 499.883 31.7546Z" fill="#000000" fill-rule="nonzero" fill-opacity="1" transform="matrix(1 0 0 1.00255 61.7402 466)"/><path d="M712.292 43.4867C710.961 42.4818 709.906 40.9493 709.152 38.8893 708.398 36.8293 708.021 34.2668 708.021 31.2019 708.021 28.137 708.398 25.5745 709.152 23.5145 709.906 21.4544 710.961 19.922 712.292 18.9171 713.624 17.9122 715.206 17.4097 717.015 17.4097 718.799 17.4097 720.357 17.9122 721.713 18.9171 723.045 19.922 724.1 21.4544 724.853 23.5145 725.607 25.5745 725.984 28.137 725.984 31.2019 725.984 34.2668 725.607 36.8293 724.853 38.8893 724.1 40.9493 723.045 42.4818 721.713 43.4867 720.357 44.4916 718.799 44.994 717.015 44.994 715.232 44.994 713.649 44.4916 712.292 43.4867ZM721.035 39.2159C722.065 37.4573 722.567 34.7944 722.567 31.2019 722.567 27.6345 722.065 24.9716 721.035 23.213 720.005 21.4544 718.673 20.5752 717.04 20.5752 715.382 20.5752 714.026 21.4544 712.996 23.213 711.966 24.9716 711.463 27.6345 711.463 31.227 711.463 34.8195 711.966 37.4825 712.971 39.241 713.976 40.9996 715.332 41.8789 717.015 41.8789 718.673 41.8286 720.005 40.9493 721.035 39.2159ZM731.034 16.6812 734.5 16.6812 734.5 46.3757 731.034 46.3757 731.034 16.6812Z" fill="#000000" fill-rule="nonzero" fill-opacity="1" transform="matrix(1 0 0 1.00255 61.7402 466)"/><path d="M754.648 18.892C755.98 19.8969 757.01 21.4293 757.738 23.4893 758.467 25.5494 758.844 28.1118 758.844 31.1768 758.844 34.2417 758.467 36.8042 757.738 38.8642 756.985 40.9242 755.955 42.4567 754.648 43.4616 753.317 44.4665 751.785 44.9689 750.026 44.9689 747.313 44.9689 745.152 43.8133 743.57 41.502 741.962 39.1908 741.158 35.749 741.158 31.1768 741.158 26.6045 741.962 23.1628 743.57 20.8515 745.177 18.5403 747.338 17.3846 750.026 17.3846 751.785 17.3846 753.342 17.8871 754.648 18.892ZM753.945 39.2159C754.925 37.4573 755.427 34.7944 755.427 31.2019 755.427 27.6094 754.925 24.9464 753.945 23.1879 752.965 21.4293 751.659 20.55 750.026 20.55 748.393 20.55 747.062 21.4293 746.082 23.1879 745.102 24.9464 744.6 27.6094 744.6 31.2019 744.6 34.7944 745.102 37.4573 746.082 39.2159 747.062 40.9745 748.393 41.8537 750.026 41.8537 751.659 41.8286 752.965 40.9493 753.945 39.2159ZM767.109 27.1823 767.109 34.0407 771.279 34.0407 771.279 37.2312 767.109 37.2312 767.109 46.3757 763.667 46.3757 763.667 16.6812 767.109 16.6812 767.109 23.9918 771.279 23.9918 771.279 27.1823 767.109 27.1823Z" fill="#000000" fill-rule="nonzero" fill-opacity="1" transform="matrix(1 0 0 1.00255 61.7402 466)"/><path d="M775.073 41.2759C777.736 41.2759 780.047 40.5976 782.007 39.2661 783.966 37.9347 785.474 36.0505 786.504 33.5885 787.534 31.1516 788.061 28.2626 788.061 24.9716L788.061 20.9269 775.098 20.9269 775.098 17.7615 791.578 17.7615 791.578 24.9213C791.578 28.8655 790.925 32.3073 789.568 35.2717 788.237 38.2361 786.328 40.5223 783.841 42.1301 781.353 43.7379 778.439 44.5418 775.098 44.5418L775.098 41.2759ZM797.959 16.6812 801.401 16.6812 801.401 46.3757 797.959 46.3757 797.959 16.6812Z" fill="#000000" fill-rule="nonzero" fill-opacity="1" transform="matrix(1 0 0 1.00255 61.7402 466)"/><path d="M283.53 39.442C282.827 39.442 282.249 39.3918 281.822 39.2661 281.395 39.1405 281.068 38.9647 280.842 38.7386 280.616 38.5125 280.465 38.2361 280.39 37.9347 280.315 37.6332 280.289 37.3066 280.289 36.9046 280.289 36.6032 280.315 36.3017 280.39 36.0002 280.465 35.6988 280.616 35.4476 280.842 35.1963 281.068 34.9702 281.395 34.7692 281.822 34.6185 282.249 34.4678 282.827 34.3924 283.53 34.3924L433.385 34.3673C434.088 34.3673 434.666 34.4427 435.093 34.5934 435.52 34.7441 435.847 34.9451 436.073 35.1712 436.299 35.3973 436.45 35.6737 436.525 35.9751 436.6 36.2766 436.625 36.5781 436.625 36.8795 436.625 37.2564 436.6 37.6081 436.525 37.8844 436.45 38.1859 436.299 38.4371 436.073 38.6883 435.847 38.9144 435.52 39.0903 435.093 39.2159 434.666 39.3415 434.088 39.3918 433.385 39.3918L283.53 39.442Z" fill="#003F5C" fill-rule="nonzero" fill-opacity="1" transform="matrix(1 0 0 1.00255 61.7402 466)"/><path d="M283.53 46.0492 283.53 46.0492C282.174 46.0492 281.018 45.8984 279.988 45.597 278.506 45.1699 277.199 44.4162 276.169 43.3862 275.064 42.2808 274.31 40.9242 273.984 39.442 273.808 38.6632 273.707 37.809 273.707 36.9046 273.707 36.1007 273.808 35.2717 273.984 34.4678 274.335 32.9856 275.089 31.629 276.169 30.5487 277.124 29.5941 278.28 28.8655 279.636 28.3882 280.817 27.9862 282.098 27.7853 283.555 27.7853L433.41 27.7601C434.867 27.7601 436.148 27.9611 437.279 28.3379 438.685 28.8404 439.866 29.5689 440.796 30.5236 441.851 31.6038 442.604 32.9353 442.956 34.3924 443.157 35.2215 443.258 36.0505 443.258 36.8795 443.258 37.7839 443.157 38.6381 442.981 39.442 442.63 40.9242 441.876 42.2557 440.846 43.3108 439.766 44.4162 438.459 45.1699 436.927 45.597 435.922 45.8984 434.766 46.024 433.41 46.024L283.53 46.0492Z" fill="#003F5C" fill-rule="nonzero" fill-opacity="1" transform="matrix(1 0 0 1.00255 61.7402 466)"/><path d="M437.027 32.8348C436.877 32.5836 436.776 32.2821 436.701 31.9556 436.625 31.6038 436.625 31.2773 436.676 30.9255 436.726 30.5738 436.826 30.2472 437.002 29.9458 437.153 29.6443 437.404 29.3931 437.731 29.2172 438.309 28.8906 438.912 28.8153 439.514 28.9409 440.117 29.0916 440.67 29.4936 441.147 30.197 441.65 30.9507 442.102 31.5285 442.479 31.9556 442.856 32.3826 443.207 32.6841 443.559 32.8851 443.911 33.0861 444.263 33.2117 444.639 33.2619 445.016 33.3122 445.468 33.3373 445.996 33.3373L446.423 33.3373C447.277 33.3373 447.93 33.6136 448.332 34.1914 448.734 34.7692 448.935 35.4978 448.935 36.3771 448.935 37.2564 448.734 37.9849 448.332 38.5376 447.93 39.0903 447.302 39.3666 446.423 39.3666L446.046 39.3666C445.468 39.3666 444.966 39.4169 444.539 39.5425 444.112 39.6681 443.735 39.8942 443.358 40.1957 443.006 40.4971 442.63 40.9242 442.253 41.4518 441.876 41.9793 441.449 42.6828 440.972 43.5118 440.57 44.2404 440.092 44.6674 439.514 44.793 438.937 44.9187 438.409 44.8684 437.882 44.6423 437.48 44.4665 437.178 44.1901 437.002 43.8133 436.801 43.4364 436.701 43.0596 436.701 42.6576 436.726 41.9793 436.877 41.3764 437.178 40.874 437.63 40.0198 438.108 39.1908 438.635 38.4622 439.163 37.7337 439.665 37.1559 440.193 36.7288 439.891 36.5027 439.59 36.2263 439.263 35.8998 438.962 35.5732 438.66 35.2466 438.384 34.8697 438.108 34.4929 437.856 34.1412 437.605 33.7644 437.379 33.4629 437.178 33.1363 437.027 32.8348Z" fill="#003F5C" fill-rule="nonzero" fill-opacity="1" transform="matrix(1 0 0 1.00255 61.7402 466)"/><path d="M438.912 51.5007C437.63 51.5007 436.374 51.2243 435.219 50.7219 433.41 49.8929 432.028 48.5865 431.149 46.9284 430.445 45.597 430.094 44.165 430.094 42.6828 430.094 42.6074 430.094 42.532 430.094 42.4818 430.144 40.7484 430.596 39.1656 431.4 37.7337 431.526 37.4825 431.651 37.2312 431.802 37.0051 431.601 36.6534 431.4 36.352 431.249 36.0756 430.772 35.2466 430.445 34.317 430.244 33.3122 430.018 32.1565 429.993 31.1014 430.119 30.0463 430.269 28.8906 430.621 27.8355 431.174 26.8306 431.877 25.4489 433.058 24.2681 434.49 23.4642 436.55 22.3337 438.761 22.0071 440.972 22.5096 442.554 22.8613 444.79 23.8411 446.599 26.4538 446.674 26.5543 446.75 26.6547 446.8 26.7552 449.639 26.8557 452.126 28.1621 453.709 30.3728 454.914 32.0812 455.568 34.1663 455.568 36.4273 455.568 39.3415 454.512 41.3764 453.633 42.5572 452.126 44.5921 449.865 45.7979 447.252 45.9989 447.101 46.225 446.951 46.5014 446.75 46.8279 445.443 49.1894 443.383 50.7721 440.972 51.2997 440.268 51.4253 439.59 51.5007 438.912 51.5007ZM447.453 27.5843C447.453 27.6094 447.453 27.6094 447.453 27.5843 447.453 27.6094 447.453 27.6094 447.453 27.5843ZM445.418 26.705C445.418 26.705 445.418 26.705 445.418 26.705 445.418 26.705 445.418 26.705 445.418 26.705Z" fill="#003F5C" fill-rule="nonzero" fill-opacity="1" transform="matrix(1 0 0 1.00255 61.7402 466)"/><path d="M314.104 39.442 282.249 39.442 282.249 34.518 314.104 34.518 314.104 39.442ZM292.449 28.0114C286.62 28.0114 283.003 23.2381 283.003 17.7615L283.003 16.9073C283.003 11.4306 286.62 6.60716 292.449 6.60716L303.955 6.60716C309.783 6.60716 313.401 11.4306 313.401 16.9073L313.401 17.7866C313.401 23.2632 309.783 28.0114 303.955 28.0114L292.449 28.0114ZM301.895 23.0371C305.512 23.0371 307.497 20.6254 307.497 17.7363L307.497 16.9827C307.497 14.0936 305.512 11.5814 301.895 11.5814L294.509 11.5814C290.891 11.5814 288.906 14.0685 288.906 16.9575L288.906 17.7615C288.906 20.6505 290.891 23.0623 294.509 23.0623L301.895 23.0623Z" fill="#003F5C" fill-rule="nonzero" fill-opacity="1" transform="matrix(1 0 0 1.00255 61.7402 466)"/><path d="M314.104 46.0492 282.249 46.0492C278.581 46.0492 275.617 43.0847 275.617 39.4169L275.617 34.4929C275.617 31.7043 277.325 29.3177 279.762 28.3379 277.626 25.474 276.37 21.8061 276.37 17.7363L276.37 16.9073C276.37 7.26034 283.279 0 292.423 0L303.929 0C313.099 0 319.983 7.26034 319.983 16.9073L319.983 17.7866C319.983 21.8815 318.727 25.5242 316.591 28.3882 318.978 29.3931 320.686 31.7546 320.686 34.518L320.686 39.442C320.711 43.0847 317.747 46.0492 314.104 46.0492Z" fill="#003F5C" fill-rule="nonzero" fill-opacity="1" transform="matrix(1 0 0 1.00255 61.7402 466)"/><path d="M351.963 39.442 318.35 39.442 318.35 34.4175 351.963 34.4175 351.963 39.442ZM345.557 18.289 345.557 20.9017C345.557 21.3539 345.507 21.781 345.482 22.2583 348.496 24.2681 350.783 27.1572 351.285 31.629L345.934 32.7846C345.808 30.9758 344.929 29.0162 343.522 27.7853 341.839 30.2472 339.101 32.257 334.88 32.8348L334.88 31.7295 329.931 32.8097C329.881 31.0511 329.353 29.1167 327.946 27.9109 326.163 30.3728 323.249 32.3826 319.128 32.9604L319.128 27.4838C321.616 27.1823 324.731 25.1223 324.731 21.0022L324.731 18.289 330.308 18.289 330.308 20.8013C330.308 21.3539 330.258 21.9066 330.182 22.4844 332.544 24.0672 334.152 26.2277 334.88 29.2172L334.88 27.4587C337.367 27.2326 339.955 25.0972 339.955 21.0525L339.955 18.289 345.557 18.289ZM350.833 41.6276 350.833 48.8629C350.833 51.149 350.707 53.1336 350.33 54.8671L344.226 54.8671C344.577 53.2844 344.678 51.35 344.678 49.6919L344.678 46.8028 319.505 46.8028 319.505 41.6025 350.833 41.6025Z" fill="#003F5C" fill-rule="nonzero" fill-opacity="1" transform="matrix(1 0 0 1.00255 61.7402 466)"/><path d="M350.33 61.4994 344.226 61.4994C342.216 61.4994 340.332 60.595 339.076 59.0374 337.819 57.4798 337.342 55.4198 337.769 53.4854 337.769 53.4854 337.769 53.4602 337.769 53.4602L319.53 53.4602C315.863 53.4602 312.898 50.4958 312.898 46.8279L312.898 43.1601C312.17 42.105 311.742 40.8237 311.742 39.442L311.742 34.4175C311.742 33.3122 312.019 32.257 312.496 31.3275L312.496 27.4587C312.496 24.1928 314.883 21.4042 318.098 20.9269L318.098 18.289C318.098 14.6212 321.063 11.6567 324.731 11.6567L330.308 11.6567C332.217 11.6567 333.925 12.4607 335.131 13.7419 336.337 12.4607 338.046 11.6567 339.955 11.6567L345.532 11.6567C349.2 11.6567 352.164 14.6212 352.164 18.289L352.164 19.1683C355.405 22.2835 357.339 26.2779 357.842 30.8753 357.867 31.0763 357.867 31.2773 357.892 31.4782 358.344 32.3575 358.57 33.3624 358.57 34.4175L358.57 39.4169C358.57 40.7986 358.143 42.0798 357.415 43.135L357.415 48.8377C357.415 51.9278 357.214 54.239 356.762 56.2739 356.134 59.3389 353.445 61.4994 350.33 61.4994Z" fill="#003F5C" fill-rule="nonzero" fill-opacity="1" transform="matrix(1 0 0 1.00255 61.7402 466)"/><path d="M375.302 23.3637 375.302 34.5934 380.151 34.5934 380.151 23.0371 385.476 23.0371 385.476 54.7917 380.151 54.7917 380.151 39.1405 375.302 39.1405 375.302 48.8377C375.302 50.4456 374.247 51.7519 372.614 51.7519L359.927 51.7519C358.294 51.7519 357.239 50.4456 357.239 48.8126L357.239 23.3637 362.565 23.3637 362.565 32.86 369.951 32.86 369.951 23.3637 375.302 23.3637ZM369.976 37.4071 362.59 37.4071 362.59 47.2048 369.976 47.2048 369.976 37.4071Z" fill="#003F5C" fill-rule="nonzero" fill-opacity="1" transform="matrix(1 0 0 1.00255 61.7402 466)"/><path d="M385.476 61.3989 380.151 61.3989C377.739 61.3989 375.628 60.1176 374.473 58.1832 373.87 58.3088 373.267 58.3591 372.639 58.3591L359.952 58.3591C354.727 58.3591 350.657 54.1637 350.657 48.8126L350.657 23.3637C350.657 19.6959 353.621 16.7314 357.289 16.7314L362.615 16.7314C363.972 16.7314 365.253 17.1585 366.308 17.8619 367.363 17.1585 368.645 16.7314 370.001 16.7314L375.327 16.7314C376.03 16.7314 376.684 16.8319 377.337 17.0329 378.191 16.631 379.171 16.4049 380.176 16.4049L385.502 16.4049C389.169 16.4049 392.134 19.3693 392.134 23.0371L392.134 54.7917C392.109 58.4344 389.144 61.3989 385.476 61.3989Z" fill="#003F5C" fill-rule="nonzero" fill-opacity="1" transform="matrix(1 0 0 1.00255 61.7402 466)"/><path d="M421.075 39.442 390.275 39.442 390.275 34.6688 421.075 34.6688 421.075 39.442ZM408.463 7.6623 408.463 15.0734C408.463 15.3497 408.438 15.6261 408.388 15.9275 413.839 16.8571 418.889 20.9771 420.673 26.5543L414.97 27.7853C414.141 24.7957 410.85 21.4042 406.504 20.8264 403.765 24.645 398.314 27.534 391.003 27.7853L391.003 22.8362C398.841 22.3337 402.761 18.0378 402.761 15.0985L402.761 7.6623 408.463 7.6623Z" fill="#003F5C" fill-rule="nonzero" fill-opacity="1" transform="matrix(1 0 0 1.00255 61.7402 466)"/><path d="M421.075 46.0492 390.275 46.0492C386.607 46.0492 383.643 43.0847 383.643 39.4169L383.643 34.6436C383.643 33.1112 384.145 31.7295 385.024 30.5989 384.597 29.7197 384.371 28.7399 384.371 27.7601L384.371 22.8362C384.371 19.3442 387.084 16.4551 390.576 16.229 393.867 16.028 395.576 14.8975 396.128 14.3197L396.128 7.6623C396.128 3.99444 399.093 1.03001 402.761 1.03001L408.463 1.03001C412.131 1.03001 415.096 3.99444 415.096 7.6623L415.096 11.1292C420.673 13.7168 425.094 18.5905 427.004 24.5194 427.581 26.303 427.355 28.2375 426.426 29.8453 426.325 30.0211 426.225 30.197 426.099 30.3477 427.079 31.5034 427.682 33.0107 427.682 34.6436L427.682 39.4169C427.682 43.0847 424.717 46.0492 421.075 46.0492Z" fill="#003F5C" fill-rule="nonzero" fill-opacity="1" transform="matrix(1 0 0 1.00255 61.7402 466)"/><path d="M364.977 8.66719 364.977 10.5514 358.746 10.5514 358.746 13.4907 364.65 13.4907 364.65 15.3497 358.746 15.3497 358.746 18.7161 365.127 18.7161 365.127 20.6254 357.641 20.6254C356.963 20.6254 356.536 20.1481 356.536 19.3944L356.536 8.66719 364.977 8.66719Z" fill="#003F5C" fill-rule="nonzero" fill-opacity="1" transform="matrix(1 0 0 1.00255 61.7402 466)"/><path d="M365.127 27.2577 357.641 27.2577C353.295 27.2577 349.903 23.8159 349.903 19.4195L349.903 8.66719C349.903 4.99934 352.868 2.03491 356.536 2.03491L365.002 2.03491C368.67 2.03491 371.634 4.99934 371.634 8.66719L371.634 10.5514C371.634 11.3302 371.508 12.0587 371.257 12.737 371.282 12.9882 371.307 13.2394 371.307 13.4907L371.307 15.3497C371.307 15.6261 371.282 15.8773 371.257 16.1285 371.584 16.9324 371.785 17.7866 371.785 18.7161L371.785 20.6254C371.76 24.2933 368.795 27.2577 365.127 27.2577Z" fill="#003F5C" fill-rule="nonzero" fill-opacity="1" transform="matrix(1 0 0 1.00255 61.7402 466)"/><path d="M374.397 12.2346 372.237 12.2346C372.011 10.9282 371.182 10.3253 369.976 10.3253 368.494 10.3253 367.941 11.0789 367.941 11.9582 367.941 12.7872 368.72 13.2646 369.85 13.566 372.312 14.2192 374.523 15.0231 374.523 17.2339 374.523 19.5451 372.639 20.8013 369.85 20.8013 367.388 20.8013 365.58 19.5451 365.228 16.631L367.489 16.631C367.665 18.0127 368.343 18.8166 369.85 18.8166 371.081 18.8166 372.287 18.5905 372.287 17.3344 372.287 16.6561 371.433 16.1285 370.277 15.8019 368.393 15.2995 365.63 14.5458 365.63 12.0336 365.63 9.59671 367.589 8.46621 369.976 8.46621 372.011 8.49133 373.945 9.37061 374.397 12.2346" fill="#003F5C" fill-rule="nonzero" fill-opacity="1" transform="matrix(1 0 0 1.00255 61.7402 466)"/><path d="M369.85 27.4084C363.796 27.4084 359.399 23.4893 358.646 17.4097 358.495 16.2039 358.696 14.998 359.173 13.8926 359.048 13.2394 358.997 12.6114 358.997 12.0336 358.997 6.12984 363.62 1.85905 369.976 1.85905 375.754 1.85905 380.05 5.5269 380.904 11.2297 381.055 12.2346 380.979 13.2646 380.678 14.2192 380.979 15.1487 381.13 16.1536 381.13 17.2339 381.155 23.1376 376.407 27.4084 369.85 27.4084ZM369.046 14.7719C369.373 14.9729 369.7 15.0985 369.976 15.0985 370.227 15.0734 370.554 14.8975 370.905 14.6463 370.604 14.4202 370.252 14.2443 369.951 14.1941 369.7 14.2695 369.373 14.4704 369.046 14.7719Z" fill="#003F5C" fill-rule="nonzero" fill-opacity="1" transform="matrix(1 0 0 1.00255 61.7402 466)"/><path d="M385.527 12.0587 383.316 12.0587C383.014 11.0538 382.211 10.4509 380.703 10.4509 377.764 10.4509 377.337 12.7119 377.337 14.6463 377.337 16.5556 377.739 18.7915 380.703 18.7915 382.085 18.7915 382.688 18.4649 383.316 18.0629L383.316 15.8773 380.552 15.8773 380.552 13.9177 385.527 13.9177 385.527 19.721C383.793 20.4244 382.211 20.8013 380.678 20.8013 376.809 20.8013 375.126 17.9876 375.126 14.6463 375.126 11.305 376.784 8.49133 380.653 8.49133 383.14 8.46621 385.024 9.74745 385.527 12.0587" fill="#003F5C" fill-rule="nonzero" fill-opacity="1" transform="matrix(1 0 0 1.00255 61.7402 466)"/><path d="M380.653 27.4084C373.493 27.4084 368.494 22.1579 368.494 14.6463 368.494 7.10961 373.493 1.85905 380.653 1.85905 386.331 1.85905 390.903 5.40129 392.033 10.7021 392.209 11.506 392.209 12.3099 392.109 13.0887 392.134 13.3651 392.159 13.6414 392.159 13.9177L392.159 19.721C392.159 22.4091 390.526 24.8459 388.039 25.8508 385.401 26.906 383.014 27.4084 380.653 27.4084Z" fill="#003F5C" fill-rule="nonzero" fill-opacity="1" transform="matrix(1 0 0 1.00255 61.7402 466)"/><path d="M283.53 39.442C282.827 39.442 282.249 39.3918 281.822 39.2661 281.395 39.1405 281.068 38.9647 280.842 38.7386 280.616 38.5125 280.465 38.2361 280.39 37.9347 280.315 37.6332 280.289 37.3066 280.289 36.9046 280.289 36.6032 280.315 36.3017 280.39 36.0002 280.465 35.6988 280.616 35.4476 280.842 35.1963 281.068 34.9702 281.395 34.7692 281.822 34.6185 282.249 34.4678 282.827 34.3924 283.53 34.3924L433.385 34.3673C434.088 34.3673 434.666 34.4427 435.093 34.5934 435.52 34.7441 435.847 34.9451 436.073 35.1712 436.299 35.3973 436.45 35.6737 436.525 35.9751 436.6 36.2766 436.625 36.5781 436.625 36.8795 436.625 37.2564 436.6 37.6081 436.525 37.8844 436.45 38.1859 436.299 38.4371 436.073 38.6883 435.847 38.9144 435.52 39.0903 435.093 39.2159 434.666 39.3415 434.088 39.3918 433.385 39.3918L283.53 39.442Z" fill="#166A79" fill-rule="nonzero" fill-opacity="1" transform="matrix(1 0 0 1.00255 61.7402 466)"/><path d="M283.53 44.9438 283.53 44.9438C282.274 44.9438 281.219 44.8182 280.289 44.5418 278.983 44.165 277.827 43.5118 276.923 42.6074 275.968 41.6528 275.315 40.472 275.014 39.1908 274.838 38.4873 274.762 37.7086 274.762 36.9046 274.762 36.1761 274.838 35.4476 275.014 34.7441 275.315 33.4629 275.968 32.2821 276.898 31.3526 277.727 30.5236 278.757 29.8955 279.963 29.4684 281.018 29.0916 282.174 28.9158 283.505 28.9158L433.359 28.8906C434.691 28.8906 435.847 29.0665 436.877 29.4182 438.133 29.8453 439.163 30.4985 439.967 31.3275 440.896 32.257 441.524 33.4126 441.851 34.6688 442.027 35.3973 442.127 36.151 442.127 36.8795 442.127 37.7086 442.052 38.4622 441.876 39.1656 441.574 40.4469 440.921 41.6025 440.017 42.532 439.062 43.4867 437.932 44.1399 436.6 44.5167 435.696 44.793 434.616 44.9187 433.385 44.9187L283.53 44.9438ZM283.153 33.89C283.153 33.89 283.153 33.89 283.153 33.89 283.153 33.89 283.153 33.89 283.153 33.89Z" fill="#FFFFFF" fill-rule="nonzero" fill-opacity="1" transform="matrix(1 0 0 1.00255 61.7402 466)"/><path d="M437.027 32.8348C436.877 32.5836 436.776 32.2821 436.701 31.9556 436.625 31.6038 436.625 31.2773 436.676 30.9255 436.726 30.5738 436.826 30.2472 437.002 29.9458 437.153 29.6443 437.404 29.3931 437.731 29.2172 438.309 28.8906 438.912 28.8153 439.514 28.9409 440.117 29.0916 440.67 29.4936 441.147 30.197 441.65 30.9507 442.102 31.5285 442.479 31.9556 442.856 32.3826 443.207 32.6841 443.559 32.8851 443.911 33.0861 444.263 33.2117 444.639 33.2619 445.016 33.3122 445.468 33.3373 445.996 33.3373L446.423 33.3373C447.277 33.3373 447.93 33.6136 448.332 34.1914 448.734 34.7692 448.935 35.4978 448.935 36.3771 448.935 37.2564 448.734 37.9849 448.332 38.5376 447.93 39.0903 447.302 39.3666 446.423 39.3666L446.046 39.3666C445.468 39.3666 444.966 39.4169 444.539 39.5425 444.112 39.6681 443.735 39.8942 443.358 40.1957 443.006 40.4971 442.63 40.9242 442.253 41.4518 441.876 41.9793 441.449 42.6828 440.972 43.5118 440.57 44.2404 440.092 44.6674 439.514 44.793 438.937 44.9187 438.409 44.8684 437.882 44.6423 437.48 44.4665 437.178 44.1901 437.002 43.8133 436.801 43.4364 436.701 43.0596 436.701 42.6576 436.726 41.9793 436.877 41.3764 437.178 40.874 437.63 40.0198 438.108 39.1908 438.635 38.4622 439.163 37.7337 439.665 37.1559 440.193 36.7288 439.891 36.5027 439.59 36.2263 439.263 35.8998 438.962 35.5732 438.66 35.2466 438.384 34.8697 438.108 34.4929 437.856 34.1412 437.605 33.7644 437.379 33.4629 437.178 33.1363 437.027 32.8348Z" fill="#166A79" fill-rule="nonzero" fill-opacity="1" transform="matrix(1 0 0 1.00255 61.7402 466)"/><path d="M438.912 50.3953C437.781 50.3953 436.676 50.1692 435.646 49.717 434.063 48.9885 432.882 47.858 432.103 46.4009 431.475 45.2201 431.174 43.964 431.174 42.6828 431.174 42.6325 431.174 42.5572 431.174 42.5069 431.224 40.9493 431.601 39.5174 432.329 38.2612 432.556 37.809 432.807 37.382 433.033 36.98 433.008 36.9298 432.983 36.8795 432.932 36.8293 432.606 36.3268 432.355 35.8998 432.154 35.5229 431.752 34.7944 431.45 33.9653 431.249 33.0861 431.048 32.0812 431.023 31.1265 431.149 30.197 431.299 29.1921 431.601 28.2375 432.078 27.3582 432.706 26.1774 433.711 25.1223 434.967 24.4189 436.776 23.414 438.736 23.1376 440.645 23.5647 442.027 23.8913 444.011 24.7455 445.619 27.0567 445.845 27.3833 446.021 27.6345 446.172 27.8355L446.348 27.8355C449.036 27.8355 451.297 28.966 452.754 31.0009 453.834 32.5082 454.387 34.3673 454.387 36.4022 454.387 38.5125 453.809 40.3464 452.679 41.8537 451.272 43.763 449.086 44.8433 446.549 44.8935 446.348 45.195 446.071 45.6472 445.72 46.2753 444.564 48.3604 442.78 49.7673 440.67 50.2195 440.117 50.3199 439.514 50.3953 438.912 50.3953ZM445.293 27.8104C445.293 27.8104 445.293 27.8104 445.293 27.8104 445.293 27.8104 445.293 27.8104 445.293 27.8104Z" fill="#FFFFFF" fill-rule="nonzero" fill-opacity="1" transform="matrix(1 0 0 1.00255 61.7402 466)"/><path d="M314.104 39.442 282.249 39.442 282.249 34.518 314.104 34.518 314.104 39.442ZM292.449 28.0114C286.62 28.0114 283.003 23.2381 283.003 17.7615L283.003 16.9073C283.003 11.4306 286.62 6.60716 292.449 6.60716L303.955 6.60716C309.783 6.60716 313.401 11.4306 313.401 16.9073L313.401 17.7866C313.401 23.2632 309.783 28.0114 303.955 28.0114L292.449 28.0114ZM301.895 23.0371C305.512 23.0371 307.497 20.6254 307.497 17.7363L307.497 16.9827C307.497 14.0936 305.512 11.5814 301.895 11.5814L294.509 11.5814C290.891 11.5814 288.906 14.0685 288.906 16.9575L288.906 17.7615C288.906 20.6505 290.891 23.0623 294.509 23.0623L301.895 23.0623Z" fill="#166A79" fill-rule="nonzero" fill-opacity="1" transform="matrix(1 0 0 1.00255 61.7402 466)"/><path d="M314.104 44.9438 282.249 44.9438C279.209 44.9438 276.722 42.4818 276.722 39.4169L276.722 34.4929C276.722 31.6038 278.933 29.2423 281.772 28.9911 279.109 26.1774 277.501 22.2332 277.501 17.7363L277.501 16.9073C277.501 7.8884 283.932 1.10538 292.449 1.10538L303.955 1.10538C312.496 1.10538 318.927 7.8884 318.927 16.9073L318.927 17.7866C318.927 22.2583 317.32 26.2025 314.657 29.0162 317.445 29.2926 319.631 31.6541 319.631 34.518L319.631 39.442C319.606 42.4818 317.144 44.9438 314.104 44.9438ZM294.433 17.5354C294.458 17.5354 294.483 17.5354 294.534 17.5354L301.92 17.5354C301.945 17.5354 301.97 17.5354 301.995 17.5354L301.995 17.1083C301.97 17.1083 301.945 17.1083 301.895 17.1083L294.509 17.1083C294.483 17.1083 294.458 17.1083 294.433 17.1083L294.433 17.5354Z" fill="#FFFFFF" fill-rule="nonzero" fill-opacity="1" transform="matrix(1 0 0 1.00255 61.7402 466)"/><path d="M351.963 39.442 318.35 39.442 318.35 34.4175 351.963 34.4175 351.963 39.442ZM345.557 18.289 345.557 20.9017C345.557 21.3539 345.507 21.781 345.482 22.2583 348.496 24.2681 350.783 27.1572 351.285 31.629L345.934 32.7846C345.808 30.9758 344.929 29.0162 343.522 27.7853 341.839 30.2472 339.101 32.257 334.88 32.8348L334.88 31.7295 329.931 32.8097C329.881 31.0511 329.353 29.1167 327.946 27.9109 326.163 30.3728 323.249 32.3826 319.128 32.9604L319.128 27.4838C321.616 27.1823 324.731 25.1223 324.731 21.0022L324.731 18.289 330.308 18.289 330.308 20.8013C330.308 21.3539 330.258 21.9066 330.182 22.4844 332.544 24.0672 334.152 26.2277 334.88 29.2172L334.88 27.4587C337.367 27.2326 339.955 25.0972 339.955 21.0525L339.955 18.289 345.557 18.289ZM350.833 41.6276 350.833 48.8629C350.833 51.149 350.707 53.1336 350.33 54.8671L344.226 54.8671C344.577 53.2844 344.678 51.35 344.678 49.6919L344.678 46.8028 319.505 46.8028 319.505 41.6025 350.833 41.6025Z" fill="#166A79" fill-rule="nonzero" fill-opacity="1" transform="matrix(1 0 0 1.00255 61.7402 466)"/><path d="M350.33 60.394 344.226 60.394C342.568 60.394 340.985 59.6403 339.93 58.334 338.875 57.0276 338.473 55.3193 338.849 53.6863 338.925 53.3095 339 52.8322 339.05 52.3297L319.53 52.3297C316.491 52.3297 314.003 49.8677 314.003 46.8028L314.003 42.7833C313.275 41.8537 312.848 40.673 312.848 39.4169L312.848 34.4175C312.848 33.3875 313.124 32.4329 313.602 31.6038L313.602 27.4335C313.602 24.645 315.687 22.3086 318.425 21.9569 319.204 21.8564 319.204 21.2032 319.204 20.952L319.204 18.289C319.204 15.2492 321.666 12.7621 324.731 12.7621L330.308 12.7621C332.393 12.7621 334.202 13.9177 335.131 15.6261 336.061 13.9177 337.87 12.7621 339.955 12.7621L345.532 12.7621C348.572 12.7621 351.059 15.2241 351.059 18.289L351.059 19.6456C354.325 22.6352 356.234 26.4538 356.762 31.026 356.787 31.2773 356.787 31.5285 356.787 31.7797 357.214 32.5585 357.465 33.488 357.465 34.4427L357.465 39.442C357.465 40.6981 357.038 41.8789 356.309 42.8084L356.309 48.888C356.309 51.9026 356.108 54.1134 355.681 56.0981 355.154 58.5852 352.918 60.394 350.33 60.394Z" fill="#FFFFFF" fill-rule="nonzero" fill-opacity="1" transform="matrix(1 0 0 1.00255 61.7402 466)"/><path d="M375.302 23.3637 375.302 34.5934 380.151 34.5934 380.151 23.0371 385.476 23.0371 385.476 54.7917 380.151 54.7917 380.151 39.1405 375.302 39.1405 375.302 48.8377C375.302 50.4456 374.247 51.7519 372.614 51.7519L359.927 51.7519C358.294 51.7519 357.239 50.4456 357.239 48.8126L357.239 23.3637 362.565 23.3637 362.565 32.86 369.951 32.86 369.951 23.3637 375.302 23.3637ZM369.976 37.4071 362.59 37.4071 362.59 47.2048 369.976 47.2048 369.976 37.4071Z" fill="#166A79" fill-rule="nonzero" fill-opacity="1" transform="matrix(1 0 0 1.00255 61.7402 466)"/><path d="M385.476 60.2935 380.151 60.2935C377.864 60.2935 375.88 58.8867 375.051 56.8769 374.297 57.103 373.468 57.2286 372.614 57.2286L359.927 57.2286C355.33 57.2286 351.712 53.5105 351.712 48.7624L351.712 23.3637C351.712 20.3239 354.174 17.8368 357.239 17.8368L362.565 17.8368C363.997 17.8368 365.278 18.3644 366.258 19.2688 367.238 18.3895 368.519 17.8368 369.951 17.8368L375.277 17.8368C376.005 17.8368 376.709 17.9876 377.362 18.2388 378.166 17.7615 379.12 17.5102 380.125 17.5102L385.451 17.5102C388.491 17.5102 390.978 19.9722 390.978 23.0371L390.978 54.7917C391.003 57.8315 388.516 60.2935 385.476 60.2935Z" fill="#FFFFFF" fill-rule="nonzero" fill-opacity="1" transform="matrix(1 0 0 1.00255 61.7402 466)"/><path d="M421.075 39.442 390.275 39.442 390.275 34.6688 421.075 34.6688 421.075 39.442ZM408.463 7.6623 408.463 15.0734C408.463 15.3497 408.438 15.6261 408.388 15.9275 413.839 16.8571 418.889 20.9771 420.673 26.5543L414.97 27.7853C414.141 24.7957 410.85 21.4042 406.504 20.8264 403.765 24.645 398.314 27.534 391.003 27.7853L391.003 22.8362C398.841 22.3337 402.761 18.0378 402.761 15.0985L402.761 7.6623 408.463 7.6623Z" fill="#166A79" fill-rule="nonzero" fill-opacity="1" transform="matrix(1 0 0 1.00255 61.7402 466)"/><path d="M421.075 44.9438 390.275 44.9438C387.235 44.9438 384.748 42.4818 384.748 39.4169L384.748 34.6436C384.748 33.1112 385.376 31.7546 386.356 30.7497 385.778 29.8704 385.476 28.8404 385.476 27.7601L385.476 22.8362C385.476 19.922 387.737 17.5102 390.652 17.3344 394.948 17.058 396.832 15.3497 397.234 14.7217L397.234 7.6623C397.234 4.6225 399.696 2.13539 402.761 2.13539L408.463 2.13539C411.503 2.13539 413.99 4.59738 413.99 7.6623L413.99 11.8577C419.592 14.2443 424.064 18.9925 425.948 24.8711 426.426 26.3533 426.25 27.9611 425.471 29.3177 425.22 29.7197 424.944 30.1216 424.617 30.4482 425.823 31.4531 426.602 32.9856 426.602 34.6939L426.602 39.4671C426.576 42.4818 424.115 44.9438 421.075 44.9438ZM405.549 29.1419 409.644 29.1419C409.443 28.6143 408.89 27.8606 408.086 27.2326 407.283 27.936 406.428 28.564 405.549 29.1419Z" fill="#FFFFFF" fill-rule="nonzero" fill-opacity="1" transform="matrix(1 0 0 1.00255 61.7402 466)"/><path d="M364.977 8.66719 364.977 10.5514 358.746 10.5514 358.746 13.4907 364.65 13.4907 364.65 15.3497 358.746 15.3497 358.746 18.7161 365.127 18.7161 365.127 20.6254 357.641 20.6254C356.963 20.6254 356.536 20.1481 356.536 19.3944L356.536 8.66719 364.977 8.66719Z" fill="#B8D200" fill-rule="nonzero" fill-opacity="1" transform="matrix(1 0 0 1.00255 61.7402 466)"/><path d="M365.127 26.1523 357.641 26.1523C353.923 26.1523 351.009 23.1879 351.009 19.4195L351.009 8.66719C351.009 5.62739 353.471 3.14029 356.536 3.14029L365.002 3.14029C368.042 3.14029 370.529 5.60227 370.529 8.66719L370.529 10.5514C370.529 11.2799 370.378 11.9833 370.127 12.6114 370.177 12.8877 370.202 13.1892 370.202 13.4907L370.202 15.3497C370.202 15.6763 370.177 15.9778 370.127 16.3044 370.478 17.0329 370.679 17.8619 370.679 18.7161L370.679 20.6254C370.654 23.6903 368.192 26.1523 365.127 26.1523Z" fill="#FFFFFF" fill-rule="nonzero" fill-opacity="1" transform="matrix(1 0 0 1.00255 61.7402 466)"/><path d="M374.397 12.2346 372.237 12.2346C372.011 10.9282 371.182 10.3253 369.976 10.3253 368.494 10.3253 367.941 11.0789 367.941 11.9582 367.941 12.7872 368.72 13.2646 369.85 13.566 372.312 14.2192 374.523 15.0231 374.523 17.2339 374.523 19.5451 372.639 20.8013 369.85 20.8013 367.388 20.8013 365.58 19.5451 365.228 16.631L367.489 16.631C367.665 18.0127 368.343 18.8166 369.85 18.8166 371.081 18.8166 372.287 18.5905 372.287 17.3344 372.287 16.6561 371.433 16.1285 370.277 15.8019 368.393 15.2995 365.63 14.5458 365.63 12.0336 365.63 9.59671 367.589 8.46621 369.976 8.46621 372.011 8.49133 373.945 9.37061 374.397 12.2346" fill="#8FD3F5" fill-rule="nonzero" fill-opacity="1" transform="matrix(1 0 0 1.00255 61.7402 466)"/><path d="M369.85 26.3282C364.374 26.3282 360.43 22.7859 359.751 17.3093 359.626 16.1788 359.827 15.0734 360.329 14.0936 360.178 13.4655 360.103 12.7872 360.103 12.0587 360.103 6.80814 364.248 2.98955 369.976 2.98955 375.176 2.98955 379.045 6.30569 379.824 11.4055 379.975 12.3853 379.849 13.3399 379.522 14.2443 379.849 15.1236 380.05 16.1034 380.05 17.259 380.05 22.5849 375.855 26.3282 369.85 26.3282Z" fill="#FFFFFF" fill-rule="nonzero" fill-opacity="1" transform="matrix(1 0 0 1.00255 61.7402 466)"/><path d="M385.527 12.0587 383.316 12.0587C383.014 11.0538 382.211 10.4509 380.703 10.4509 377.764 10.4509 377.337 12.7119 377.337 14.6463 377.337 16.5556 377.739 18.7915 380.703 18.7915 382.085 18.7915 382.688 18.4649 383.316 18.0629L383.316 15.8773 380.552 15.8773 380.552 13.9177 385.527 13.9177 385.527 19.721C383.793 20.4244 382.211 20.8013 380.678 20.8013 376.809 20.8013 375.126 17.9876 375.126 14.6463 375.126 11.305 376.784 8.49133 380.653 8.49133 383.14 8.46621 385.024 9.74745 385.527 12.0587" fill="#FBC311" fill-rule="nonzero" fill-opacity="1" transform="matrix(1 0 0 1.00255 61.7402 466)"/><path d="M380.653 26.303C374.146 26.303 369.599 21.5047 369.599 14.6463 369.599 7.76279 374.146 2.96443 380.653 2.96443 385.878 2.96443 389.923 6.07959 390.953 10.9282 391.104 11.6316 391.104 12.3602 390.978 13.0636 391.028 13.3399 391.054 13.6163 391.054 13.9177L391.054 19.721C391.054 21.9569 389.697 23.9918 387.612 24.8208 385.125 25.8257 382.864 26.303 380.653 26.303Z" fill="#FFFFFF" fill-rule="nonzero" fill-opacity="1" transform="matrix(1 0 0 1.00255 61.7402 466)"/><path d="M291.017 12.6365 307.522 12.6365 307.522 23.0371 291.017 23.0371Z" fill="#FFFFFF" fill-rule="nonzero" fill-opacity="1" transform="matrix(1 0 0 1.00255 61.7402 466)"/><path d="M400.952 24.1676 421.075 24.1676 421.075 34.6688 400.952 34.6688Z" fill="#FFFFFF" fill-rule="nonzero" fill-opacity="1" transform="matrix(1 0 0 1.00255 61.7402 466)"/><path d="M283.53 39.442C282.827 39.442 282.249 39.3918 281.822 39.2661 281.395 39.1405 281.068 38.9647 280.842 38.7386 280.616 38.5125 280.465 38.2361 280.39 37.9347 280.315 37.6332 280.289 37.3066 280.289 36.9046 280.289 36.6032 280.315 36.3017 280.39 36.0002 280.465 35.6988 280.616 35.4476 280.842 35.1963 281.068 34.9702 281.395 34.7692 281.822 34.6185 282.249 34.4678 282.827 34.3924 283.53 34.3924L433.385 34.3673C434.088 34.3673 434.666 34.4427 435.093 34.5934 435.52 34.7441 435.847 34.9451 436.073 35.1712 436.299 35.3973 436.45 35.6737 436.525 35.9751 436.6 36.2766 436.625 36.5781 436.625 36.8795 436.625 37.2564 436.6 37.6081 436.525 37.8844 436.45 38.1859 436.299 38.4371 436.073 38.6883 435.847 38.9144 435.52 39.0903 435.093 39.2159 434.666 39.3415 434.088 39.3918 433.385 39.3918L283.53 39.442Z" fill="#003F5C" fill-rule="nonzero" fill-opacity="1" transform="matrix(1 0 0 1.00255 61.7402 466)"/><path d="M437.027 32.8348C436.877 32.5836 436.776 32.2821 436.701 31.9556 436.625 31.6038 436.625 31.2773 436.676 30.9255 436.726 30.5738 436.826 30.2472 437.002 29.9458 437.153 29.6443 437.404 29.3931 437.731 29.2172 438.309 28.8906 438.912 28.8153 439.514 28.9409 440.117 29.0916 440.67 29.4936 441.147 30.197 441.65 30.9507 442.102 31.5285 442.479 31.9556 442.856 32.3826 443.207 32.6841 443.559 32.8851 443.911 33.0861 444.263 33.2117 444.639 33.2619 445.016 33.3122 445.468 33.3373 445.996 33.3373L446.423 33.3373C447.277 33.3373 447.93 33.6136 448.332 34.1914 448.734 34.7692 448.935 35.4978 448.935 36.3771 448.935 37.2564 448.734 37.9849 448.332 38.5376 447.93 39.0903 447.302 39.3666 446.423 39.3666L446.046 39.3666C445.468 39.3666 444.966 39.4169 444.539 39.5425 444.112 39.6681 443.735 39.8942 443.358 40.1957 443.006 40.4971 442.63 40.9242 442.253 41.4518 441.876 41.9793 441.449 42.6828 440.972 43.5118 440.57 44.2404 440.092 44.6674 439.514 44.793 438.937 44.9187 438.409 44.8684 437.882 44.6423 437.48 44.4665 437.178 44.1901 437.002 43.8133 436.801 43.4364 436.701 43.0596 436.701 42.6576 436.726 41.9793 436.877 41.3764 437.178 40.874 437.63 40.0198 438.108 39.1908 438.635 38.4622 439.163 37.7337 439.665 37.1559 440.193 36.7288 439.891 36.5027 439.59 36.2263 439.263 35.8998 438.962 35.5732 438.66 35.2466 438.384 34.8697 438.108 34.4929 437.856 34.1412 437.605 33.7644 437.379 33.4629 437.178 33.1363 437.027 32.8348Z" fill="#003F5C" fill-rule="nonzero" fill-opacity="1" transform="matrix(1 0 0 1.00255 61.7402 466)"/><path d="M314.104 39.442 282.249 39.442 282.249 34.518 314.104 34.518 314.104 39.442ZM292.449 28.0114C286.62 28.0114 283.003 23.2381 283.003 17.7615L283.003 16.9073C283.003 11.4306 286.62 6.60716 292.449 6.60716L303.955 6.60716C309.783 6.60716 313.401 11.4306 313.401 16.9073L313.401 17.7866C313.401 23.2632 309.783 28.0114 303.955 28.0114L292.449 28.0114ZM301.895 23.0371C305.512 23.0371 307.497 20.6254 307.497 17.7363L307.497 16.9827C307.497 14.0936 305.512 11.5814 301.895 11.5814L294.509 11.5814C290.891 11.5814 288.906 14.0685 288.906 16.9575L288.906 17.7615C288.906 20.6505 290.891 23.0623 294.509 23.0623L301.895 23.0623Z" fill="#003F5C" fill-rule="nonzero" fill-opacity="1" transform="matrix(1 0 0 1.00255 61.7402 466)"/><path d="M351.963 39.442 318.35 39.442 318.35 34.4175 351.963 34.4175 351.963 39.442ZM345.557 18.289 345.557 20.9017C345.557 21.3539 345.507 21.781 345.482 22.2583 348.496 24.2681 350.783 27.1572 351.285 31.629L345.934 32.7846C345.808 30.9758 344.929 29.0162 343.522 27.7853 341.839 30.2472 339.101 32.257 334.88 32.8348L334.88 31.7295 329.931 32.8097C329.881 31.0511 329.353 29.1167 327.946 27.9109 326.163 30.3728 323.249 32.3826 319.128 32.9604L319.128 27.4838C321.616 27.1823 324.731 25.1223 324.731 21.0022L324.731 18.289 330.308 18.289 330.308 20.8013C330.308 21.3539 330.258 21.9066 330.182 22.4844 332.544 24.0672 334.152 26.2277 334.88 29.2172L334.88 27.4587C337.367 27.2326 339.955 25.0972 339.955 21.0525L339.955 18.289 345.557 18.289ZM350.833 41.6276 350.833 48.8629C350.833 51.149 350.707 53.1336 350.33 54.8671L344.226 54.8671C344.577 53.2844 344.678 51.35 344.678 49.6919L344.678 46.8028 319.505 46.8028 319.505 41.6025 350.833 41.6025Z" fill="#003F5C" fill-rule="nonzero" fill-opacity="1" transform="matrix(1 0 0 1.00255 61.7402 466)"/><path d="M375.302 23.3637 375.302 34.5934 380.151 34.5934 380.151 23.0371 385.476 23.0371 385.476 54.7917 380.151 54.7917 380.151 39.1405 375.302 39.1405 375.302 48.8377C375.302 50.4456 374.247 51.7519 372.614 51.7519L359.927 51.7519C358.294 51.7519 357.239 50.4456 357.239 48.8126L357.239 23.3637 362.565 23.3637 362.565 32.86 369.951 32.86 369.951 23.3637 375.302 23.3637ZM369.976 37.4071 362.59 37.4071 362.59 47.2048 369.976 47.2048 369.976 37.4071Z" fill="#003F5C" fill-rule="nonzero" fill-opacity="1" transform="matrix(1 0 0 1.00255 61.7402 466)"/><path d="M421.075 39.442 390.275 39.442 390.275 34.6688 421.075 34.6688 421.075 39.442ZM408.463 7.6623 408.463 15.0734C408.463 15.3497 408.438 15.6261 408.388 15.9275 413.839 16.8571 418.889 20.9771 420.673 26.5543L414.97 27.7853C414.141 24.7957 410.85 21.4042 406.504 20.8264 403.765 24.645 398.314 27.534 391.003 27.7853L391.003 22.8362C398.841 22.3337 402.761 18.0378 402.761 15.0985L402.761 7.6623 408.463 7.6623Z" fill="#003F5C" fill-rule="nonzero" fill-opacity="1" transform="matrix(1 0 0 1.00255 61.7402 466)"/><path d="M364.977 8.66719 364.977 10.5514 358.746 10.5514 358.746 13.4907 364.65 13.4907 364.65 15.3497 358.746 15.3497 358.746 18.7161 365.127 18.7161 365.127 20.6254 357.641 20.6254C356.963 20.6254 356.536 20.1481 356.536 19.3944L356.536 8.66719 364.977 8.66719Z" fill="#B8D200" fill-rule="nonzero" fill-opacity="1" transform="matrix(1 0 0 1.00255 61.7402 466)"/><path d="M374.397 12.2346 372.237 12.2346C372.011 10.9282 371.182 10.3253 369.976 10.3253 368.494 10.3253 367.941 11.0789 367.941 11.9582 367.941 12.7872 368.72 13.2646 369.85 13.566 372.312 14.2192 374.523 15.0231 374.523 17.2339 374.523 19.5451 372.639 20.8013 369.85 20.8013 367.388 20.8013 365.58 19.5451 365.228 16.631L367.489 16.631C367.665 18.0127 368.343 18.8166 369.85 18.8166 371.081 18.8166 372.287 18.5905 372.287 17.3344 372.287 16.6561 371.433 16.1285 370.277 15.8019 368.393 15.2995 365.63 14.5458 365.63 12.0336 365.63 9.59671 367.589 8.46621 369.976 8.46621 372.011 8.49133 373.945 9.37061 374.397 12.2346" fill="#8FD3F5" fill-rule="nonzero" fill-opacity="1" transform="matrix(1 0 0 1.00255 61.7402 466)"/><path d="M385.527 12.0587 383.316 12.0587C383.014 11.0538 382.211 10.4509 380.703 10.4509 377.764 10.4509 377.337 12.7119 377.337 14.6463 377.337 16.5556 377.739 18.7915 380.703 18.7915 382.085 18.7915 382.688 18.4649 383.316 18.0629L383.316 15.8773 380.552 15.8773 380.552 13.9177 385.527 13.9177 385.527 19.721C383.793 20.4244 382.211 20.8013 380.678 20.8013 376.809 20.8013 375.126 17.9876 375.126 14.6463 375.126 11.305 376.784 8.49133 380.653 8.49133 383.14 8.46621 385.024 9.74745 385.527 12.0587" fill="#FBC311" fill-rule="nonzero" fill-opacity="1" transform="matrix(1 0 0 1.00255 61.7402 466)"/><path d="M515.71 48.6619C514.304 48.6619 512.947 48.0841 511.967 47.0792 510.987 46.0743 510.435 44.7177 510.46 43.3108L510.485 42.105 510.585 28.1872 510.51 21.6554 510.485 17.1083 510.46 16.43C510.435 15.0231 510.962 13.6414 511.967 12.6114 512.972 11.5814 514.329 11.0287 515.735 11.0287L524.805 11.0287C528.824 11.0287 531.864 11.2045 534.1 11.5814 536.688 12.0085 538.974 12.8375 540.858 14.0434 543.42 15.6763 545.455 17.9373 546.837 20.7761 547.917 22.9869 548.47 25.3484 548.47 27.7853 548.47 30.398 547.867 32.9102 546.661 35.2466 545.229 38.0854 543.119 40.3213 540.456 41.8789 538.27 43.1601 535.783 43.8886 533.095 44.0896 532.768 46.6772 530.558 48.6619 527.87 48.6619L515.71 48.6619ZM532.995 32.2068C533.321 32.1314 533.623 32.0309 533.949 31.9053 534.577 31.629 535.08 31.2521 535.482 30.7748 536.235 29.8704 536.587 28.966 536.587 27.7853 536.587 26.705 536.235 25.8006 535.456 24.8711 534.954 24.2681 534.326 23.8662 533.472 23.5647 533.346 23.5145 533.221 23.4893 533.045 23.4391L532.995 32.2068Z" fill="#003F5C" fill-rule="nonzero" fill-opacity="1" transform="matrix(1 0 0 1.00255 61.7402 466)"/><path d="M545.681 48.6619C544.274 48.6619 542.918 48.0841 541.913 47.0792 540.933 46.0743 540.38 44.6926 540.406 43.2857L540.431 42.2557 540.456 35.7239 540.531 28.564 540.38 16.3546C540.355 14.9478 540.908 13.5912 541.888 12.5863 542.868 11.5814 544.224 11.0287 545.631 11.0287L566.658 11.0287C568.266 11.0287 568.97 11.0789 569.774 11.305 572.236 11.9331 573.994 14.2443 573.994 17.0078 573.994 18.1383 573.718 19.1683 573.19 20.0225 574.321 21.1027 574.949 22.6101 574.949 24.2933 574.949 27.3079 572.688 30.3477 568.367 30.3477L566.633 30.2975 562.915 30.2724 562.991 36.7539 569.221 36.6785C573.492 36.6785 575.702 39.6932 575.702 42.6576 575.702 45.6723 573.542 48.1343 570.527 48.5363 570.402 48.5614 569.648 48.6116 568.241 48.6116 568.216 48.6116 568.191 48.6116 568.166 48.6116L545.681 48.6116Z" fill="#003F5C" fill-rule="nonzero" fill-opacity="1" transform="matrix(1 0 0 1.00255 61.7402 466)"/><path d="M577.561 48.6619C576.155 48.6619 574.823 48.1092 573.818 47.1043 572.813 46.0994 572.286 44.7679 572.286 43.3611L572.411 27.534 572.361 23.012C572.361 23.012 570.804 23.0623 570.804 23.0623 567.085 23.0623 564.397 20.4998 564.397 17.0832 564.397 14.0936 566.382 11.707 569.246 11.1794 569.748 11.0789 570.276 11.0538 571.055 11.0287L595.549 11.0287C597.157 11.0538 598.111 11.1543 599.091 11.5563 601.302 12.4355 602.709 14.5709 602.709 17.0832 602.709 19.9722 600.498 23.0371 596.428 23.0371L594.921 22.9869 594.846 29.795 594.896 43.3611C594.896 44.7679 594.343 46.0994 593.363 47.1043 592.384 48.1092 591.027 48.6619 589.62 48.6619L577.561 48.6619Z" fill="#003F5C" fill-rule="nonzero" fill-opacity="1" transform="matrix(1 0 0 1.00255 61.7402 466)"/><path d="M597.911 49.0387C594.419 49.0387 591.781 46.5265 591.781 43.1852 591.781 42.3311 591.931 41.703 592.559 39.643L600.121 13.8926C600.699 11.9331 602.332 10.5011 604.342 10.1745 604.618 10.1243 604.894 10.0992 605.171 10.0992 606.879 10.0992 608.512 10.9282 609.517 12.3853L615.948 21.7057 622.028 12.4607C623.008 10.9784 624.666 10.0992 626.424 10.0992 626.676 10.0992 626.952 10.1243 627.203 10.1494 629.238 10.4509 630.896 11.908 631.474 13.8675L635.795 28.6645 639.513 41.1252 639.714 41.8035C640.216 43.4113 639.94 45.1448 638.935 46.5014 637.955 47.858 636.373 48.6619 634.69 48.6619L622.631 48.6619C620.244 48.6619 618.159 47.0792 617.556 44.7679L616.802 41.9542 615.044 44.6172C614.089 46.0492 612.481 46.9284 610.748 46.9787 610.723 46.9787 610.698 46.9787 610.648 46.9787 608.964 46.9787 607.356 46.1748 606.377 44.793L604.593 42.3059C604.141 44.366 603.864 45.1196 603.538 45.7477 602.458 47.7826 600.347 49.0387 597.911 49.0387Z" fill="#003F5C" fill-rule="nonzero" fill-opacity="1" transform="matrix(1 0 0 1.00255 61.7402 466)"/><path d="M649.612 49.4658C646.246 49.4658 643.005 48.6116 640.041 46.9284 636.096 44.7177 633.232 41.5271 631.524 37.4825 630.494 35.0456 629.966 32.458 629.966 29.8202 629.966 26.504 630.796 23.3386 632.429 20.3491 634.438 16.6561 637.428 13.8675 641.297 12.0587 643.884 10.8528 646.673 10.2248 649.587 10.1996 652.451 10.1996 655.24 10.8026 657.852 12.0085 661.746 13.7921 664.761 16.5807 666.821 20.2988 668.454 23.2632 669.283 26.5291 669.283 29.9709 669.283 32.8097 668.655 35.5732 667.399 38.211 665.54 42.1552 662.6 45.1699 658.681 47.2048 655.817 48.7121 652.778 49.4658 649.612 49.4658ZM653.18 29.7699 653.255 36.8042C653.556 36.6534 653.858 36.4524 654.134 36.2515 655.39 35.3722 656.295 34.2668 656.847 32.8851 657.249 31.8802 657.45 30.8753 657.45 29.795 657.45 28.3882 657.124 27.1321 656.445 25.9262 655.642 24.4942 654.612 23.5145 653.23 22.8362L653.18 29.7699Z" fill="#003F5C" fill-rule="nonzero" fill-opacity="1" transform="matrix(1 0 0 1.00255 61.7402 466)"/><path d="M691.968 49.7673C690.989 49.7673 690.034 49.4909 689.18 48.9633 686.542 47.3053 682.573 44.9689 677.397 42.0045 675.739 41.0498 674.157 40.1705 672.7 39.3415L672.75 42.8586C672.75 46.426 670.137 49.0638 666.695 49.0638 663.228 49.0638 660.616 46.3506 660.616 42.7581L660.741 28.8906 660.591 15.2744C660.565 13.3399 661.596 11.5814 663.279 10.6267 664.083 10.1745 664.987 9.94843 665.866 9.94843 666.821 9.94843 667.801 10.1996 668.63 10.7272 672.574 13.1641 678.151 16.43 685.286 20.4747L685.261 17.0832C685.261 12.8877 688.351 10.677 691.265 10.677 693.3 10.677 695.109 11.6065 696.214 13.2143 696.943 14.2946 697.294 15.5758 697.294 17.1334L697.294 17.4097C697.269 17.8619 697.269 18.2639 697.269 18.7915L697.118 31.6541 697.169 38.01 697.244 44.4665C697.269 46.4009 696.239 48.1846 694.556 49.1141 693.752 49.5412 692.848 49.7673 691.968 49.7673Z" fill="#003F5C" fill-rule="nonzero" fill-opacity="1" transform="matrix(1 0 0 1.00255 61.7402 466)"/><path d="M515.71 47.5314C514.605 47.5314 513.525 47.0792 512.746 46.3004 511.967 45.4965 511.54 44.4413 511.54 43.3108L511.565 42.105 511.666 28.1872 511.59 21.6303 511.565 17.0832 511.54 16.3797C511.515 15.2492 511.942 14.169 512.721 13.3651 513.5 12.5611 514.58 12.1089 515.685 12.1089L524.754 12.1089C528.724 12.1089 531.688 12.2848 533.849 12.6365 536.311 13.0385 538.446 13.8173 540.205 14.9226 542.591 16.43 544.475 18.5403 545.782 21.2032 546.787 23.2632 547.289 25.4489 547.289 27.735 547.289 30.1719 546.711 32.5082 545.606 34.6939 544.274 37.3317 542.315 39.4169 539.828 40.874 537.517 42.2054 534.879 42.934 531.939 42.9842L531.939 43.3611C531.939 45.6472 530.08 47.5062 527.794 47.5062L515.71 47.5062ZM531.889 32.257 531.889 33.4378C532.768 33.4378 533.597 33.2619 534.376 32.9102 535.155 32.5585 535.783 32.1063 536.311 31.4782 537.24 30.398 537.667 29.2172 537.667 27.7601 537.667 26.4035 537.215 25.273 536.286 24.1174 535.657 23.3637 534.854 22.8362 533.824 22.4844 533.271 22.3086 532.643 22.1579 531.939 22.0322L531.889 32.257Z" fill="#FFFFFF" fill-rule="nonzero" fill-opacity="1" transform="matrix(1 0 0 1.00255 61.7402 466)"/><path d="M545.681 47.5314C544.576 47.5314 543.496 47.0792 542.717 46.2753 541.938 45.4713 541.511 44.3911 541.536 43.2857L541.561 42.2557 541.586 35.6988 541.662 28.564 541.511 16.3295C541.486 15.2241 541.938 14.1438 542.717 13.3651 543.496 12.5863 544.551 12.1341 545.681 12.1341L566.709 12.1341C568.316 12.1341 568.869 12.1843 569.497 12.3602 571.482 12.8626 572.939 14.7468 572.939 17.0078 572.939 18.2639 572.487 19.3944 571.708 20.2486 573.09 21.1278 573.894 22.6101 573.894 24.3184 573.894 26.7804 572.009 29.2675 568.417 29.2675L566.734 29.2172 561.86 29.167 561.961 37.8844 569.296 37.809C572.838 37.809 574.672 40.2459 574.672 42.6828 574.672 45.1699 572.939 47.1294 570.477 47.4811 570.351 47.5062 569.648 47.5314 568.342 47.5565 568.316 47.5565 568.316 47.5565 568.291 47.5565L545.681 47.5565Z" fill="#FFFFFF" fill-rule="nonzero" fill-opacity="1" transform="matrix(1 0 0 1.00255 61.7402 466)"/><path d="M577.561 47.5314C576.456 47.5314 575.401 47.0792 574.622 46.3004 573.843 45.5216 573.416 44.4413 573.416 43.3359L573.542 27.5089 573.466 21.8564C573.466 21.8564 570.778 21.9318 570.778 21.9318 567.714 21.9318 565.528 19.8466 565.528 17.058 565.528 14.6212 567.136 12.6616 569.472 12.2597 569.899 12.1843 570.376 12.1592 571.105 12.1341L595.549 12.1341C597.006 12.1592 597.835 12.2346 598.664 12.5863 600.448 13.3148 601.603 15.0483 601.603 17.0832 601.603 19.4949 599.82 21.9066 596.428 21.9066L594.544 21.8564 593.816 21.8564 593.79 23.9164 593.74 29.795 593.79 43.3862C593.79 44.4916 593.363 45.5467 592.585 46.3255 591.806 47.1043 590.751 47.5565 589.645 47.5565L577.561 47.5565Z" fill="#FFFFFF" fill-rule="nonzero" fill-opacity="1" transform="matrix(1 0 0 1.00255 61.7402 466)"/><path d="M597.911 47.9082C594.645 47.9082 592.886 45.4713 592.886 43.1601 592.886 42.4818 592.987 41.9793 593.615 39.9444L601.176 14.1941C601.629 12.6616 602.935 11.506 604.518 11.2548 604.744 11.2297 604.945 11.2045 605.171 11.2045 606.527 11.2045 607.809 11.8577 608.587 12.9882L615.948 23.6652 622.932 13.0636C623.711 11.8828 625.017 11.2045 626.399 11.2045 626.6 11.2045 626.801 11.2297 627.027 11.2548 628.635 11.506 629.941 12.6365 630.394 14.1941L634.715 28.9911 638.433 41.4518 638.659 42.1301C639.061 43.3862 638.835 44.7679 638.056 45.8482 637.277 46.9284 636.021 47.5565 634.715 47.5565L622.656 47.5565C620.772 47.5565 619.139 46.3004 618.636 44.4916L617.23 39.3164 614.114 44.0143C613.361 45.1448 612.079 45.8482 610.723 45.8733 610.698 45.8733 610.673 45.8733 610.648 45.8733 609.316 45.8733 608.06 45.2201 607.281 44.1399L604.065 39.6681C603.915 40.2459 603.789 40.8488 603.638 41.4769 603.111 43.8635 602.86 44.6674 602.558 45.2452 601.654 46.9033 599.92 47.9082 597.911 47.9082Z" fill="#FFFFFF" fill-rule="nonzero" fill-opacity="1" transform="matrix(1 0 0 1.00255 61.7402 466)"/><path d="M649.612 48.3604C646.447 48.3604 643.382 47.5565 640.568 45.9487 636.85 43.8635 634.137 40.8488 632.529 37.0303 631.549 34.719 631.047 32.2821 631.047 29.795 631.047 26.6799 631.826 23.6652 633.358 20.8766 635.267 17.4097 638.081 14.7719 641.724 13.0636 644.161 11.9331 646.798 11.3302 649.562 11.3302 652.275 11.3302 654.888 11.908 657.375 13.0385 661.043 14.7217 663.907 17.3595 665.841 20.8515 667.374 23.6401 668.178 26.7301 668.178 29.996 668.178 32.659 667.575 35.2717 666.419 37.7588 664.66 41.4769 661.897 44.3157 658.204 46.2501 655.466 47.657 652.577 48.3604 649.612 48.3604ZM652.074 29.7699 652.15 38.4622C653.079 38.1859 653.958 37.7588 654.762 37.181 656.194 36.1761 657.224 34.8949 657.852 33.3122 658.33 32.1565 658.531 31.026 658.531 29.795 658.531 28.2123 658.154 26.7552 657.4 25.3986 656.471 23.7406 655.189 22.5347 653.531 21.7559 653.079 21.5298 652.602 21.3539 652.15 21.2283L652.074 29.7699Z" fill="#FFFFFF" fill-rule="nonzero" fill-opacity="1" transform="matrix(1 0 0 1.00255 61.7402 466)"/><path d="M691.968 48.6619C691.19 48.6619 690.436 48.4609 689.758 48.0338 687.095 46.3757 683.125 44.0143 677.925 41.0498 675.614 39.7183 673.453 38.5125 671.519 37.4322L671.619 42.8837C671.619 45.7979 669.484 47.9585 666.67 47.9585 663.781 47.9585 661.696 45.7728 661.696 42.7581L661.822 28.9158 661.671 15.2744C661.646 13.767 662.475 12.3602 663.781 11.6065 664.409 11.2548 665.113 11.0789 665.816 11.0789 666.57 11.0789 667.349 11.2799 668.002 11.707 672.247 14.3448 678.427 17.9373 686.366 22.4342L686.316 17.1083C686.316 13.6163 688.778 11.8326 691.215 11.8326 692.898 11.8326 694.355 12.5863 695.259 13.8926 696.063 15.0734 696.164 16.3295 696.164 17.1836L696.164 17.46C696.139 17.8871 696.139 18.289 696.139 18.8417L695.988 31.7043 696.038 38.0854 696.114 44.5418C696.139 46.0492 695.31 47.4811 693.978 48.2097 693.375 48.486 692.672 48.6619 691.968 48.6619Z" fill="#FFFFFF" fill-rule="nonzero" fill-opacity="1" transform="matrix(1 0 0 1.00255 61.7402 466)"/><path d="M527.794 38.5125 527.794 39.0652 527.819 42.8837 527.819 43.3862 515.71 43.3862 515.735 42.1803 515.836 28.2375 515.761 21.6052 515.735 17.1083 515.71 16.3044 524.779 16.3044C528.472 16.3044 531.286 16.4551 533.195 16.7817 535.105 17.1083 536.713 17.661 538.019 18.49 539.778 19.5954 541.109 21.1278 542.064 23.0874 542.792 24.5947 543.144 26.1523 543.144 27.7853 543.144 29.5689 542.742 31.2521 541.913 32.86 540.933 34.7944 539.551 36.2766 537.743 37.3066 535.959 38.3366 533.874 38.8642 531.512 38.8642 530.683 38.8642 529.427 38.7386 527.794 38.5125ZM527.819 17.6358 527.819 18.9673 527.744 32.2319 527.794 37.181C528.849 37.4573 530.206 37.6081 531.864 37.6081 533.371 37.6081 534.778 37.3066 536.11 36.7037 537.441 36.1007 538.572 35.2717 539.501 34.1914 541.084 32.3575 541.863 30.2221 541.863 27.7853 541.863 25.474 541.084 23.3637 539.526 21.5047 538.421 20.1732 536.989 19.1934 535.23 18.5905 533.472 17.9876 531.211 17.6861 528.447 17.6861L527.819 17.6861Z" fill="#003F5C" fill-rule="nonzero" fill-opacity="1" transform="matrix(1 0 0 1.00255 61.7402 466)"/><path d="M557.715 24.9967C557.69 25.5996 557.665 26.3533 557.665 27.2074L557.665 28.3882 557.815 42.0798 564.548 42.0045 569.321 41.9542C570.1 41.9542 570.502 42.1803 570.502 42.6576 570.502 43.0596 570.301 43.2606 569.899 43.3108 569.799 43.3359 569.246 43.3359 568.241 43.3611L545.706 43.3611 545.732 42.3311 545.757 35.6988 545.832 28.5892 545.681 16.2541 566.709 16.2541C567.638 16.2541 568.191 16.2792 568.316 16.3044 568.618 16.3797 568.769 16.6058 568.769 16.9575 568.769 17.4097 568.467 17.6358 567.889 17.6358L567.739 17.6358 557.79 17.5856 557.715 23.7406 559.875 23.7657 566.834 23.6401 568.367 23.615C568.919 23.615 569.296 23.6652 569.472 23.7657 569.648 23.8662 569.748 24.042 569.748 24.3184 569.748 24.8459 569.321 25.0972 568.442 25.0972L566.884 25.0469 557.715 24.9967Z" fill="#003F5C" fill-rule="nonzero" fill-opacity="1" transform="matrix(1 0 0 1.00255 61.7402 466)"/><path d="M589.771 17.6358 589.67 23.8411 589.62 29.7448 589.67 43.4113 577.561 43.4113 577.687 27.5843 577.637 22.2081 577.587 17.6358 574.974 17.6861 571.231 17.7615 570.678 17.7866C570.05 17.7866 569.723 17.5605 569.723 17.0832 569.723 16.6561 569.899 16.43 570.276 16.3797 570.376 16.3546 570.703 16.3295 571.256 16.3295L595.599 16.3295C596.453 16.3546 596.956 16.3797 597.107 16.4551 597.383 16.5556 597.509 16.7817 597.509 17.1334 597.509 17.5856 597.182 17.8117 596.504 17.8117L594.77 17.7615 590.198 17.6861 589.771 17.6861Z" fill="#003F5C" fill-rule="nonzero" fill-opacity="1" transform="matrix(1 0 0 1.00255 61.7402 466)"/><path d="M626.424 15.3497 630.745 30.1467 632.705 36.7037 634.463 42.6325 634.69 43.3862 622.631 43.3862 618.837 29.368 610.648 41.703 602.232 29.996C601.428 32.86 600.523 36.352 599.569 40.5223 599.217 42.105 598.966 43.0596 598.815 43.3611 598.664 43.6625 598.363 43.8133 597.885 43.8133 597.308 43.8133 597.006 43.6123 597.006 43.2103 597.006 43.0847 597.182 42.4315 597.559 41.2006L598.79 36.98 600.925 29.6694 605.121 15.4 615.999 31.1516 626.424 15.3497Z" fill="#003F5C" fill-rule="nonzero" fill-opacity="1" transform="matrix(1 0 0 1.00255 61.7402 466)"/><path d="M649.612 15.4753C651.697 15.4753 653.732 15.9275 655.667 16.8068 658.531 18.1132 660.716 20.123 662.224 22.8613 663.429 25.0469 664.032 27.4084 664.032 29.996 664.032 32.056 663.58 34.0658 662.651 36.0002 661.294 38.8893 659.159 41.0749 656.27 42.5572 654.159 43.6625 651.923 44.2152 649.612 44.2152 647.15 44.2152 644.814 43.5872 642.628 42.3562 639.714 40.7232 637.629 38.412 636.373 35.4476 635.594 33.6387 635.217 31.7546 635.217 29.8202 635.217 27.4084 635.82 25.0972 637.026 22.8864 638.508 20.1983 640.669 18.1634 643.507 16.8319 645.392 15.9527 647.427 15.5005 649.612 15.4753ZM648.029 16.8068 647.904 29.7197 648.004 40.4469 648.029 42.8586C648.482 42.934 648.909 42.9842 649.311 42.9842 652.225 42.9842 654.838 42.1803 657.149 40.5725 659.259 39.0903 660.766 37.181 661.721 34.8446 662.374 33.2117 662.701 31.5285 662.701 29.795 662.701 27.4838 662.148 25.3484 661.043 23.3637 659.686 20.9269 657.752 19.1432 655.29 17.9876 653.431 17.1083 651.496 16.6812 649.436 16.6812 648.959 16.6812 648.507 16.7314 648.029 16.8068Z" fill="#003F5C" fill-rule="nonzero" fill-opacity="1" transform="matrix(1 0 0 1.00255 61.7402 466)"/><path d="M690.587 29.4936 690.587 26.1774 690.536 20.9017 690.511 18.49 690.486 16.9827C690.486 16.2792 690.737 15.9024 691.215 15.9024 691.516 15.9024 691.717 15.9778 691.818 16.1536 691.918 16.3295 691.993 16.631 691.993 17.1083L691.993 17.3846C691.968 17.661 691.968 18.1132 691.968 18.7663L691.893 25.4489 691.843 31.5787 691.893 38.0351 691.968 44.5167C689.23 42.8084 685.261 40.4469 680.01 37.4322 674.76 34.4175 670.514 32.056 667.248 30.3226L667.273 31.3024 667.474 41.5523 667.499 42.934C667.499 43.5118 667.223 43.7882 666.695 43.7882 666.143 43.7882 665.891 43.4364 665.891 42.733L665.917 41.3513 665.942 39.1154 666.017 28.9409 665.866 15.2241C671.192 18.5151 679.432 23.2632 690.587 29.4936Z" fill="#003F5C" fill-rule="nonzero" fill-opacity="1" transform="matrix(1 0 0 1.00255 61.7402 466)"/><path d="M650.265 40.4971C656.772 39.4922 661.696 35.1461 661.696 29.9206 661.696 24.3686 656.144 19.7964 649.034 19.1934 651.346 26.1021 651.421 33.3624 650.265 40.4971Z" fill="#FFFFFF" fill-rule="nonzero" fill-opacity="1" transform="matrix(1 0 0 1.00255 61.7402 466)"/><path d="M529.98 36.3017C535.507 35.4978 539.652 31.9556 539.652 27.6848 539.652 23.1628 534.954 19.4447 528.925 18.9422 530.909 24.5696 530.96 30.4985 529.98 36.3017Z" fill="#FFFFFF" fill-rule="nonzero" fill-opacity="1" transform="matrix(1 0 0 1.00255 61.7402 466)"/><path d="M570.477 20.0727 575.979 20.0727 575.979 24.4942 570.477 24.4942Z" fill="#FFFFFF" fill-rule="nonzero" fill-opacity="1" transform="matrix(1 0 0 1.00255 61.7402 466)"/><path d="M559.499 26.2779 576.004 26.2779 576.004 40.4971 559.499 40.4971Z" fill="#FFFFFF" fill-rule="nonzero" fill-opacity="1" transform="matrix(1 0 0 1.00255 61.7402 466)"/><path d="M592.384 20.0727 595.649 20.0727 595.649 39.3415 592.384 39.3415Z" fill="#FFFFFF" fill-rule="nonzero" fill-opacity="1" transform="matrix(1 0 0 1.00255 61.7402 466)"/><path d="M592.384 18.9422 599.217 18.9422 599.217 33.3875 592.384 33.3875Z" fill="#FFFFFF" fill-rule="nonzero" fill-opacity="1" transform="matrix(1 0 0 1.00255 61.7402 466)"/></g></g></g></g></g></svg>