<svg width="776" height="483" xmlns="http://www.w3.org/2000/svg" xmlns:xlink="http://www.w3.org/1999/xlink" xml:space="preserve" overflow="hidden"><g transform="translate(-284 -237)"><g><g><g><g><path d="M194.82 118.329 195.636 119.472 201.156 127.212 201.874 128.225 177.216 145.633 175.517 143.151 155.66 114.606 145.992 101.247 139.493 92.1025 138.284 90.5021 156.77 77.4706C164.315 72.1469 170.259 68.4563 174.603 66.3334 178.947 64.2431 183.029 63.1 186.85 62.8714 191.978 62.6101 196.943 63.7859 201.711 66.3987 205.336 68.391 208.341 71.0691 210.66 74.4005 213.207 78.0258 214.808 82.0431 215.494 86.5175 216.278 91.8412 215.559 96.8709 213.403 101.541 211.248 106.244 207.786 110.262 202.985 113.658 201.156 114.867 198.445 116.435 194.82 118.329ZM164.87 75.7723 166.764 78.4831 185.642 105.591 192.795 115.585C195.342 114.638 198.282 113.005 201.678 110.588 204.716 108.465 207.165 105.787 209.06 102.652 210.921 99.5164 212.032 96.185 212.358 92.6577 212.913 86.6482 211.444 81.1612 207.949 76.1968 204.618 71.4937 200.045 68.3583 194.134 66.758 189.953 65.6149 185.642 65.7128 181.168 66.9866 176.693 68.2603 171.696 70.9058 166.046 74.8578L164.87 75.7723Z" fill="#003F5C" fill-rule="nonzero" fill-opacity="1" transform="matrix(1.00066 0 0 1 284 238.87)"/><path d="M248.415 50.5584C248.905 51.9628 249.591 53.6938 250.408 55.7187L251.551 58.4622 264.811 89.8816 280.259 83.3821 291.168 78.7444C292.964 77.9932 294.107 78.1565 294.532 79.2669 294.891 80.1814 294.663 80.8673 293.781 81.3572 293.585 81.4552 292.311 82.0104 290.025 82.9902L238.095 104.35 237.148 101.966 230.909 86.6482 224.377 70.1873 212.358 41.9034 260.859 22.0131C263.047 21.1313 264.256 20.6741 264.615 20.6087 265.399 20.5108 265.954 20.87 266.313 21.7192 266.771 22.797 266.281 23.5808 264.942 24.1361L264.615 24.2341 241.589 33.379 247.207 47.6516 252.204 45.6267 268.11 38.8006 271.604 37.2982C272.878 36.7757 273.76 36.547 274.283 36.5797 274.772 36.645 275.164 36.9716 275.426 37.6248 275.916 38.8333 275.164 39.8458 273.172 40.6949L269.481 42.034 248.415 50.5584Z" fill="#003F5C" fill-rule="nonzero" fill-opacity="1" transform="matrix(1.00066 0 0 1 284 238.87)"/><path d="M330.491 9.66749 332.941 24.9526 335.358 39.4538 341.465 72.9308 311.777 78.1891 305.179 39.3232 302.697 26.161 300.541 14.9911 294.173 16.2976 284.995 18.1266 283.623 18.4205C282.088 18.6818 281.207 18.2572 280.978 17.0814 280.815 16.0363 281.141 15.3831 282.023 15.0891 282.284 14.9911 283.068 14.7952 284.375 14.5339L344.111 3.91925C346.201 3.59265 347.442 3.46201 347.866 3.55999 348.552 3.72329 348.977 4.2132 349.14 5.06237 349.336 6.17283 348.618 6.8587 346.952 7.15264L342.673 7.77319 331.471 9.56951 330.491 9.66749Z" fill="#003F5C" fill-rule="nonzero" fill-opacity="1" transform="matrix(1.00066 0 0 1 284 238.87)"/><path d="M436.442 4.14788 444.313 41.7074 447.905 58.3642 451.139 73.4534 451.563 75.3803 421.614 73.0288 414.918 37.4289 392.154 66.464 373.538 35.7305C370.957 42.6872 368.116 51.2116 364.915 61.3363 363.739 65.2229 362.923 67.5092 362.498 68.2277 362.074 68.9136 361.257 69.2402 360.114 69.1748 358.677 69.0769 357.991 68.5216 358.057 67.5418 358.089 67.2479 358.677 65.6149 359.853 62.6754L363.739 52.42 370.5 34.6854 383.63 0 407.57 41.2502 436.442 4.14788Z" fill="#003F5C" fill-rule="nonzero" fill-opacity="1" transform="matrix(1.00066 0 0 1 284 238.87)"/><path d="M508.36 23.6135C513.259 25.3772 517.603 28.1206 521.391 31.8439 526.976 37.3309 530.406 43.9283 531.614 51.6035 532.594 57.7437 531.973 63.8185 529.818 69.828 528.087 74.6618 525.311 78.9403 521.522 82.6963 515.872 88.3139 509.078 91.6452 501.011 92.6904 495.133 93.4742 489.45 92.8863 483.995 90.894 478.247 88.8038 473.315 85.3744 469.2 80.606 463.746 74.2699 460.806 67.1172 460.414 59.1154 460.153 54.2164 460.839 49.5132 462.472 44.9734 464.53 39.2905 467.894 34.4241 472.564 30.2762 478.345 25.2139 485.106 22.3071 492.912 21.5886 498.105 21.1313 503.232 21.7845 508.36 23.6135ZM503.559 25.3772 492.324 55.5554 483.44 80.802 481.448 86.4849C482.428 87.0728 483.407 87.53 484.355 87.8566 491.213 90.3388 498.007 90.6654 504.767 88.8364 510.973 87.1381 516.133 83.97 520.314 79.2996 523.22 76.0335 525.441 72.3756 526.944 68.293 528.903 62.904 529.426 57.4171 528.479 51.7995 527.336 44.9408 524.364 39.1272 519.562 34.3261 515.937 30.7008 511.757 28.0227 506.956 26.2917 505.845 25.8997 504.702 25.6058 503.559 25.3772Z" fill="#003F5C" fill-rule="nonzero" fill-opacity="1" transform="matrix(1.00066 0 0 1 284 238.87)"/><path d="M591.775 107.91 596.315 101.019 603.435 89.9795 606.668 84.9498 608.66 81.7818C609.64 80.3121 610.653 79.8875 611.665 80.5733 612.286 80.9653 612.579 81.4225 612.579 81.9124 612.579 82.4023 612.286 83.1535 611.665 84.1007L611.273 84.6886C610.848 85.2438 610.228 86.1909 609.346 87.4974L600.038 101.313 591.513 114.018 582.793 127.539 574.073 141.126C570.741 133.875 565.646 123.489 558.82 110.033 551.994 96.577 546.377 85.8317 541.935 77.7972L540.628 79.8548 527.042 101.476 525.213 104.35C524.429 105.559 523.482 105.755 522.404 105.036 521.261 104.285 521.163 103.207 522.143 101.737L524.07 98.8632 527.172 94.2254 541.249 73.1268 559.67 44.3529C566.398 58.5602 577.078 79.7568 591.775 107.91Z" fill="#003F5C" fill-rule="nonzero" fill-opacity="1" transform="matrix(1.00066 0 0 1 284 238.87)"/><path d="M240.708 382.029C213.893 382.029 192.109 403.879 192.109 430.693 192.141 457.475 213.959 479.292 240.773 479.292 267.554 479.292 289.372 457.442 289.372 430.661 289.372 403.814 267.554 381.997 240.708 382.029ZM240.773 464.758C221.96 464.758 206.643 449.473 206.643 430.661 206.643 411.848 221.928 396.531 240.74 396.531 259.553 396.531 274.838 411.816 274.87 430.628 274.838 449.44 259.585 464.758 240.773 464.758Z" fill="#003F5C" fill-rule="nonzero" fill-opacity="1" transform="matrix(1.00066 0 0 1 284 238.87)"/><path d="M381.964 464.693C354.497 464.693 332.157 442.353 332.157 414.886L317.623 414.918C317.656 450.388 346.495 479.194 381.997 479.194 417.466 479.194 446.305 450.29 446.272 414.853L431.771 414.853C431.771 442.32 409.431 464.66 381.964 464.693Z" fill="#003F5C" fill-rule="nonzero" fill-opacity="1" transform="matrix(1.00066 0 0 1 284 238.87)"/><path d="M531.124 381.866C504.31 381.866 482.526 403.716 482.526 430.53 482.526 457.312 504.375 479.162 531.157 479.129 557.971 479.129 579.756 457.279 579.756 430.497 579.788 403.651 557.939 381.866 531.124 381.866ZM531.19 464.595C512.377 464.628 497.059 449.31 497.059 430.497 497.027 411.685 512.345 396.4 531.157 396.367 549.969 396.367 565.255 411.652 565.287 430.465 565.287 449.31 550.002 464.595 531.19 464.595Z" fill="#003F5C" fill-rule="nonzero" fill-opacity="1" transform="matrix(1.00066 0 0 1 284 238.87)"/><path d="M583.381 226.631C576.98 220.099 568.227 216.767 557.351 216.767L172.284 216.931 172.317 330.263 593.538 330.067 593.473 253.053C593.538 252.433 593.767 237.246 583.381 226.631ZM443.856 231.334 443.921 315.631 324.645 315.696 324.612 231.399 443.856 231.334ZM186.785 231.465 310.078 231.399 310.111 315.696 186.818 315.761 186.785 231.465ZM579.037 315.565 458.422 315.631 458.389 231.334 557.351 231.269C564.111 231.269 569.37 233.098 572.93 236.69 579.037 242.896 579.005 252.694 579.005 252.923L579.037 315.565Z" fill="#003F5C" fill-rule="nonzero" fill-opacity="1" transform="matrix(1.00066 0 0 1 284 238.87)"/><path d="M232.085 301.521 232.085 274.968 265.17 274.936 265.17 269.971 232.085 270.004 232.053 245.639 266.999 245.607 266.999 240.675 226.827 240.675 226.86 306.486 267.783 306.453 267.75 301.489Z" fill="#003F5C" fill-rule="nonzero" fill-opacity="1" transform="matrix(1.00066 0 0 1 284 238.87)"/><path d="M382.552 275.556 383.27 275.948C392.187 280.455 397.706 284.375 397.706 290.09 397.739 298.353 392.187 302.37 380.756 302.37 375.367 302.37 368.769 299.856 364.36 296.132L363.348 295.283 360.212 299.366 361.159 300.15C367.071 304.983 373.995 307.433 381.801 307.433 392.121 307.433 403.161 302.893 403.193 290.123 403.161 281.174 395.518 276.536 386.243 271.833 385.393 271.408 384.512 270.984 383.597 270.527 377 267.326 368.737 263.341 368.279 255.927 368.116 252.89 368.9 250.408 370.696 248.513 373.113 245.933 377.359 244.561 382.944 244.529 387.81 244.529 392.513 246.75 396.073 248.709L397.118 249.265 399.764 245.117 398.621 244.431C393.591 241.361 387.778 239.728 381.931 239.728 373.211 239.728 363.054 243.81 363.054 255.405 363.054 265.856 373.407 271.016 382.552 275.556Z" fill="#003F5C" fill-rule="nonzero" fill-opacity="1" transform="matrix(1.00066 0 0 1 284 238.87)"/><path d="M517.864 278.234 535.566 278.234 535.599 298.81C531.647 300.999 525.605 302.305 519.53 302.305 504.571 302.305 493.728 290.221 493.728 273.564 493.695 256.613 504.114 244.79 519.04 244.757 527.042 244.757 533.247 247.338 535.566 248.415L536.742 248.971 538.832 244.463 537.722 243.908C532.594 241.361 525.67 239.826 519.171 239.826 501.109 239.826 488.502 253.706 488.535 273.564 488.535 293.422 501.305 307.302 519.595 307.27 527.205 307.27 533.312 305.865 540.073 302.501L540.792 302.174 540.759 273.368 517.93 273.368 517.864 278.234Z" fill="#003F5C" fill-rule="nonzero" fill-opacity="1" transform="matrix(1.00066 0 0 1 284 238.87)"/><path d="M757.265 247.305 702.461 247.338 702.461 259.618 702.461 265.007 693.479 265.007C677.737 244.888 661.701 228.884 645.763 217.192 643.672 181.984 611.077 169.54 593.636 167.907L117.806 168.103 117.937 437.944 165.099 437.911 165.099 423.41 132.438 423.41 132.307 182.572 592.559 182.376C596.478 182.801 631.327 187.602 631.327 220.752L631.425 423.182 605.851 423.182 605.851 437.683 645.926 437.683 645.926 418.446C661.864 406.753 677.835 390.75 693.512 370.663L702.494 370.663 702.461 377.326 702.494 388.333 757.363 388.3C764.647 388.235 775.457 383.532 775.457 370.925L775.424 264.648C775.424 252.041 764.614 247.37 757.265 247.305ZM686.392 356.195 684.237 359.036C671.532 375.628 658.729 389.378 645.991 400.058L645.926 235.678C658.663 246.358 671.499 260.075 684.204 276.667L686.392 279.508 702.526 279.508 702.592 356.162 686.392 356.195ZM760.989 370.957C760.956 371.676 760.989 373.636 757.331 373.799L717.06 373.832 717.06 356.162 717.028 279.508 716.995 261.839 757.167 261.839C760.923 261.969 760.923 263.929 760.956 264.68L760.989 370.957Z" fill="#003F5C" fill-rule="nonzero" fill-opacity="1" transform="matrix(1.00066 0 0 1 284 238.87)"/><path d="M33.2483 445.652 33.2483 445.652C30.5702 445.423 28.3493 443.627 27.0429 442.223 24.528 443.333 22.1764 443.823 20.0862 443.627 13.2601 443.039 11.2352 436.18 10.6473 432.849 6.46677 431.804 3.62531 429.746 2.18825 426.644-0.0653209 421.777 2.12293 415.898 3.49467 413.057 0.587888 410.052-0.522567 407.015 0.228623 404.042 1.66568 398.327 9.79814 395.224 14.044 393.983 12.9662 389.705 13.3581 386.373 15.1871 384.054 17.2121 381.474 20.7067 380.396 25.6385 380.821 28.6432 381.082 31.5173 381.899 32.8238 382.291 42.7525 379.057 49.8725 380.331 53.8244 385.818 58.4296 392.252 57.1231 402.638 56.4046 406.459L89.7183 432.294 57.809 431.118 63.3613 435.69 40.3683 441.765C37.8861 445.227 35.1426 445.815 33.2483 445.652ZM28.4146 436.311 29.5904 438.009C30.1129 438.761 31.9746 440.883 33.6729 441.014 34.7507 441.112 35.8612 440.263 36.939 438.499L37.4289 437.715 53.3998 433.47 44.2223 425.925 75.4456 427.068 51.2443 408.321 51.5709 406.851C51.6035 406.721 54.445 394.604 50.0685 388.496 47.227 384.577 41.6747 384.12 33.6076 386.896L32.8238 387.157 32.0726 386.896C32.0399 386.896 28.7412 385.72 25.2465 385.426 23.4175 385.263 20.1842 385.23 18.8777 386.896 17.7999 388.3 17.8979 391.076 19.1717 394.865L20.0209 397.314 17.4733 397.87C13.7501 398.719 5.68292 401.626 4.76843 405.186 4.27852 407.113 6.20549 409.333 7.93649 410.836L9.37355 412.11 8.39374 413.775C7.28328 415.604 4.80109 421.124 6.46677 424.717 7.38126 426.741 9.66749 428.048 13.1622 428.636L14.9911 428.93 15.1218 430.791C15.1218 430.889 15.677 438.597 20.5761 439.022 22.2091 439.152 24.2667 438.597 26.6509 437.291L28.4146 436.311Z" fill="#003F5C" fill-rule="nonzero" fill-opacity="1" transform="matrix(1.00066 0 0 1 284 238.87)"/></g></g></g></g></g></svg>