<?xml version="1.0" encoding="utf-8"?>
<!-- Generator: Adobe Illustrator 27.5.0, SVG Export Plug-In . SVG Version: 6.00 Build 0)  -->
<svg version="1.1" id="Capa_1" xmlns="http://www.w3.org/2000/svg" xmlns:xlink="http://www.w3.org/1999/xlink" x="0px" y="0px"
	 viewBox="0 0 425.196 425.197" style="enable-background:new 0 0 425.196 425.197;" xml:space="preserve">
<g>
	<rect x="0" y="0" style="fill:#F6F6F6;" width="425.197" height="425.197"/>
	<g>
		<path style="fill:#C6C6C6;" d="M274.454,302.371c0,28.555-55.093,51.701-123.053,51.701c-67.96,0-123.052-23.146-123.052-51.701
			c0-28.555,55.092-51.703,123.052-51.703C219.361,250.668,274.454,273.816,274.454,302.371z"/>
		<g>
			<path style="fill:#F7A50C;" d="M49.72,253.286v33.37h0.403c4.106,30.235,49.736,54.08,105.55,54.08
				c55.814,0,101.443-23.845,105.55-54.08h0.403v-33.37H49.72z"/>
			<path style="fill:#DFC1B4;" d="M49.72,253.286v33.37h0.403c2.9,21.352,26.555,39.471,59.833,48.302v-81.672H49.72z"/>
			<path style="fill:#DFC1B4;" d="M126.857,253.286v85.227c1.854,0.289,3.741,0.533,5.634,0.769v-85.995H126.857z"/>
			<path style="fill:#DFC1B4;" d="M160.658,253.286v87.319c0.863-0.033,1.738-0.036,2.601-0.072v-87.247H160.658z"/>
			<path style="fill:#DFC1B4;" d="M139.424,253.286v86.725c2.992,0.261,6.033,0.436,9.101,0.561v-87.286H139.424z"/>
			<path style="fill:#DFC1B4;" d="M224.36,253.286v73.368c1.207-0.568,2.308-1.203,3.467-1.8v-71.568H224.36z"/>
			<path style="fill:#DFC1B4;" d="M256.427,253.286v46.688c2.464-4.253,4.168-8.696,4.796-13.317h0.403v-33.37H256.427z"/>
			<path style="fill:#DFC1B4;" d="M189.693,253.286v84.3c6.055-1.135,11.827-2.598,17.333-4.291v-80.009H189.693z"/>
			<ellipse style="fill:#FEC900;" cx="155.673" cy="253.289" rx="105.953" ry="58.502"/>
			<path style="fill:#FFFFFF;" d="M148.806,194.98c-2.027,12.967-2.197,26.107,2.043,37.477c7.749,20.79,35.87,27.823,55.706,26.284
				c17.878-1.385,36.472-6.778,53.405-15.482c-8.63-27.52-51.977-48.473-104.287-48.473
				C153.355,194.787,151.088,194.898,148.806,194.98z"/>
			<path style="fill:#FFFFFF;" d="M199.966,232.396c18.325,4.313,35.025,1.605,49.888-5.697
				c-16.98-18.335-50.87-31.044-90.389-31.818C164.497,212.881,176.674,226.917,199.966,232.396z"/>
			<path style="fill:#DFC1B4;" d="M98.016,253.903c-5.557-14.905-7.489-30.83-7.042-46.87c-25.054,10.7-41.254,27.415-41.254,46.256
				c0,32.309,47.436,58.502,105.953,58.502c3.997,0,7.927-0.147,11.809-0.387C137.301,303.211,109.182,283.855,98.016,253.903z"/>
			<path style="fill:#DFC1B4;" d="M93.094,289.772c-13.907-17.602-30.127-38.32-30.078-62.072c0.002-0.965,0.107-1.889,0.146-2.839
				c-8.541,8.409-13.442,18.095-13.442,28.429c0,23.051,24.164,42.967,59.252,52.499C103.336,301.264,98.011,295.997,93.094,289.772
				z"/>
			<path style="fill:#FFFFFF;" d="M155.242,304.425c-56.265,0-102.157-24.235-105.617-54.817c-0.138,1.224-0.336,2.438-0.336,3.682
				c0,32.309,47.437,58.502,105.953,58.502s105.953-26.193,105.953-58.502c0-1.244-0.198-2.458-0.336-3.682
				C257.399,280.19,211.506,304.425,155.242,304.425z"/>
			<path style="fill:#DFC1B4;" d="M155.242,214.131c38.29,0,71.197,11.268,86.136,27.457
				c-11.862-18.759-45.916-32.328-86.136-32.328s-74.271,13.569-86.135,32.328C84.044,225.398,116.952,214.131,155.242,214.131z"/>
			<g>
				<path style="fill:#DFC1B4;" d="M162.06,260.246v18.46c4.39-0.411,8.108-1.427,11.151-3.055c4.037-2.126,6.057-4.921,6.057-8.393
					c0-3.844-2.358-6.733-7.075-8.679c-2.32-0.924-7.389-2.127-15.198-3.607l-1.372-0.282c-8.798-1.614-14.32-3.12-16.57-4.507
					c-3.593-2.131-5.385-4.883-5.385-8.26c0-3.891,2.076-7.054,6.226-9.506c2.887-1.621,6.301-2.667,10.241-3.129v-7.633h3.695
					v7.285c0.432-0.043,0.861-0.064,1.296-0.064c0.43,0,0.864,0,1.299,0c0.357,0,0.684,0,0.968,0c0.29,0,0.612,0.021,0.976,0.064
					v-7.285h3.692v7.568c4.572,0.458,8.444,1.659,11.613,3.604c4.291,2.549,6.612,6.104,6.968,10.693h-3.38
					c-0.143-3.889-2.112-6.966-5.911-9.236c-2.605-1.57-5.698-2.59-9.29-3.051v19.434l-3.692-0.695v-19.155h-2.162
					c-0.358,0-0.756,0-1.188,0c-0.432,0-0.83,0.021-1.188,0.066v18.05l-3.695-0.695v-17.004c-3.238,0.51-5.877,1.368-7.918,2.568
					c-3.448,1.992-5.173,4.693-5.173,8.121c0,2.59,1.552,4.834,4.657,6.733c2.325,1.387,7.332,2.727,15.021,4.022
					c0.143,0.051,0.335,0.078,0.585,0.106c0.245,0.025,0.545,0.079,0.898,0.178c4.02,0.643,7.404,1.31,10.154,2.009
					c2.753,0.693,4.941,1.369,6.561,2.014c5.361,2.265,8.044,5.477,8.044,9.643c0,4.353-2.312,7.826-6.935,10.414
					c-3.623,1.992-8.28,3.237-13.97,3.742v6.391h-3.692v-6.246h-0.757c-0.576,0-1.189-0.01-1.837-0.035
					c-0.648-0.025-1.297-0.059-1.944-0.109v6.391h-3.695v-6.802c-4.154-0.646-7.673-1.876-10.557-3.679
					c-4.646-2.916-7.246-6.918-7.813-12.008h3.484c0.421,4.4,2.674,7.863,6.757,10.412c2.18,1.438,4.89,2.477,8.128,3.121v-21.026
					l3.695,0.688v20.823c1.296,0.14,2.592,0.21,3.888,0.21h0.65v-19.295L162.06,260.246z"/>
			</g>
		</g>
		<g>
			<path style="fill:#F7A50C;" d="M63.44,210.385v33.369h0.403c4.106,30.236,49.735,54.082,105.55,54.082
				c55.814,0,101.443-23.846,105.549-54.082h0.404v-33.369H63.44z"/>
			<path style="fill:#DFC1B4;" d="M63.44,210.385v33.369h0.403c2.9,21.352,26.555,39.471,59.832,48.303v-81.672H63.44z"/>
			<path style="fill:#DFC1B4;" d="M140.577,210.385v85.227c1.852,0.289,3.741,0.533,5.634,0.77v-85.996H140.577z"/>
			<path style="fill:#DFC1B4;" d="M174.378,210.385v87.318c0.863-0.033,1.738-0.035,2.6-0.07v-87.248H174.378z"/>
			<path style="fill:#DFC1B4;" d="M153.144,210.385v86.725c2.992,0.262,6.032,0.436,9.1,0.56v-87.285H153.144z"/>
			<path style="fill:#DFC1B4;" d="M238.079,210.385v73.368c1.208-0.568,2.309-1.203,3.468-1.8v-71.568H238.079z"/>
			<path style="fill:#DFC1B4;" d="M270.147,210.385v46.688c2.463-4.254,4.168-8.697,4.795-13.318h0.404v-33.369H270.147z"/>
			<path style="fill:#DFC1B4;" d="M203.413,210.385v84.299c6.054-1.135,11.827-2.598,17.333-4.291v-80.008H203.413z"/>
			<path style="fill:#FEC900;" d="M275.346,210.388c0,32.308-47.436,58.501-105.953,58.501c-58.518,0-105.953-26.193-105.953-58.501
				s47.436-58.503,105.953-58.503C227.91,151.885,275.346,178.08,275.346,210.388z"/>
			<path style="fill:#FFFFFF;" d="M162.526,152.078c-2.027,12.968-2.197,26.107,2.043,37.479
				c7.749,20.79,35.87,27.823,55.706,26.285c17.878-1.387,36.472-6.779,53.405-15.484c-8.63-27.52-51.978-48.473-104.287-48.473
				C167.075,151.885,164.807,151.998,162.526,152.078z"/>
			<path style="fill:#FFFFFF;" d="M213.686,189.495c18.324,4.312,35.025,1.604,49.888-5.698
				c-16.98-18.334-50.871-31.043-90.389-31.817C178.216,169.98,190.394,184.016,213.686,189.495z"/>
			<path style="fill:#DFC1B4;" d="M111.736,211.002c-5.558-14.904-7.49-30.83-7.043-46.87c-25.054,10.7-41.253,27.415-41.253,46.256
				c0,32.308,47.436,58.501,105.953,58.501c3.996,0,7.927-0.147,11.808-0.386C151.021,260.31,122.901,240.953,111.736,211.002z"/>
			<path style="fill:#DFC1B4;" d="M106.813,246.869c-13.906-17.601-30.127-38.32-30.077-62.071c0.001-0.965,0.106-1.89,0.146-2.839
				c-8.541,8.41-13.442,18.094-13.442,28.429c0,23.05,24.163,42.967,59.252,52.499C117.056,258.361,111.73,253.096,106.813,246.869z
				"/>
			<path style="fill:#FFFFFF;" d="M168.961,261.523c-56.265,0-102.157-24.236-105.617-54.818c-0.139,1.225-0.336,2.439-0.336,3.683
				c0,32.308,47.436,58.501,105.953,58.501c58.517,0,105.953-26.193,105.953-58.501c0-1.244-0.198-2.458-0.337-3.683
				C271.119,237.287,225.226,261.523,168.961,261.523z"/>
			<path style="fill:#DFC1B4;" d="M168.961,171.229c38.29,0,71.197,11.27,86.135,27.459c-11.861-18.76-45.915-32.328-86.135-32.328
				c-40.22,0-74.271,13.568-86.136,32.328C97.764,182.498,130.671,171.229,168.961,171.229z"/>
			<g>
				<path style="fill:#DFC1B4;" d="M175.78,217.345v18.46c4.39-0.412,8.108-1.428,11.151-3.055c4.037-2.125,6.057-4.922,6.057-8.393
					c0-3.844-2.358-6.733-7.075-8.678c-2.321-0.926-7.389-2.129-15.198-3.609l-1.372-0.281c-8.798-1.615-14.321-3.121-16.57-4.507
					c-3.593-2.131-5.385-4.883-5.385-8.26c0-3.89,2.076-7.054,6.225-9.507c2.888-1.619,6.302-2.666,10.242-3.129v-7.632h3.695v7.284
					c0.432-0.043,0.86-0.063,1.295-0.063c0.431,0,0.864,0,1.299,0c0.358,0,0.685,0,0.969,0c0.289,0,0.612,0.02,0.975,0.063v-7.284
					h3.693v7.569c4.572,0.457,8.444,1.658,11.613,3.603c4.291,2.55,6.611,6.104,6.967,10.692h-3.379
					c-0.143-3.887-2.113-6.965-5.911-9.234c-2.605-1.572-5.698-2.59-9.29-3.053v19.435l-3.693-0.696v-19.155h-2.161
					c-0.358,0-0.756,0-1.188,0c-0.432,0-0.83,0.02-1.189,0.066v18.051l-3.695-0.696v-17.005c-3.239,0.511-5.877,1.369-7.919,2.57
					c-3.448,1.99-5.172,4.691-5.172,8.12c0,2.59,1.552,4.835,4.657,6.733c2.325,1.387,7.331,2.727,15.022,4.021
					c0.142,0.051,0.335,0.079,0.585,0.107c0.245,0.025,0.545,0.078,0.897,0.178c4.02,0.643,7.404,1.311,10.154,2.008
					c2.752,0.693,4.941,1.369,6.561,2.014c5.362,2.266,8.045,5.477,8.045,9.645c0,4.352-2.313,7.825-6.935,10.412
					c-3.624,1.994-8.28,3.238-13.97,3.743v6.392h-3.693v-6.247h-0.756c-0.577,0-1.19-0.011-1.837-0.035
					c-0.649-0.025-1.297-0.059-1.944-0.109v6.392h-3.695v-6.803c-4.154-0.645-7.674-1.877-10.557-3.68
					c-4.646-2.915-7.247-6.916-7.812-12.008h3.484c0.42,4.4,2.674,7.864,6.757,10.413c2.18,1.438,4.889,2.476,8.128,3.121v-21.026
					l3.695,0.688v20.824c1.295,0.139,2.591,0.211,3.888,0.211h0.649V216.72L175.78,217.345z"/>
			</g>
		</g>
		<g>
			<path style="fill:#F7A50C;" d="M47.407,171.961v33.369h0.403c4.105,30.236,49.735,54.082,105.549,54.082
				c55.814,0,101.444-23.846,105.55-54.082h0.404v-33.369H47.407z"/>
			<path style="fill:#DFC1B4;" d="M47.407,171.961v33.369h0.403c2.899,21.352,26.555,39.471,59.832,48.303v-81.672H47.407z"/>
			<path style="fill:#DFC1B4;" d="M124.543,171.961v85.227c1.854,0.289,3.742,0.533,5.635,0.77v-85.996H124.543z"/>
			<path style="fill:#DFC1B4;" d="M158.344,171.961v87.318c0.863-0.033,1.737-0.035,2.6-0.07v-87.248H158.344z"/>
			<path style="fill:#DFC1B4;" d="M137.11,171.961v86.725c2.993,0.262,6.033,0.436,9.101,0.56v-87.285H137.11z"/>
			<path style="fill:#DFC1B4;" d="M222.045,171.961v73.368c1.208-0.569,2.309-1.203,3.468-1.8v-71.568H222.045z"/>
			<path style="fill:#DFC1B4;" d="M254.114,171.961v46.688c2.463-4.254,4.168-8.697,4.795-13.318h0.404v-33.369H254.114z"/>
			<path style="fill:#DFC1B4;" d="M187.378,171.961v84.299c6.055-1.135,11.828-2.598,17.334-4.291v-80.008H187.378z"/>
			<path style="fill:#FEC900;" d="M259.313,171.963c0,32.309-47.436,58.502-105.954,58.502c-58.517,0-105.952-26.193-105.952-58.502
				c0-32.308,47.436-58.502,105.952-58.502C211.876,113.461,259.313,139.655,259.313,171.963z"/>
			<path style="fill:#FFFFFF;" d="M146.493,113.654c-2.027,12.968-2.198,26.107,2.042,37.479
				c7.75,20.79,35.871,27.823,55.707,26.285c17.878-1.387,36.472-6.779,53.405-15.484c-8.631-27.52-51.978-48.473-104.288-48.473
				C151.042,113.461,148.774,113.573,146.493,113.654z"/>
			<path style="fill:#FFFFFF;" d="M197.652,151.071c18.325,4.311,35.026,1.604,49.888-5.698
				c-16.979-18.334-50.87-31.043-90.388-31.817C162.183,131.556,174.361,145.592,197.652,151.071z"/>
			<path style="fill:#DFC1B4;" d="M95.702,172.578c-5.557-14.904-7.489-30.83-7.042-46.87c-25.054,10.7-41.253,27.415-41.253,46.255
				c0,32.309,47.436,58.502,105.952,58.502c3.997,0,7.928-0.146,11.809-0.386C134.988,221.886,106.868,202.529,95.702,172.578z"/>
			<path style="fill:#DFC1B4;" d="M90.78,208.445c-13.907-17.6-30.127-38.32-30.077-62.071c0.001-0.965,0.107-1.89,0.146-2.839
				c-8.54,8.41-13.442,18.094-13.442,28.428c0,23.051,24.163,42.968,59.252,52.5C101.023,219.938,95.697,214.672,90.78,208.445z"/>
			<path style="fill:#FFFFFF;" d="M152.928,223.1c-56.266,0-102.157-24.236-105.617-54.818c-0.139,1.225-0.337,2.439-0.337,3.682
				c0,32.309,47.437,58.502,105.954,58.502c58.517,0,105.952-26.193,105.952-58.502c0-1.243-0.197-2.457-0.336-3.682
				C255.085,198.863,209.193,223.1,152.928,223.1z"/>
			<path style="fill:#DFC1B4;" d="M152.928,132.805c38.29,0,71.197,11.27,86.135,27.459c-11.861-18.76-45.915-32.328-86.135-32.328
				c-40.221,0-74.272,13.568-86.136,32.328C81.73,144.074,114.637,132.805,152.928,132.805z"/>
			<g>
				<path style="fill:#DFC1B4;" d="M159.747,178.921v18.46c4.389-0.412,8.107-1.428,11.15-3.055
					c4.038-2.125,6.058-4.922,6.058-8.393c0-3.844-2.359-6.733-7.075-8.678c-2.321-0.926-7.39-2.129-15.198-3.609l-1.372-0.281
					c-8.799-1.615-14.321-3.121-16.571-4.507c-3.593-2.131-5.384-4.883-5.384-8.26c0-3.89,2.076-7.054,6.225-9.507
					c2.887-1.62,6.301-2.666,10.242-3.129v-7.633h3.695v7.285c0.432-0.043,0.86-0.063,1.295-0.063c0.431,0,0.864,0,1.299,0
					c0.357,0,0.684,0,0.969,0c0.289,0,0.612,0.02,0.975,0.063v-7.285h3.693v7.57c4.571,0.457,8.444,1.658,11.612,3.603
					c4.292,2.55,6.612,6.104,6.968,10.692h-3.379c-0.143-3.888-2.113-6.965-5.911-9.234c-2.605-1.572-5.698-2.59-9.29-3.053v19.436
					l-3.693-0.696v-19.155h-2.162c-0.357,0-0.755,0-1.186,0c-0.432,0-0.83,0.02-1.189,0.066v18.051l-3.695-0.696v-17.005
					c-3.239,0.511-5.877,1.369-7.919,2.57c-3.448,1.99-5.172,4.691-5.172,8.12c0,2.59,1.551,4.835,4.656,6.733
					c2.326,1.387,7.332,2.726,15.023,4.021c0.142,0.051,0.334,0.079,0.585,0.107c0.245,0.025,0.544,0.078,0.897,0.178
					c4.02,0.643,7.404,1.311,10.154,2.008c2.752,0.693,4.94,1.369,6.561,2.014c5.361,2.266,8.044,5.477,8.044,9.645
					c0,4.352-2.312,7.825-6.935,10.412c-3.623,1.994-8.279,3.238-13.969,3.743v6.392h-3.693v-6.247h-0.757
					c-0.576,0-1.189-0.011-1.837-0.035c-0.648-0.026-1.296-0.059-1.943-0.109v6.392h-3.695v-6.803
					c-4.154-0.645-7.674-1.877-10.557-3.68c-4.646-2.915-7.247-6.916-7.814-12.008h3.485c0.42,4.4,2.674,7.864,6.757,10.413
					c2.18,1.438,4.889,2.476,8.128,3.121v-21.026l3.695,0.688v20.824c1.295,0.139,2.591,0.21,3.888,0.21h0.649v-19.295
					L159.747,178.921z"/>
			</g>
		</g>
		<g>
			<path style="fill:#F7A50C;" d="M74.913,129.623v33.37h0.404c4.105,30.235,49.735,54.081,105.549,54.081
				c55.814,0,101.443-23.846,105.55-54.081h0.403v-33.37H74.913z"/>
			<path style="fill:#DFC1B4;" d="M74.913,129.623v33.37h0.404c2.899,21.352,26.554,39.471,59.832,48.302v-81.672H74.913z"/>
			<path style="fill:#DFC1B4;" d="M152.049,129.623v85.227c1.854,0.289,3.741,0.533,5.635,0.77v-85.996H152.049z"/>
			<path style="fill:#DFC1B4;" d="M185.85,129.623v87.319c0.863-0.033,1.738-0.036,2.601-0.071v-87.248H185.85z"/>
			<path style="fill:#DFC1B4;" d="M164.617,129.623v86.725c2.992,0.262,6.033,0.438,9.101,0.561v-87.286H164.617z"/>
			<path style="fill:#DFC1B4;" d="M249.552,129.623v73.369c1.207-0.568,2.309-1.203,3.467-1.801v-71.568H249.552z"/>
			<path style="fill:#DFC1B4;" d="M281.621,129.623v46.688c2.463-4.253,4.168-8.696,4.795-13.317h0.403v-33.37H281.621z"/>
			<path style="fill:#DFC1B4;" d="M214.885,129.623v84.3c6.055-1.135,11.827-2.598,17.334-4.291v-80.009H214.885z"/>
			<path style="fill:#FEC900;" d="M286.819,129.627c0,32.308-47.436,58.501-105.953,58.501c-58.517,0-105.953-26.193-105.953-58.501
				c0-32.309,47.437-58.503,105.953-58.503C239.383,71.124,286.819,97.318,286.819,129.627z"/>
			<path style="fill:#FFFFFF;" d="M173.999,71.317c-2.027,12.967-2.197,26.107,2.043,37.478c7.75,20.791,35.87,27.824,55.706,26.285
				c17.878-1.386,36.473-6.779,53.406-15.483c-8.631-27.52-51.978-48.473-104.288-48.473
				C178.547,71.124,176.281,71.236,173.999,71.317z"/>
			<path style="fill:#FFFFFF;" d="M225.159,108.734c18.325,4.312,35.026,1.605,49.888-5.698
				c-16.979-18.335-50.87-31.044-90.389-31.818C189.69,89.218,201.868,103.254,225.159,108.734z"/>
			<path style="fill:#DFC1B4;" d="M123.209,130.24c-5.557-14.904-7.489-30.83-7.042-46.87c-25.054,10.7-41.254,27.415-41.254,46.256
				c0,32.308,47.437,58.501,105.953,58.501c3.997,0,7.928-0.148,11.809-0.386C162.494,179.549,134.374,160.192,123.209,130.24z"/>
			<path style="fill:#DFC1B4;" d="M118.287,166.108c-13.907-17.601-30.127-38.32-30.077-62.072c0.001-0.965,0.106-1.889,0.146-2.839
				c-8.54,8.41-13.442,18.094-13.442,28.429c0,23.05,24.164,42.967,59.252,52.498C128.529,177.601,123.204,172.334,118.287,166.108z
				"/>
			<path style="fill:#FFFFFF;" d="M180.434,180.762c-56.265,0-102.157-24.235-105.616-54.817c-0.139,1.224-0.337,2.438-0.337,3.683
				c0,32.308,47.437,58.501,105.953,58.501c58.518,0,105.953-26.193,105.953-58.501c0-1.244-0.197-2.459-0.336-3.683
				C282.591,156.526,236.699,180.762,180.434,180.762z"/>
			<path style="fill:#DFC1B4;" d="M180.434,90.468c38.291,0,71.197,11.269,86.136,27.458
				c-11.862-18.759-45.915-32.328-86.136-32.328c-40.22,0-74.27,13.569-86.135,32.328
				C109.237,101.736,142.144,90.468,180.434,90.468z"/>
			<g>
				<path style="fill:#DFC1B4;" d="M187.253,136.584v18.459c4.389-0.411,8.107-1.427,11.15-3.055
					c4.037-2.125,6.057-4.921,6.057-8.393c0-3.844-2.358-6.732-7.075-8.678c-2.32-0.925-7.389-2.128-15.197-3.608l-1.373-0.282
					c-8.798-1.614-14.32-3.12-16.57-4.506c-3.593-2.131-5.384-4.883-5.384-8.26c0-3.891,2.075-7.055,6.225-9.507
					c2.887-1.62,6.301-2.666,10.241-3.129v-7.632h3.696v7.285c0.432-0.043,0.86-0.063,1.295-0.063c0.43,0,0.864,0,1.299,0
					c0.357,0,0.684,0,0.969,0c0.289,0,0.611,0.021,0.975,0.063v-7.285h3.693v7.569c4.571,0.457,8.443,1.658,11.612,3.604
					c4.291,2.549,6.612,6.104,6.968,10.692h-3.38c-0.142-3.888-2.112-6.966-5.911-9.235c-2.604-1.571-5.697-2.59-9.289-3.052v19.435
					l-3.693-0.695v-19.156h-2.162c-0.358,0-0.756,0-1.188,0c-0.432,0-0.83,0.021-1.188,0.066v18.051l-3.696-0.695v-17.005
					c-3.238,0.51-5.877,1.368-7.918,2.569c-3.448,1.991-5.172,4.692-5.172,8.121c0,2.59,1.551,4.834,4.656,6.732
					c2.326,1.387,7.332,2.728,15.021,4.022c0.143,0.051,0.335,0.079,0.586,0.106c0.244,0.025,0.544,0.079,0.897,0.178
					c4.02,0.643,7.403,1.311,10.153,2.009c2.753,0.693,4.941,1.369,6.561,2.014c5.361,2.265,8.044,5.477,8.044,9.643
					c0,4.352-2.313,7.826-6.935,10.413c-3.623,1.993-8.28,3.237-13.969,3.743v6.391h-3.693v-6.246h-0.757
					c-0.576,0-1.189-0.011-1.837-0.035c-0.648-0.025-1.296-0.059-1.943-0.109v6.391h-3.696v-6.803
					c-4.153-0.645-7.673-1.876-10.557-3.679c-4.646-2.915-7.246-6.917-7.813-12.008h3.484c0.421,4.4,2.674,7.864,6.757,10.413
					c2.18,1.438,4.89,2.476,8.128,3.121v-21.027l3.696,0.689v20.823c1.295,0.14,2.591,0.211,3.887,0.211h0.65v-19.295
					L187.253,136.584z"/>
			</g>
		</g>
		<path style="fill:#C6C6C6;" d="M377.366,240.652c-0.002-0.016-0.004-0.033-0.005-0.05c-0.303-2.97-0.683-5.972-1.146-9.001
			c-0.01-0.063-0.019-0.125-0.027-0.188c-0.218-1.415-0.456-2.836-0.709-4.262c-0.034-0.189-0.067-0.379-0.102-0.568
			c-0.248-1.373-0.514-2.75-0.795-4.131c-0.046-0.225-0.093-0.45-0.139-0.675c-0.288-1.384-0.59-2.771-0.911-4.162
			c-0.041-0.18-0.085-0.359-0.126-0.539c-0.342-1.458-0.696-2.917-1.074-4.382c-13.55-52.457-46.465-90.095-76.098-88.975
			c-0.117,0.004-0.235,0.012-0.353,0.018c-0.423,0.02-0.846,0.048-1.268,0.084c-0.167,0.014-0.334,0.029-0.5,0.047
			c-0.321,0.032-0.641,0.07-0.961,0.111c-0.105,0.014-0.211,0.027-0.316,0.041c-0.134,0.02-0.268,0.039-0.4,0.059
			c-0.285,0.045-0.569,0.095-0.854,0.146c0.384-0.164,0.758-0.35,1.147-0.498c-1.22,0.172-2.443,0.284-3.648,0.596
			c-1.719,0.443-3.381,1.029-4.99,1.734l-27.209,7.027l0.102,0.392c-0.786,0.321-1.554,0.683-2.314,1.063
			c-0.216,0.108-0.43,0.221-0.643,0.333c-0.598,0.316-1.188,0.648-1.769,1c-0.169,0.103-0.342,0.198-0.51,0.304
			c-0.697,0.438-1.382,0.903-2.055,1.393c-0.222,0.161-0.438,0.333-0.656,0.499c-0.469,0.357-0.931,0.725-1.387,1.106
			c-0.254,0.212-0.509,0.423-0.758,0.644c-0.526,0.462-1.043,0.941-1.553,1.438c-0.336,0.329-0.665,0.672-0.994,1.014
			c-0.325,0.339-0.648,0.679-0.966,1.031c-0.329,0.363-0.652,0.734-0.973,1.112c-0.218,0.258-0.431,0.522-0.643,0.786
			c-1.23,1.514-2.396,3.134-3.498,4.856c-0.033,0.053-0.067,0.105-0.101,0.159c-13.809,21.735-17.396,59.299-7.145,98.983
			c13.688,52.995,47.131,90.766,76.996,88.825c0.013,0,0.025-0.001,0.037-0.002c0.577-0.037,1.153-0.086,1.728-0.153l0.101,0.391
			l32.303-8.345c0.002,0,0.003,0,0.004-0.001C368.224,323.188,381.937,285.703,377.366,240.652z"/>
		<g>
			<path style="fill:#F7A50C;" d="M282.507,125.844l-30.227,14.139l0.171,0.365c-25.648,16.529-27.914,67.965-4.267,118.521
				c23.648,50.557,64.58,81.785,93.708,72.693l0.171,0.365l30.227-14.139L282.507,125.844z"/>
			<path style="fill:#DFC1B4;" d="M282.507,125.844l-30.227,14.139l0.171,0.365c-18.111,11.673-24.501,40.776-18.401,74.661
				l73.979-34.603L282.507,125.844z"/>
			<path style="fill:#DFC1B4;" d="M315.19,195.715l-77.199,36.109c0.524,1.801,1.103,3.615,1.691,5.43l77.896-36.436L315.19,195.715
				z"/>
			<path style="fill:#DFC1B4;" d="M329.51,226.332l-79.094,36.995c0.396,0.768,0.769,1.559,1.166,2.325l79.03-36.966L329.51,226.332
				z"/>
			<path style="fill:#DFC1B4;" d="M320.514,207.098l-78.556,36.744c1.031,2.821,2.16,5.65,3.348,8.482l79.063-36.982
				L320.514,207.098z"/>
			<path style="fill:#DFC1B4;" d="M356.501,284.033l-66.457,31.086c1.026,0.852,2.067,1.58,3.099,2.377l64.827-30.322
				L356.501,284.033z"/>
			<path style="fill:#DFC1B4;" d="M370.087,313.08l-42.29,19.781c4.896,0.43,9.643,0.091,14.096-1.299l0.171,0.365l30.227-14.139
				L370.087,313.08z"/>
			<path style="fill:#DFC1B4;" d="M341.813,252.631l-76.359,35.717c3.593,5.004,7.364,9.613,11.23,13.883l72.473-33.898
				L341.813,252.631z"/>
			<path style="fill:#FEC900;" d="M372.288,317.791c-29.265,13.689-73.089-18.182-97.883-71.186
				c-24.793-53.005-21.165-107.071,8.101-120.76c29.265-13.688,73.09,18.181,97.883,71.186S401.552,304.102,372.288,317.791z"/>
			<path style="fill:#FFFFFF;" d="M377.303,190.893c-12.604,3.658-24.579,9.07-33.082,17.729
				c-15.549,15.828-10.005,44.281-0.207,61.597c8.831,15.606,21.594,30.164,36.652,41.814
				c21.271-19.478,21.885-67.618-0.278-115.002C379.406,194.931,378.343,192.925,377.303,190.893z"/>
			<path style="fill:#FFFFFF;" d="M365.087,253.086c3.858,18.426,13.387,32.407,26.298,42.775
				c9.414-23.148,6.566-59.232-9.476-95.355C367.737,212.689,360.182,229.668,365.087,253.086z"/>
			<path style="fill:#DFC1B4;" d="M302.411,169.852c11.146-11.349,24.753-19.847,39.472-26.237
				c-20.307-18.161-42.311-25.753-59.377-17.77c-29.266,13.688-32.894,67.755-8.101,120.76c1.694,3.62,3.492,7.118,5.354,10.532
				C274.393,226.328,280.011,192.656,302.411,169.852z"/>
			<path style="fill:#DFC1B4;" d="M267.836,180.59c10.051-20.055,21.946-43.525,43.482-53.544c0.874-0.407,1.756-0.704,2.633-1.07
				c-11.236-4.173-22.085-4.51-31.445-0.131c-20.88,9.766-28.683,40.093-22.45,75.913
				C261.766,194.737,264.28,187.682,267.836,180.59z"/>
			<path style="fill:#FFFFFF;" d="M280.894,243.092c-23.839-50.965-21.33-102.803,4.905-118.893
				c-1.167,0.393-2.351,0.727-3.477,1.255c-29.265,13.689-32.893,67.755-8.1,120.76c24.793,53.006,68.618,84.875,97.883,71.187
				c1.127-0.527,2.143-1.221,3.192-1.865C346.13,325.358,304.733,294.058,280.894,243.092z"/>
			<path style="fill:#DFC1B4;" d="M362.683,204.836c16.224,34.684,19.959,69.266,11.623,89.655
				c11.967-18.692,9.829-55.288-7.211-91.719c-17.041-36.432-43.759-61.526-65.778-64.325
				C322.31,145.119,346.461,170.152,362.683,204.836z"/>
			<g>
				<path style="fill:#DFC1B4;" d="M323.8,230.551l-16.721,7.821c2.232,3.802,4.729,6.739,7.491,8.807
					c3.636,2.756,7.024,3.401,10.168,1.931c3.482-1.629,5.101-4.99,4.863-10.086c-0.145-2.494-1.203-7.595-3.171-15.295
					l-0.326-1.363c-2.265-8.653-3.24-14.294-2.938-16.919c0.408-4.157,2.142-6.946,5.201-8.376
					c3.523-1.648,7.268-1.109,11.248,1.609c2.69,1.93,5.085,4.578,7.173,7.952l6.914-3.234l1.566,3.349l-6.6,3.086
					c0.222,0.373,0.423,0.752,0.606,1.146c0.183,0.389,0.366,0.782,0.551,1.176c0.151,0.324,0.29,0.619,0.41,0.877
					c0.122,0.263,0.24,0.564,0.355,0.91l6.599-3.086l1.565,3.345l-6.855,3.207c1.522,4.335,2.075,8.352,1.656,12.046
					c-0.491,4.967-2.728,8.575-6.733,10.842l-1.432-3.062c3.461-1.776,5.414-4.864,5.86-9.267c0.32-3.026-0.068-6.259-1.171-9.708
					l-17.604,8.233l-0.935-3.64l17.352-8.116l-0.916-1.957c-0.152-0.325-0.32-0.686-0.503-1.076
					c-0.184-0.391-0.371-0.743-0.564-1.049l-16.35,7.648l-0.936-3.643l15.402-7.204c-1.834-2.718-3.729-4.743-5.682-6.084
					c-3.265-2.28-6.442-2.696-9.548-1.245c-2.346,1.098-3.722,3.454-4.126,7.072c-0.271,2.693,0.637,7.796,2.722,15.311
					c0.014,0.149,0.07,0.336,0.151,0.575c0.08,0.232,0.159,0.526,0.219,0.888c1.121,3.914,1.95,7.262,2.482,10.049
					c0.539,2.787,0.854,5.056,0.957,6.796c0.22,5.816-1.554,9.607-5.327,11.373c-3.942,1.844-8.068,1.221-12.37-1.87
					c-3.341-2.438-6.441-6.128-9.31-11.067l-5.789,2.708l-1.564-3.346l5.658-2.646l-0.32-0.686
					c-0.244-0.521-0.495-1.082-0.747-1.679c-0.251-0.599-0.496-1.198-0.725-1.807l-5.788,2.708l-1.566-3.348l6.162-2.883
					c-1.177-4.035-1.552-7.745-1.141-11.121c0.672-5.443,3.195-9.494,7.566-12.164l1.477,3.156
					c-3.808,2.246-5.99,5.754-6.569,10.533c-0.378,2.582-0.171,5.477,0.617,8.684l19.046-8.908l0.942,3.639l-18.862,8.822
					c0.423,1.232,0.907,2.438,1.456,3.611l0.276,0.588l17.478-8.174L323.8,230.551z"/>
			</g>
		</g>
	</g>
</g>
</svg>
