<svg id="Capa_1" enable-background="new 0 0 512.051 512.051" height="512" viewBox="0 0 512.051 512.051" width="512" xmlns="http://www.w3.org/2000/svg"><g><path d="m.025 0h512v392h-512z" fill="#61729b"/><path d="m256.025 0h256v392h-256z" fill="#47568c"/><path d="m30.025 30h452v332h-452z" fill="#edf5ff"/><path d="m256.025 30h226v332h-226z" fill="#d5e8fe"/><g><path d="m61.025 167h30v60h-30z" fill="#61729b"/></g><g><path d="m361.025 167h-30c0-41.35-33.65-75-75-75s-75 33.65-75 75h-30c0-57.9 47.1-105 105-105s105 47.1 105 105z" fill="#7ed8f6"/></g><path d="m361.025 167h-30c0-41.35-33.65-75-75-75v-30c57.9 0 105 47.1 105 105z" fill="#6aa9ff"/><g><path d="m421.025 182h30v30h-30z" fill="#47568c"/></g><g><g><path d="m364.265 291.1-63.24-15.81v-108.29c0-24.81-20.19-45-45-45s-45 20.19-45 45v176.37l-28.18-28.19c-17.59-17.59-46.05-17.59-63.64 0-17.54 17.55-17.54 46.09 0 63.64 67.86 67.85 93.81 108.75 136.82 125.06 6.26 2.38 12.88 4.23 20.04 5.57 77.82 15.94 144.96-43.51 144.96-120.43v-25.17c0-34.48-23.34-64.4-56.76-72.75z" fill="#ffdecf"/></g></g><path d="m421.025 363.85v25.17c0 76.92-67.14 136.37-144.96 120.43-7.16-1.34-13.78-3.19-20.04-5.57v-381.88c24.81 0 45 20.19 45 45v108.29l63.24 15.81c33.42 8.35 56.76 38.27 56.76 72.75z" fill="#ffbfab"/></g></svg>