<svg id="Capa_1" enable-background="new 0 0 512 512" height="512" viewBox="0 0 512 512" width="512" xmlns="http://www.w3.org/2000/svg"><g><path d="m45.12 50.828h391.85v241.02h-391.85z" fill="#f7fafa"/><path d="m241.05 50.828h195.92v241.02h-195.92z" fill="#d6f0ff"/><path d="m225.812 186.336h-135.437v-90.261h135.438v90.261z" fill="#fdbe4d"/><g fill="#672653"><path d="m256.217 96.075h135.283v30h-135.283z"/><path d="m256.217 156.336h135.283v30h-135.283z"/><path d="m256.217 216.597h101.022v30h-101.022z"/></g><path d="m90.375 216.575h135.438v30h-135.438z" fill="#8d4c78"/><path d="m30.12 35.828v281.4h421.85v-281.4zm391.85 241.02h-361.85v-211.02h361.85z" fill="#2f6996"/><path d="m451.97 35.828v281.4h-210.92v-40.38h180.92v-211.02h-180.92v-30z" fill="#204e7e"/><path d="m482.09 306.848v32.12c0 17.74-14.38 32.13-32.12 32.13h-417.85c-17.74 0-32.12-14.39-32.12-32.13v-32.12z" fill="#acdeff"/><path d="m482.09 306.848v32.12c0 17.74-14.38 32.13-32.12 32.13h-208.92v-64.25z" fill="#8fbaeb"/><path d="m497 305.852c0 49.91-40.46 90.37-90.38 90.37-49.91 0-90.37-40.46-90.37-90.37 0-49.92 40.46-90.38 90.37-90.38 49.92 0 90.38 40.46 90.38 90.38z" fill="#f7fafa"/><path d="m497 305.852c0 49.91-40.46 90.37-90.38 90.37v-180.75c49.92 0 90.38 40.46 90.38 90.38z" fill="#d6f0ff"/><path d="m497 305.852c0 49.91-40.46 90.37-90.38 90.37-49.91 0-90.37-40.46-90.37-90.37 0-49.92 40.46-90.38 90.37-90.38 49.92 0 90.38 40.46 90.38 90.38z" fill="#f7fafa"/><path d="m497 305.852c0 49.91-40.46 90.37-90.38 90.37v-180.75c49.92 0 90.38 40.46 90.38 90.38z" fill="#d6f0ff"/><path d="m240.733 377.619h124.241v64h-124.241z" fill="#ff5754" transform="matrix(.707 -.707 .707 .707 -200.94 334.125)"/><path d="m331.25 305.852c0-41.57 33.81-75.38 75.37-75.38l9.381-15-9.381-15c-58.1 0-105.37 47.27-105.37 105.38 0 58.1 47.27 105.37 105.37 105.37l9.381-12.652-9.381-17.348c-41.56 0-75.37-33.81-75.37-75.37z" fill="#0fbcde"/><path d="m406.62 200.472v30c41.57 0 75.38 33.81 75.38 75.38 0 41.56-33.81 75.37-75.38 75.37v30c58.11 0 105.38-47.27 105.38-105.37 0-58.11-47.27-105.38-105.38-105.38z" fill="#0c99b5"/></g></svg>